<?xml version="1.0" encoding="utf-8" standalone="no"?>
<!DOCTYPE svg PUBLIC "-//W3C//DTD SVG 1.1//EN"
  "http://www.w3.org/Graphics/SVG/1.1/DTD/svg11.dtd">
<svg xmlns:xlink="http://www.w3.org/1999/xlink" width="704.664375pt" height="436.592pt" viewBox="0 0 704.664375 436.592" xmlns="http://www.w3.org/2000/svg" version="1.1">
 <metadata>
  <rdf:RDF xmlns:dc="http://purl.org/dc/elements/1.1/" xmlns:cc="http://creativecommons.org/ns#" xmlns:rdf="http://www.w3.org/1999/02/22-rdf-syntax-ns#">
   <cc:Work>
    <dc:type rdf:resource="http://purl.org/dc/dcmitype/StillImage"/>
    <dc:date>2026-07-31T13:30:32.275792</dc:date>
    <dc:format>image/svg+xml</dc:format>
    <dc:creator>
     <cc:Agent>
      <dc:title>Matplotlib v3.11.1, https://matplotlib.org/</dc:title>
     </cc:Agent>
    </dc:creator>
   </cc:Work>
  </rdf:RDF>
 </metadata>
 <defs>
  <style type="text/css">*{stroke-linejoin: round; stroke-linecap: butt}</style>
 </defs>
 <g id="figure_1">
  <g id="patch_1">
   <path d="M -0 436.592 
L 704.664375 436.592 
L 704.664375 0 
L -0 0 
z
" style="fill: #ffffff"/>
  </g>
  <g id="axes_1">
   <g id="patch_2">
    <path d="M 54.467656 390.388719 
L 697.464375 390.388719 
L 697.464375 45.312 
L 54.467656 45.312 
z
" style="fill: #ffffff"/>
   </g>
   <g id="matplotlib.axis_1">
    <g id="xtick_1">
     <g id="line2d_1">
      <path d="M 83.69478 390.388719 
L 83.69478 45.312 
" clip-path="url(#pcaf0131ae6)" style="fill: none; stroke-dasharray: 2.96,1.28; stroke-dashoffset: 0; stroke: #b0b0b0; stroke-opacity: 0.45; stroke-width: 0.8"/>
     </g>
     <g id="line2d_2">
      <defs>
       <path id="mcf58bd493e" d="M 0 0 
L 0 3.5 
" style="stroke: #000000; stroke-width: 0.8"/>
      </defs>
      <g>
       <use xlink:href="#mcf58bd493e" x="83.69478" y="390.388719" style="stroke: #000000; stroke-width: 0.8"/>
      </g>
     </g>
     <g id="text_1">
      <!-- 0 -->
      <g transform="translate(79.24103 408.025438) scale(0.14 -0.14)">
       <defs>
        <path id="DejaVuSerif-13" d="M 2034 219 
Q 2513 219 2750 744 
Q 2988 1269 2988 2328 
Q 2988 3391 2750 3916 
Q 2513 4441 2034 4441 
Q 1556 4441 1318 3916 
Q 1081 3391 1081 2328 
Q 1081 1269 1318 744 
Q 1556 219 2034 219 
z
M 2034 -91 
Q 1275 -91 848 546 
Q 422 1184 422 2328 
Q 422 3475 848 4112 
Q 1275 4750 2034 4750 
Q 2797 4750 3222 4112 
Q 3647 3475 3647 2328 
Q 3647 1184 3222 546 
Q 2797 -91 2034 -91 
z
" transform="scale(0.015625)"/>
       </defs>
       <use xlink:href="#DejaVuSerif-13"/>
      </g>
     </g>
    </g>
    <g id="xtick_2">
     <g id="line2d_3">
      <path d="M 200.603274 390.388719 
L 200.603274 45.312 
" clip-path="url(#pcaf0131ae6)" style="fill: none; stroke-dasharray: 2.96,1.28; stroke-dashoffset: 0; stroke: #b0b0b0; stroke-opacity: 0.45; stroke-width: 0.8"/>
     </g>
     <g id="line2d_4">
      <g>
       <use xlink:href="#mcf58bd493e" x="200.603274" y="390.388719" style="stroke: #000000; stroke-width: 0.8"/>
      </g>
     </g>
     <g id="text_2">
      <!-- 1 -->
      <g transform="translate(196.149524 408.025438) scale(0.14 -0.14)">
       <defs>
        <path id="DejaVuSerif-14" d="M 909 0 
L 909 331 
L 1722 331 
L 1722 4213 
L 781 3603 
L 781 4013 
L 1919 4750 
L 2350 4750 
L 2350 331 
L 3163 331 
L 3163 0 
L 909 0 
z
" transform="scale(0.015625)"/>
       </defs>
       <use xlink:href="#DejaVuSerif-14"/>
      </g>
     </g>
    </g>
    <g id="xtick_3">
     <g id="line2d_5">
      <path d="M 317.511768 390.388719 
L 317.511768 45.312 
" clip-path="url(#pcaf0131ae6)" style="fill: none; stroke-dasharray: 2.96,1.28; stroke-dashoffset: 0; stroke: #b0b0b0; stroke-opacity: 0.45; stroke-width: 0.8"/>
     </g>
     <g id="line2d_6">
      <g>
       <use xlink:href="#mcf58bd493e" x="317.511768" y="390.388719" style="stroke: #000000; stroke-width: 0.8"/>
      </g>
     </g>
     <g id="text_3">
      <!-- 2 -->
      <g transform="translate(313.058018 408.025438) scale(0.14 -0.14)">
       <defs>
        <path id="DejaVuSerif-15" d="M 819 3553 
L 469 3553 
L 469 4384 
Q 803 4563 1142 4656 
Q 1481 4750 1806 4750 
Q 2534 4750 2956 4397 
Q 3378 4044 3378 3438 
Q 3378 2753 2422 1800 
Q 2347 1728 2309 1691 
L 1131 513 
L 3078 513 
L 3078 1088 
L 3444 1088 
L 3444 0 
L 434 0 
L 434 341 
L 1850 1753 
Q 2319 2222 2519 2614 
Q 2719 3006 2719 3438 
Q 2719 3909 2473 4175 
Q 2228 4441 1797 4441 
Q 1350 4441 1106 4219 
Q 863 3997 819 3553 
z
" transform="scale(0.015625)"/>
       </defs>
       <use xlink:href="#DejaVuSerif-15"/>
      </g>
     </g>
    </g>
    <g id="xtick_4">
     <g id="line2d_7">
      <path d="M 434.420263 390.388719 
L 434.420263 45.312 
" clip-path="url(#pcaf0131ae6)" style="fill: none; stroke-dasharray: 2.96,1.28; stroke-dashoffset: 0; stroke: #b0b0b0; stroke-opacity: 0.45; stroke-width: 0.8"/>
     </g>
     <g id="line2d_8">
      <g>
       <use xlink:href="#mcf58bd493e" x="434.420263" y="390.388719" style="stroke: #000000; stroke-width: 0.8"/>
      </g>
     </g>
     <g id="text_4">
      <!-- 3 -->
      <g transform="translate(429.966513 408.025438) scale(0.14 -0.14)">
       <defs>
        <path id="DejaVuSerif-16" d="M 622 4469 
Q 988 4606 1323 4678 
Q 1659 4750 1953 4750 
Q 2638 4750 3022 4454 
Q 3406 4159 3406 3634 
Q 3406 3213 3140 2930 
Q 2875 2647 2388 2547 
Q 2963 2466 3280 2130 
Q 3597 1794 3597 1259 
Q 3597 606 3158 257 
Q 2719 -91 1894 -91 
Q 1528 -91 1179 -12 
Q 831 66 488 225 
L 488 1131 
L 838 1131 
Q 869 681 1141 450 
Q 1413 219 1906 219 
Q 2384 219 2661 495 
Q 2938 772 2938 1253 
Q 2938 1803 2653 2086 
Q 2369 2369 1819 2369 
L 1522 2369 
L 1522 2688 
L 1678 2688 
Q 2225 2688 2498 2914 
Q 2772 3141 2772 3597 
Q 2772 4006 2547 4223 
Q 2322 4441 1900 4441 
Q 1478 4441 1245 4241 
Q 1013 4041 972 3647 
L 622 3647 
L 622 4469 
z
" transform="scale(0.015625)"/>
       </defs>
       <use xlink:href="#DejaVuSerif-16"/>
      </g>
     </g>
    </g>
    <g id="xtick_5">
     <g id="line2d_9">
      <path d="M 551.328757 390.388719 
L 551.328757 45.312 
" clip-path="url(#pcaf0131ae6)" style="fill: none; stroke-dasharray: 2.96,1.28; stroke-dashoffset: 0; stroke: #b0b0b0; stroke-opacity: 0.45; stroke-width: 0.8"/>
     </g>
     <g id="line2d_10">
      <g>
       <use xlink:href="#mcf58bd493e" x="551.328757" y="390.388719" style="stroke: #000000; stroke-width: 0.8"/>
      </g>
     </g>
     <g id="text_5">
      <!-- 4 -->
      <g transform="translate(546.875007 408.025438) scale(0.14 -0.14)">
       <defs>
        <path id="DejaVuSerif-17" d="M 2234 1581 
L 2234 4063 
L 641 1581 
L 2234 1581 
z
M 3609 0 
L 1484 0 
L 1484 331 
L 2234 331 
L 2234 1247 
L 197 1247 
L 197 1588 
L 2241 4750 
L 2859 4750 
L 2859 1581 
L 3750 1581 
L 3750 1247 
L 2859 1247 
L 2859 331 
L 3609 331 
L 3609 0 
z
" transform="scale(0.015625)"/>
       </defs>
       <use xlink:href="#DejaVuSerif-17"/>
      </g>
     </g>
    </g>
    <g id="xtick_6">
     <g id="line2d_11">
      <path d="M 668.237251 390.388719 
L 668.237251 45.312 
" clip-path="url(#pcaf0131ae6)" style="fill: none; stroke-dasharray: 2.96,1.28; stroke-dashoffset: 0; stroke: #b0b0b0; stroke-opacity: 0.45; stroke-width: 0.8"/>
     </g>
     <g id="line2d_12">
      <g>
       <use xlink:href="#mcf58bd493e" x="668.237251" y="390.388719" style="stroke: #000000; stroke-width: 0.8"/>
      </g>
     </g>
     <g id="text_6">
      <!-- 5 -->
      <g transform="translate(663.783501 408.025438) scale(0.14 -0.14)">
       <defs>
        <path id="DejaVuSerif-18" d="M 3219 4666 
L 3219 4153 
L 1081 4153 
L 1081 2816 
Q 1244 2928 1461 2984 
Q 1678 3041 1947 3041 
Q 2703 3041 3140 2622 
Q 3578 2203 3578 1478 
Q 3578 738 3136 323 
Q 2694 -91 1894 -91 
Q 1572 -91 1234 -12 
Q 897 66 544 225 
L 544 1131 
L 897 1131 
Q 925 688 1179 453 
Q 1434 219 1894 219 
Q 2388 219 2653 544 
Q 2919 869 2919 1478 
Q 2919 2084 2655 2407 
Q 2391 2731 1894 2731 
Q 1613 2731 1398 2631 
Q 1184 2531 1019 2322 
L 750 2322 
L 750 4666 
L 3219 4666 
z
" transform="scale(0.015625)"/>
       </defs>
       <use xlink:href="#DejaVuSerif-18"/>
      </g>
     </g>
    </g>
    <g id="text_7">
     <!-- $t$ (ms) -->
     <g transform="translate(355.456016 426.028719) scale(0.14 -0.14)">
      <defs>
       <path id="Cmmi10-30" d="M 397 519 
Q 397 613 416 697 
L 878 2534 
L 206 2534 
Q 141 2534 141 2619 
Q 166 2759 225 2759 
L 934 2759 
L 1191 3803 
Q 1216 3888 1291 3947 
Q 1366 4006 1459 4006 
Q 1541 4006 1595 3957 
Q 1650 3909 1650 3828 
Q 1650 3809 1648 3798 
Q 1647 3788 1644 3775 
L 1388 2759 
L 2047 2759 
Q 2113 2759 2113 2675 
Q 2109 2659 2100 2621 
Q 2091 2584 2075 2559 
Q 2059 2534 2028 2534 
L 1331 2534 
L 872 684 
Q 825 503 825 372 
Q 825 97 1013 97 
Q 1294 97 1511 361 
Q 1728 625 1844 941 
Q 1869 978 1894 978 
L 1972 978 
Q 1997 978 2012 961 
Q 2028 944 2028 922 
Q 2028 909 2022 903 
Q 1881 516 1612 222 
Q 1344 -72 997 -72 
Q 744 -72 570 93 
Q 397 259 397 519 
z
" transform="scale(0.015625)"/>
       <path id="DejaVuSerif-3" transform="scale(0.015625)"/>
       <path id="DejaVuSerif-b" d="M 2041 -997 
Q 1281 -656 893 83 
Q 506 822 506 1931 
Q 506 3044 893 3783 
Q 1281 4522 2041 4863 
L 2041 4556 
Q 1559 4225 1350 3623 
Q 1141 3022 1141 1931 
Q 1141 844 1350 242 
Q 1559 -359 2041 -691 
L 2041 -997 
z
" transform="scale(0.015625)"/>
       <path id="DejaVuSerif-50" d="M 3316 2675 
Q 3481 3041 3739 3227 
Q 3997 3413 4341 3413 
Q 4863 3413 5119 3089 
Q 5375 2766 5375 2113 
L 5375 331 
L 5894 331 
L 5894 0 
L 4300 0 
L 4300 331 
L 4800 331 
L 4800 2047 
Q 4800 2556 4650 2772 
Q 4500 2988 4153 2988 
Q 3769 2988 3567 2697 
Q 3366 2406 3366 1850 
L 3366 331 
L 3866 331 
L 3866 0 
L 2291 0 
L 2291 331 
L 2791 331 
L 2791 2069 
Q 2791 2566 2641 2777 
Q 2491 2988 2144 2988 
Q 1759 2988 1557 2697 
Q 1356 2406 1356 1850 
L 1356 331 
L 1856 331 
L 1856 0 
L 263 0 
L 263 331 
L 781 331 
L 781 2994 
L 231 2994 
L 231 3322 
L 1356 3322 
L 1356 2731 
Q 1516 3063 1762 3238 
Q 2009 3413 2322 3413 
Q 2709 3413 2968 3220 
Q 3228 3028 3316 2675 
z
" transform="scale(0.015625)"/>
       <path id="DejaVuSerif-56" d="M 359 184 
L 359 959 
L 691 959 
Q 703 588 923 403 
Q 1144 219 1575 219 
Q 1963 219 2166 364 
Q 2369 509 2369 788 
Q 2369 1006 2220 1140 
Q 2072 1275 1594 1428 
L 1178 1569 
Q 750 1706 558 1912 
Q 366 2119 366 2438 
Q 366 2894 700 3153 
Q 1034 3413 1625 3413 
Q 1888 3413 2178 3344 
Q 2469 3275 2778 3144 
L 2778 2419 
L 2447 2419 
Q 2434 2741 2221 2922 
Q 2009 3103 1644 3103 
Q 1281 3103 1095 2975 
Q 909 2847 909 2591 
Q 909 2381 1050 2254 
Q 1191 2128 1613 1997 
L 2069 1856 
Q 2541 1709 2748 1489 
Q 2956 1269 2956 922 
Q 2956 450 2595 179 
Q 2234 -91 1600 -91 
Q 1278 -91 972 -22 
Q 666 47 359 184 
z
" transform="scale(0.015625)"/>
       <path id="DejaVuSerif-c" d="M 453 -997 
L 453 -691 
Q 934 -359 1145 242 
Q 1356 844 1356 1931 
Q 1356 3022 1145 3623 
Q 934 4225 453 4556 
L 453 4863 
Q 1216 4522 1603 3783 
Q 1991 3044 1991 1931 
Q 1991 822 1603 83 
Q 1216 -656 453 -997 
z
" transform="scale(0.015625)"/>
      </defs>
      <use xlink:href="#Cmmi10-30" transform="translate(0 0.015625)"/>
      <use xlink:href="#DejaVuSerif-3" transform="translate(36.083984 0.015625)"/>
      <use xlink:href="#DejaVuSerif-b" transform="translate(67.871094 0.015625)"/>
      <use xlink:href="#DejaVuSerif-50" transform="translate(106.884766 0.015625)"/>
      <use xlink:href="#DejaVuSerif-56" transform="translate(201.708984 0.015625)"/>
      <use xlink:href="#DejaVuSerif-c" transform="translate(253.027344 0.015625)"/>
     </g>
    </g>
   </g>
   <g id="matplotlib.axis_2">
    <g id="ytick_1">
     <g id="line2d_13">
      <path d="M 54.467656 344.670895 
L 697.464375 344.670895 
" clip-path="url(#pcaf0131ae6)" style="fill: none; stroke-dasharray: 2.96,1.28; stroke-dashoffset: 0; stroke: #b0b0b0; stroke-opacity: 0.45; stroke-width: 0.8"/>
     </g>
     <g id="line2d_14">
      <defs>
       <path id="m91c927c364" d="M 0 0 
L -3.5 0 
" style="stroke: #000000; stroke-width: 0.8"/>
      </defs>
      <g>
       <use xlink:href="#m91c927c364" x="54.467656" y="344.670895" style="stroke: #000000; stroke-width: 0.8"/>
      </g>
     </g>
     <g id="text_8">
      <!-- 0.4 -->
      <g transform="translate(25.203281 349.989255) scale(0.14 -0.14)">
       <defs>
        <path id="DejaVuSerif-11" d="M 603 325 
Q 603 500 722 622 
Q 841 744 1019 744 
Q 1191 744 1312 622 
Q 1434 500 1434 325 
Q 1434 153 1312 31 
Q 1191 -91 1019 -91 
Q 841 -91 722 29 
Q 603 150 603 325 
z
" transform="scale(0.015625)"/>
       </defs>
       <use xlink:href="#DejaVuSerif-13"/>
       <use xlink:href="#DejaVuSerif-11" transform="translate(63.625 0)"/>
       <use xlink:href="#DejaVuSerif-17" transform="translate(95.40625 0)"/>
      </g>
     </g>
    </g>
    <g id="ytick_2">
     <g id="line2d_15">
      <path d="M 54.467656 296.032156 
L 697.464375 296.032156 
" clip-path="url(#pcaf0131ae6)" style="fill: none; stroke-dasharray: 2.96,1.28; stroke-dashoffset: 0; stroke: #b0b0b0; stroke-opacity: 0.45; stroke-width: 0.8"/>
     </g>
     <g id="line2d_16">
      <g>
       <use xlink:href="#m91c927c364" x="54.467656" y="296.032156" style="stroke: #000000; stroke-width: 0.8"/>
      </g>
     </g>
     <g id="text_9">
      <!-- 0.5 -->
      <g transform="translate(25.203281 301.350515) scale(0.14 -0.14)">
       <use xlink:href="#DejaVuSerif-13"/>
       <use xlink:href="#DejaVuSerif-11" transform="translate(63.625 0)"/>
       <use xlink:href="#DejaVuSerif-18" transform="translate(95.40625 0)"/>
      </g>
     </g>
    </g>
    <g id="ytick_3">
     <g id="line2d_17">
      <path d="M 54.467656 247.393416 
L 697.464375 247.393416 
" clip-path="url(#pcaf0131ae6)" style="fill: none; stroke-dasharray: 2.96,1.28; stroke-dashoffset: 0; stroke: #b0b0b0; stroke-opacity: 0.45; stroke-width: 0.8"/>
     </g>
     <g id="line2d_18">
      <g>
       <use xlink:href="#m91c927c364" x="54.467656" y="247.393416" style="stroke: #000000; stroke-width: 0.8"/>
      </g>
     </g>
     <g id="text_10">
      <!-- 0.6 -->
      <g transform="translate(25.203281 252.711775) scale(0.14 -0.14)">
       <defs>
        <path id="DejaVuSerif-19" d="M 2094 219 
Q 2534 219 2771 542 
Q 3009 866 3009 1472 
Q 3009 2078 2771 2401 
Q 2534 2725 2094 2725 
Q 1647 2725 1412 2412 
Q 1178 2100 1178 1509 
Q 1178 888 1415 553 
Q 1653 219 2094 219 
z
M 1075 2569 
Q 1288 2803 1556 2918 
Q 1825 3034 2163 3034 
Q 2859 3034 3264 2615 
Q 3669 2197 3669 1472 
Q 3669 763 3233 336 
Q 2797 -91 2069 -91 
Q 1278 -91 853 498 
Q 428 1088 428 2181 
Q 428 3406 931 4078 
Q 1434 4750 2350 4750 
Q 2597 4750 2869 4703 
Q 3141 4656 3425 4563 
L 3425 3794 
L 3072 3794 
Q 3034 4109 2831 4275 
Q 2628 4441 2284 4441 
Q 1678 4441 1381 3981 
Q 1084 3522 1075 2569 
z
" transform="scale(0.015625)"/>
       </defs>
       <use xlink:href="#DejaVuSerif-13"/>
       <use xlink:href="#DejaVuSerif-11" transform="translate(63.625 0)"/>
       <use xlink:href="#DejaVuSerif-19" transform="translate(95.40625 0)"/>
      </g>
     </g>
    </g>
    <g id="ytick_4">
     <g id="line2d_19">
      <path d="M 54.467656 198.754676 
L 697.464375 198.754676 
" clip-path="url(#pcaf0131ae6)" style="fill: none; stroke-dasharray: 2.96,1.28; stroke-dashoffset: 0; stroke: #b0b0b0; stroke-opacity: 0.45; stroke-width: 0.8"/>
     </g>
     <g id="line2d_20">
      <g>
       <use xlink:href="#m91c927c364" x="54.467656" y="198.754676" style="stroke: #000000; stroke-width: 0.8"/>
      </g>
     </g>
     <g id="text_11">
      <!-- 0.7 -->
      <g transform="translate(25.203281 204.073036) scale(0.14 -0.14)">
       <defs>
        <path id="DejaVuSerif-1a" d="M 3609 4347 
L 1784 0 
L 1319 0 
L 3059 4153 
L 903 4153 
L 903 3578 
L 538 3578 
L 538 4666 
L 3609 4666 
L 3609 4347 
z
" transform="scale(0.015625)"/>
       </defs>
       <use xlink:href="#DejaVuSerif-13"/>
       <use xlink:href="#DejaVuSerif-11" transform="translate(63.625 0)"/>
       <use xlink:href="#DejaVuSerif-1a" transform="translate(95.40625 0)"/>
      </g>
     </g>
    </g>
    <g id="ytick_5">
     <g id="line2d_21">
      <path d="M 54.467656 150.115937 
L 697.464375 150.115937 
" clip-path="url(#pcaf0131ae6)" style="fill: none; stroke-dasharray: 2.96,1.28; stroke-dashoffset: 0; stroke: #b0b0b0; stroke-opacity: 0.45; stroke-width: 0.8"/>
     </g>
     <g id="line2d_22">
      <g>
       <use xlink:href="#m91c927c364" x="54.467656" y="150.115937" style="stroke: #000000; stroke-width: 0.8"/>
      </g>
     </g>
     <g id="text_12">
      <!-- 0.8 -->
      <g transform="translate(25.203281 155.434296) scale(0.14 -0.14)">
       <defs>
        <path id="DejaVuSerif-1b" d="M 2981 1275 
Q 2981 1775 2732 2051 
Q 2484 2328 2034 2328 
Q 1584 2328 1336 2051 
Q 1088 1775 1088 1275 
Q 1088 772 1336 495 
Q 1584 219 2034 219 
Q 2484 219 2732 495 
Q 2981 772 2981 1275 
z
M 2853 3541 
Q 2853 3966 2637 4203 
Q 2422 4441 2034 4441 
Q 1650 4441 1433 4203 
Q 1216 3966 1216 3541 
Q 1216 3113 1433 2875 
Q 1650 2638 2034 2638 
Q 2422 2638 2637 2875 
Q 2853 3113 2853 3541 
z
M 2516 2484 
Q 3047 2413 3344 2092 
Q 3641 1772 3641 1275 
Q 3641 619 3225 264 
Q 2809 -91 2034 -91 
Q 1263 -91 845 264 
Q 428 619 428 1275 
Q 428 1772 725 2092 
Q 1022 2413 1556 2484 
Q 1084 2569 832 2842 
Q 581 3116 581 3541 
Q 581 4103 968 4426 
Q 1356 4750 2034 4750 
Q 2713 4750 3100 4426 
Q 3488 4103 3488 3541 
Q 3488 3116 3236 2842 
Q 2984 2569 2516 2484 
z
" transform="scale(0.015625)"/>
       </defs>
       <use xlink:href="#DejaVuSerif-13"/>
       <use xlink:href="#DejaVuSerif-11" transform="translate(63.625 0)"/>
       <use xlink:href="#DejaVuSerif-1b" transform="translate(95.40625 0)"/>
      </g>
     </g>
    </g>
    <g id="ytick_6">
     <g id="line2d_23">
      <path d="M 54.467656 101.477197 
L 697.464375 101.477197 
" clip-path="url(#pcaf0131ae6)" style="fill: none; stroke-dasharray: 2.96,1.28; stroke-dashoffset: 0; stroke: #b0b0b0; stroke-opacity: 0.45; stroke-width: 0.8"/>
     </g>
     <g id="line2d_24">
      <g>
       <use xlink:href="#m91c927c364" x="54.467656" y="101.477197" style="stroke: #000000; stroke-width: 0.8"/>
      </g>
     </g>
     <g id="text_13">
      <!-- 0.9 -->
      <g transform="translate(25.203281 106.795556) scale(0.14 -0.14)">
       <defs>
        <path id="DejaVuSerif-1c" d="M 2994 2091 
Q 2784 1856 2512 1740 
Q 2241 1625 1900 1625 
Q 1206 1625 804 2044 
Q 403 2463 403 3188 
Q 403 3897 839 4323 
Q 1275 4750 2003 4750 
Q 2794 4750 3217 4161 
Q 3641 3572 3641 2478 
Q 3641 1253 3137 581 
Q 2634 -91 1722 -91 
Q 1475 -91 1203 -44 
Q 931 3 647 97 
L 647 872 
L 997 872 
Q 1038 556 1241 387 
Q 1444 219 1784 219 
Q 2391 219 2687 676 
Q 2984 1134 2994 2091 
z
M 1978 4441 
Q 1534 4441 1298 4117 
Q 1063 3794 1063 3188 
Q 1063 2581 1298 2256 
Q 1534 1931 1978 1931 
Q 2422 1931 2658 2245 
Q 2894 2559 2894 3150 
Q 2894 3772 2656 4106 
Q 2419 4441 1978 4441 
z
" transform="scale(0.015625)"/>
       </defs>
       <use xlink:href="#DejaVuSerif-13"/>
       <use xlink:href="#DejaVuSerif-11" transform="translate(63.625 0)"/>
       <use xlink:href="#DejaVuSerif-1c" transform="translate(95.40625 0)"/>
      </g>
     </g>
    </g>
    <g id="ytick_7">
     <g id="line2d_25">
      <path d="M 54.467656 52.838457 
L 697.464375 52.838457 
" clip-path="url(#pcaf0131ae6)" style="fill: none; stroke-dasharray: 2.96,1.28; stroke-dashoffset: 0; stroke: #b0b0b0; stroke-opacity: 0.45; stroke-width: 0.8"/>
     </g>
     <g id="line2d_26">
      <g>
       <use xlink:href="#m91c927c364" x="54.467656" y="52.838457" style="stroke: #000000; stroke-width: 0.8"/>
      </g>
     </g>
     <g id="text_14">
      <!-- 1.0 -->
      <g transform="translate(25.203281 58.156817) scale(0.14 -0.14)">
       <use xlink:href="#DejaVuSerif-14"/>
       <use xlink:href="#DejaVuSerif-11" transform="translate(63.625 0)"/>
       <use xlink:href="#DejaVuSerif-13" transform="translate(95.40625 0)"/>
      </g>
     </g>
    </g>
    <g id="text_15">
     <!-- $V$ (V) -->
     <g transform="translate(17.84 234.720359) rotate(-90) scale(0.14 -0.14)">
      <defs>
       <path id="Cmmi10-7e" d="M 1409 -72 
L 897 4006 
Q 850 4147 416 4147 
Q 353 4147 353 4231 
Q 366 4300 384 4336 
Q 403 4372 459 4372 
L 2022 4372 
Q 2056 4372 2072 4347 
Q 2088 4322 2088 4288 
Q 2063 4147 2003 4147 
Q 1503 4147 1472 3975 
L 1894 628 
L 3866 3775 
Q 3922 3881 3922 3944 
Q 3922 4056 3820 4101 
Q 3719 4147 3584 4147 
Q 3519 4147 3519 4231 
Q 3531 4281 3540 4309 
Q 3550 4338 3569 4355 
Q 3588 4372 3628 4372 
L 4863 4372 
Q 4922 4372 4922 4288 
Q 4897 4147 4838 4147 
Q 4356 4147 4084 3725 
Q 4072 3713 4063 3713 
L 1703 -72 
Q 1656 -141 1581 -141 
L 1491 -141 
Q 1419 -141 1409 -72 
z
" transform="scale(0.015625)"/>
       <path id="DejaVuSerif-39" d="M 1119 4331 
L 2497 750 
L 3872 4331 
L 3347 4331 
L 3347 4666 
L 4716 4666 
L 4716 4331 
L 4263 4331 
L 2597 0 
L 2059 0 
L 403 4331 
L -63 4331 
L -63 4666 
L 1638 4666 
L 1638 4331 
L 1119 4331 
z
" transform="scale(0.015625)"/>
      </defs>
      <use xlink:href="#Cmmi10-7e" transform="translate(0 0.015625)"/>
      <use xlink:href="#DejaVuSerif-3" transform="translate(58.300781 0.015625)"/>
      <use xlink:href="#DejaVuSerif-b" transform="translate(90.087891 0.015625)"/>
      <use xlink:href="#DejaVuSerif-39" transform="translate(129.101562 0.015625)"/>
      <use xlink:href="#DejaVuSerif-c" transform="translate(201.318359 0.015625)"/>
     </g>
    </g>
   </g>
   <g id="line2d_27">
    <path d="M 83.69478 174.435307 
L 93.430919 172.004781 
L 98.691801 170.925884 
L 103.251233 170.213728 
L 107.459939 169.779496 
L 111.551736 169.584614 
L 115.526625 169.619013 
L 119.501513 169.872379 
L 123.710219 170.366357 
L 128.269651 171.134379 
L 133.413624 172.234781 
L 140.428134 173.986095 
L 152.118983 176.918581 
L 157.379866 177.98677 
L 161.939297 178.686908 
L 166.148003 179.108434 
L 170.122892 179.288152 
L 174.09778 179.24724 
L 178.072669 178.98756 
L 182.281375 178.487432 
L 186.840806 177.713724 
L 191.970166 176.611951 
L 198.984676 174.857885 
L 210.558617 171.955317 
L 215.819499 170.886454 
L 220.378931 170.185562 
L 224.573023 169.764303 
L 228.547912 169.582982 
L 232.5228 169.622265 
L 236.497689 169.880367 
L 240.706395 170.37896 
L 245.265826 171.151249 
L 250.4098 172.255247 
L 257.42431 174.008923 
L 268.998251 176.912009 
L 274.259133 177.981545 
L 278.818564 178.683192 
L 283.02727 179.10631 
L 287.002159 179.287631 
L 290.977048 179.248348 
L 294.951936 178.990246 
L 299.160642 178.491653 
L 303.720073 177.719364 
L 308.900581 176.606825 
L 315.915091 174.852176 
L 327.489032 171.95039 
L 332.749914 170.882538 
L 337.309345 170.182778 
L 341.518051 169.76165 
L 345.49294 169.582333 
L 349.467829 169.623652 
L 353.442717 169.883725 
L 357.651423 170.384237 
L 362.210854 171.1583 
L 367.354828 172.263788 
L 374.369338 174.018437 
L 385.943279 176.920223 
L 391.204161 177.988075 
L 395.763592 178.687835 
L 399.972298 179.108963 
L 403.947187 179.28828 
L 407.922076 179.246961 
L 411.896965 178.986888 
L 416.10567 178.486376 
L 420.665102 177.712313 
L 425.91137 176.582865 
L 433.042788 174.795058 
L 444.25139 171.983305 
L 449.512273 170.908738 
L 454.071704 170.20145 
L 458.28041 169.772372 
L 462.255298 169.585039 
L 466.230187 169.618217 
L 470.205076 169.870398 
L 474.413782 170.363221 
L 478.973213 171.130172 
L 484.117187 172.229673 
L 491.131697 173.98039 
L 502.939454 176.939899 
L 508.200337 178.00369 
L 512.759768 178.698913 
L 516.968474 179.115258 
L 520.943363 179.28976 
L 524.918251 179.243559 
L 529.010049 178.967758 
L 533.218755 178.456533 
L 537.763572 177.675445 
L 543.024454 176.534751 
L 550.258168 174.715011 
L 561.130658 171.989906 
L 566.39154 170.914004 
L 570.950971 170.205216 
L 575.159677 169.774551 
L 579.236861 169.583649 
L 583.211749 169.620897 
L 587.186638 169.877027 
L 591.395344 170.373698 
L 595.954775 171.144211 
L 601.098749 172.246714 
L 608.113259 173.99941 
L 619.804108 176.930068 
L 625.06499 177.995892 
L 629.624422 178.693386 
L 633.833127 179.112124 
L 637.808016 179.289033 
L 641.782905 179.245273 
L 645.757794 178.982835 
L 649.9665 178.480021 
L 654.525931 177.703835 
L 659.669905 176.596565 
L 666.801323 174.810295 
L 668.237251 174.435307 
L 668.237251 174.435307 
" clip-path="url(#pcaf0131ae6)" style="fill: none; stroke: #0c5da5; stroke-width: 2.4; stroke-linecap: square"/>
   </g>
   <g id="line2d_28">
    <path d="M 83.69478 277.948035 
L 83.713485 278.066771 
L 86.182593 300.246753 
L 87.93622 313.80533 
L 89.572939 324.686926 
L 91.092749 333.307955 
L 92.61256 340.636036 
L 94.13237 346.842059 
L 95.652181 352.097177 
L 97.171991 356.552366 
L 98.691801 360.331892 
L 100.211612 363.534328 
L 101.731422 366.236394 
L 103.251233 368.49723 
L 104.771043 370.362138 
L 106.290854 371.865571 
L 107.693756 372.954985 
L 109.096657 373.773586 
L 110.499559 374.332062 
L 111.902461 374.637684 
L 113.188455 374.698994 
L 114.474448 374.551696 
L 115.760442 374.194275 
L 117.163344 373.560202 
L 118.566246 372.663355 
L 119.969147 371.491757 
L 121.372049 370.02879 
L 122.774951 368.253058 
L 124.177853 366.136212 
L 125.580755 363.64195 
L 127.100566 360.459819 
L 128.503468 357.01555 
L 129.906369 353.007002 
L 131.309271 348.33994 
L 132.712173 342.900571 
L 134.115075 336.558258 
L 135.517977 329.175738 
L 136.920879 320.629822 
L 138.44069 309.967599 
L 140.077408 296.846344 
L 141.947944 279.936006 
L 144.169206 257.692728 
L 147.208827 224.798054 
L 153.521885 155.988265 
L 155.860055 133.173195 
L 157.8475 115.833459 
L 159.601127 102.372881 
L 161.237846 91.493548 
L 162.757656 82.896676 
L 164.160558 76.255468 
L 165.446552 71.248541 
L 166.615637 67.578613 
L 167.667813 64.98038 
L 168.603081 63.221946 
L 169.421441 62.103197 
L 170.122892 61.453285 
L 170.824342 61.086908 
L 171.408885 60.997491 
L 171.993427 61.104153 
L 172.694878 61.491249 
L 173.396329 62.161934 
L 174.214689 63.305021 
L 175.033048 64.839934 
L 175.968316 67.079703 
L 177.020493 70.227806 
L 178.189578 74.519466 
L 179.358663 79.660567 
L 180.644656 86.309673 
L 182.047558 94.752875 
L 183.567368 105.284324 
L 185.204087 118.173403 
L 187.074623 134.713245 
L 189.281271 156.340801 
L 192.087075 186.230516 
L 200.036852 272.352886 
L 202.141205 292.113094 
L 204.011741 307.607774 
L 205.64846 319.362496 
L 207.168271 328.753025 
L 208.688081 336.769936 
L 210.207891 343.569074 
L 211.727702 349.325089 
L 213.247512 354.201567 
L 214.767323 358.337632 
L 216.287133 361.845561 
L 217.806944 364.813516 
L 219.326754 367.309763 
L 220.846564 369.386771 
L 222.366375 371.084618 
L 223.871572 372.422224 
L 225.274474 373.380312 
L 226.677376 374.073124 
L 228.080278 374.509761 
L 229.366271 374.689741 
L 230.652264 374.661019 
L 231.938258 374.423305 
L 233.224251 373.974108 
L 234.627153 373.237197 
L 236.030055 372.233256 
L 237.432957 370.948637 
L 238.835859 369.364718 
L 240.238761 367.457748 
L 241.758571 364.990731 
L 243.278382 362.056138 
L 244.798192 358.586981 
L 246.201094 354.835765 
L 247.603996 350.469655 
L 249.006898 345.383384 
L 250.4098 339.45296 
L 251.812702 332.542124 
L 253.215604 324.518301 
L 254.735414 314.45206 
L 256.372133 301.96097 
L 258.125761 286.765943 
L 260.230114 266.414836 
L 262.919009 237.993239 
L 271.570237 144.576163 
L 273.791499 123.987187 
L 275.662035 108.652156 
L 277.298754 96.91974 
L 278.818564 87.51106 
L 280.221466 80.119675 
L 281.507459 74.433246 
L 282.676544 70.156288 
L 283.845629 66.714456 
L 284.897806 64.317819 
L 285.833074 62.735945 
L 286.651433 61.770038 
L 287.352884 61.250239 
L 288.054335 61.013462 
L 288.638878 61.031887 
L 289.22342 61.246447 
L 289.924871 61.763361 
L 290.626322 62.564528 
L 291.444681 63.861062 
L 292.379949 65.824921 
L 293.315217 68.309953 
L 294.367394 71.738789 
L 295.536479 76.347158 
L 296.822472 82.403399 
L 298.225374 90.20037 
L 299.745185 100.043801 
L 301.381904 112.227746 
L 303.135531 126.993889 
L 305.122975 145.630245 
L 307.614588 171.26167 
L 311.355659 212.425656 
L 315.798182 260.734723 
L 318.136352 283.811686 
L 320.123797 301.270573 
L 321.877424 314.691324 
L 323.397234 324.731705 
L 324.917045 333.34615 
L 326.436855 340.668415 
L 327.956666 346.869468 
L 329.476476 352.120399 
L 330.996286 356.572064 
L 332.516097 360.3486 
L 334.035907 363.548462 
L 335.555718 366.248278 
L 337.075528 368.507121 
L 338.595339 370.370413 
L 340.115149 371.872097 
L 341.518051 372.959941 
L 342.920953 373.77712 
L 344.323855 374.334305 
L 345.726757 374.638622 
L 347.01275 374.698747 
L 348.298744 374.550261 
L 349.584737 374.191638 
L 350.987639 373.556221 
L 352.390541 372.657888 
L 353.793443 371.48477 
L 355.196345 370.020584 
L 356.599247 368.242944 
L 358.002149 366.124231 
L 359.521959 363.401468 
L 361.04177 360.175558 
L 362.444671 356.684641 
L 363.847573 352.621874 
L 365.250475 347.891304 
L 366.653377 342.377455 
L 368.056279 335.94855 
L 369.459181 328.467578 
L 370.862083 319.813928 
L 372.381893 309.030655 
L 374.018612 295.783836 
L 375.889148 278.748432 
L 378.11041 256.393588 
L 381.266939 222.121645 
L 387.112364 158.314095 
L 389.567442 134.188639 
L 391.554887 116.734141 
L 393.308514 103.160463 
L 394.945233 92.169865 
L 396.465043 83.467786 
L 397.867945 76.729775 
L 399.153939 71.635395 
L 400.323024 67.887433 
L 401.3752 65.220237 
L 402.310468 63.40143 
L 403.128827 62.230452 
L 403.947187 61.448009 
L 404.648638 61.08458 
L 405.23318 60.997614 
L 405.817723 61.106727 
L 406.519174 61.496772 
L 407.220625 62.170418 
L 408.038984 63.316994 
L 408.857344 64.855416 
L 409.792612 67.099281 
L 410.844788 70.25202 
L 412.013873 74.549294 
L 413.182958 79.695394 
L 414.468951 86.349939 
L 415.871853 94.800565 
L 417.391664 105.338297 
L 419.145291 119.214613 
L 421.015827 135.874089 
L 423.237088 157.765926 
L 426.145187 188.881425 
L 433.510422 268.929678 
L 435.731684 290.096666 
L 437.60222 305.84591 
L 439.238939 317.838396 
L 440.758749 327.443778 
L 442.27856 335.656517 
L 443.812983 342.687645 
L 445.303567 348.474537 
L 446.823377 353.480573 
L 448.343188 357.725939 
L 449.862998 361.327067 
L 451.382808 364.375673 
L 452.902619 366.942894 
L 454.422429 369.083457 
L 455.94224 370.839212 
L 457.345142 372.145921 
L 458.748044 373.17074 
L 460.150946 373.927493 
L 461.553848 374.426202 
L 462.956749 374.673208 
L 464.242743 374.681207 
L 465.528736 374.480411 
L 466.81473 374.068752 
L 468.217632 373.373955 
L 469.620534 372.413941 
L 471.023436 371.175749 
L 472.426337 369.641598 
L 473.829239 367.788723 
L 475.232141 365.587465 
L 476.751952 362.763318 
L 478.271762 359.421752 
L 479.674664 355.807258 
L 481.077566 351.600639 
L 482.480468 346.701451 
L 483.88337 340.989979 
L 485.286272 334.331907 
L 486.689174 326.591687 
L 488.208984 316.85557 
L 489.728795 305.645407 
L 491.482422 290.924643 
L 493.469866 272.196982 
L 495.924945 246.777619 
L 500.016742 201.608347 
L 503.991631 158.615497 
L 506.446709 134.460348 
L 508.434154 116.9754 
L 510.187781 103.371719 
L 511.8245 92.351492 
L 513.34431 83.621365 
L 514.747212 76.857529 
L 516.033206 71.739804 
L 517.202291 67.971009 
L 518.254467 65.285402 
L 519.189735 63.45048 
L 520.008095 62.265563 
L 520.826454 61.469297 
L 521.527905 61.094077 
L 522.112448 60.997306 
L 522.69699 61.096614 
L 523.398441 61.474867 
L 524.099892 62.136668 
L 524.918251 63.269315 
L 525.736611 64.793676 
L 526.671879 67.02123 
L 527.724055 70.155365 
L 528.89314 74.431225 
L 530.062225 79.556285 
L 531.348219 86.187029 
L 532.751121 94.611365 
L 534.270931 105.122333 
L 536.009945 118.845895 
L 537.880481 135.463543 
L 540.101742 157.315157 
L 542.907546 187.273736 
L 550.608893 270.829506 
L 552.713246 290.750257 
L 554.583782 306.417798 
L 556.220501 318.333634 
L 557.740311 327.86949 
L 559.260122 336.018678 
L 560.779932 342.932855 
L 562.299742 348.786423 
L 563.819553 353.744935 
L 565.339363 357.950222 
L 566.859174 361.517198 
L 568.378984 364.536274 
L 569.898795 367.077531 
L 571.418605 369.194864 
L 572.938415 370.929638 
L 574.458226 372.312651 
L 575.861128 373.297511 
L 577.26403 374.016105 
L 578.666932 374.477792 
L 580.05522 374.687512 
L 581.341213 374.664714 
L 582.627207 374.43296 
L 583.9132 373.989826 
L 585.316102 373.259724 
L 586.719004 372.262891 
L 588.121906 370.985799 
L 589.524808 369.409949 
L 590.92771 367.51176 
L 592.44752 365.055286 
L 593.967331 362.132648 
L 595.487141 358.67727 
L 596.890043 354.940838 
L 598.292945 350.59199 
L 599.695847 345.525971 
L 601.098749 339.619229 
L 602.501651 332.735671 
L 603.904553 324.742329 
L 605.424363 314.711358 
L 607.061082 302.258188 
L 608.81471 287.100188 
L 610.919063 266.784798 
L 613.607958 238.391919 
L 622.376095 143.791286 
L 624.480448 124.305917 
L 626.350984 108.932466 
L 627.987703 97.16371 
L 629.507513 87.720169 
L 630.910415 80.296392 
L 632.196409 74.580523 
L 633.365493 70.277221 
L 634.534578 66.809529 
L 635.586755 64.390035 
L 636.522023 62.788137 
L 637.340382 61.804886 
L 638.041833 61.270317 
L 638.743284 61.018821 
L 639.327827 61.024991 
L 639.912369 61.227285 
L 640.61382 61.729435 
L 641.315271 62.515755 
L 642.133631 63.794823 
L 643.068898 65.738634 
L 644.004166 68.203026 
L 645.056343 71.608102 
L 646.225428 76.19027 
L 647.511421 82.217024 
L 648.914323 89.981568 
L 650.434134 99.790342 
L 652.070853 111.938408 
L 653.82448 126.669316 
L 655.811924 145.271478 
L 658.267003 170.481932 
L 662.008075 211.61063 
L 666.450597 259.977945 
L 668.237251 277.886145 
L 668.237251 277.886145 
" clip-path="url(#pcaf0131ae6)" style="fill: none; stroke: #ff6b35; stroke-width: 2; stroke-linecap: square"/>
   </g>
   <g id="line2d_29">
    <path d="M 83.69478 277.948035 
L 83.713485 278.066771 
L 86.182593 300.246753 
L 87.93622 313.80533 
L 89.572939 324.686926 
L 91.092749 333.307955 
L 92.61256 340.636036 
L 94.13237 346.842059 
L 95.652181 352.097177 
L 97.171991 356.552366 
L 98.691801 360.331892 
L 100.211612 363.534328 
L 101.731422 366.236394 
L 103.251233 368.49723 
L 104.771043 370.362138 
L 106.290854 371.865571 
L 107.693756 372.954985 
L 109.096657 373.773586 
L 110.499559 374.332062 
L 111.902461 374.637684 
L 113.188455 374.698994 
L 114.474448 374.551696 
L 115.760442 374.194275 
L 117.163344 373.560202 
L 118.566246 372.663355 
L 119.969147 371.491757 
L 121.372049 370.02879 
L 122.774951 368.253058 
L 124.177853 366.136212 
L 125.580755 363.64195 
L 127.100566 360.459819 
L 128.503468 357.01555 
L 129.906369 353.007002 
L 131.309271 348.33994 
L 132.712173 342.900571 
L 134.115075 336.558258 
L 135.517977 329.175738 
L 136.920879 320.629822 
L 138.44069 309.967599 
L 140.077408 296.846344 
L 141.947944 279.936006 
L 144.169206 257.692728 
L 147.208827 224.798054 
L 153.521885 155.988265 
L 155.860055 133.173195 
L 157.8475 115.833459 
L 159.601127 102.372881 
L 161.237846 91.493548 
L 162.757656 82.896676 
L 164.160558 76.255468 
L 165.446552 71.248541 
L 166.615637 67.578613 
L 167.667813 64.98038 
L 168.603081 63.221946 
L 169.421441 62.103197 
L 170.122892 61.453285 
L 170.824342 61.086908 
L 171.408885 60.997491 
L 171.993427 61.104153 
L 172.694878 61.491249 
L 173.396329 62.161934 
L 174.214689 63.305021 
L 175.033048 64.839934 
L 175.968316 67.079703 
L 177.020493 70.227806 
L 178.189578 74.519466 
L 179.358663 79.660567 
L 180.644656 86.309673 
L 182.047558 94.752875 
L 183.567368 105.284324 
L 185.204087 118.173403 
L 187.074623 134.713245 
L 189.281271 156.340801 
L 192.087075 186.230516 
L 200.036852 272.352886 
L 202.141205 292.113094 
L 204.011741 307.607774 
L 205.64846 319.362496 
L 207.168271 328.753025 
L 208.688081 336.769936 
L 210.207891 343.569074 
L 211.727702 349.325089 
L 213.247512 354.201567 
L 214.767323 358.337632 
L 216.287133 361.845561 
L 217.806944 364.813516 
L 219.326754 367.309763 
L 220.846564 369.386771 
L 222.366375 371.084618 
L 223.871572 372.422224 
L 225.274474 373.380312 
L 226.677376 374.073124 
L 228.080278 374.509761 
L 229.366271 374.689741 
L 230.652264 374.661019 
L 231.938258 374.423305 
L 233.224251 373.974108 
L 234.627153 373.237197 
L 236.030055 372.233256 
L 237.432957 370.948637 
L 238.835859 369.364718 
L 240.238761 367.457748 
L 241.758571 364.990731 
L 243.278382 362.056138 
L 244.798192 358.586981 
L 246.201094 354.835765 
L 247.603996 350.469655 
L 249.006898 345.383384 
L 250.4098 339.45296 
L 251.812702 332.542124 
L 253.215604 324.518301 
L 254.735414 314.45206 
L 256.372133 301.96097 
L 258.125761 286.765943 
L 260.230114 266.414836 
L 262.919009 237.993239 
L 271.570237 144.576163 
L 273.791499 123.987187 
L 275.662035 108.652156 
L 277.298754 96.91974 
L 278.818564 87.51106 
L 280.221466 80.119675 
L 281.507459 74.433246 
L 282.676544 70.156288 
L 283.845629 66.714456 
L 284.897806 64.317819 
L 285.833074 62.735945 
L 286.651433 61.770038 
L 287.352884 61.250239 
L 288.054335 61.013462 
L 288.638878 61.031887 
L 289.22342 61.246447 
L 289.924871 61.763361 
L 290.626322 62.564528 
L 291.444681 63.861062 
L 292.379949 65.824921 
L 293.315217 68.309953 
L 294.367394 71.738789 
L 295.536479 76.347158 
L 296.822472 82.403399 
L 298.225374 90.20037 
L 299.745185 100.043801 
L 301.381904 112.227746 
L 303.135531 126.993889 
L 305.122975 145.630245 
L 307.614588 171.26167 
L 311.355659 212.425656 
L 315.798182 260.734723 
L 318.136352 283.811686 
L 320.123797 301.270573 
L 321.877424 314.691324 
L 323.397234 324.731705 
L 324.917045 333.34615 
L 326.436855 340.668415 
L 327.956666 346.869468 
L 329.476476 352.120399 
L 330.996286 356.572064 
L 332.516097 360.3486 
L 334.035907 363.548462 
L 335.555718 366.248278 
L 337.075528 368.507121 
L 338.595339 370.370413 
L 340.115149 371.872097 
L 341.518051 372.959941 
L 342.920953 373.77712 
L 344.323855 374.334305 
L 345.726757 374.638622 
L 347.01275 374.698747 
L 348.298744 374.550261 
L 349.584737 374.191638 
L 350.987639 373.556221 
L 352.390541 372.657888 
L 353.793443 371.48477 
L 355.196345 370.020584 
L 356.599247 368.242944 
L 358.002149 366.124231 
L 359.521959 363.401468 
L 361.04177 360.175558 
L 362.444671 356.684641 
L 363.847573 352.621874 
L 365.250475 347.891304 
L 366.653377 342.377455 
L 368.056279 335.94855 
L 369.459181 328.467578 
L 370.862083 319.813928 
L 372.381893 309.030655 
L 374.018612 295.783836 
L 375.889148 278.748432 
L 378.11041 256.393588 
L 381.266939 222.121645 
L 387.112364 158.314095 
L 389.567442 134.188639 
L 391.554887 116.734141 
L 393.308514 103.160463 
L 394.945233 92.169865 
L 396.465043 83.467786 
L 397.867945 76.729775 
L 399.153939 71.635395 
L 400.323024 67.887433 
L 401.3752 65.220237 
L 402.310468 63.40143 
L 403.128827 62.230452 
L 403.947187 61.448009 
L 404.648638 61.08458 
L 405.23318 60.997614 
L 405.817723 61.106727 
L 406.519174 61.496772 
L 407.220625 62.170418 
L 408.038984 63.316994 
L 408.857344 64.855416 
L 409.792612 67.099281 
L 410.844788 70.25202 
L 412.013873 74.549294 
L 413.182958 79.695394 
L 414.468951 86.349939 
L 415.871853 94.800565 
L 417.391664 105.338297 
L 419.145291 119.214613 
L 421.015827 135.874089 
L 423.237088 157.765926 
L 426.145187 188.881425 
L 433.510422 268.929678 
L 435.731684 290.096666 
L 437.60222 305.84591 
L 439.238939 317.838396 
L 440.758749 327.443778 
L 442.27856 335.656517 
L 443.812983 342.687645 
L 445.303567 348.474537 
L 446.823377 353.480573 
L 448.343188 357.725939 
L 449.862998 361.327067 
L 451.382808 364.375673 
L 452.902619 366.942894 
L 454.422429 369.083457 
L 455.94224 370.839212 
L 457.345142 372.145921 
L 458.748044 373.17074 
L 460.150946 373.927493 
L 461.553848 374.426202 
L 462.956749 374.673208 
L 464.242743 374.681207 
L 465.528736 374.480411 
L 466.81473 374.068752 
L 468.217632 373.373955 
L 469.620534 372.413941 
L 471.023436 371.175749 
L 472.426337 369.641598 
L 473.829239 367.788723 
L 475.232141 365.587465 
L 476.751952 362.763318 
L 478.271762 359.421752 
L 479.674664 355.807258 
L 481.077566 351.600639 
L 482.480468 346.701451 
L 483.88337 340.989979 
L 485.286272 334.331907 
L 486.689174 326.591687 
L 488.208984 316.85557 
L 489.728795 305.645407 
L 491.482422 290.924643 
L 493.469866 272.196982 
L 495.924945 246.777619 
L 500.016742 201.608347 
L 503.991631 158.615497 
L 506.446709 134.460348 
L 508.434154 116.9754 
L 510.187781 103.371719 
L 511.8245 92.351492 
L 513.34431 83.621365 
L 514.747212 76.857529 
L 516.033206 71.739804 
L 517.202291 67.971009 
L 518.254467 65.285402 
L 519.189735 63.45048 
L 520.008095 62.265563 
L 520.826454 61.469297 
L 521.527905 61.094077 
L 522.112448 60.997306 
L 522.69699 61.096614 
L 523.398441 61.474867 
L 524.099892 62.136668 
L 524.918251 63.269315 
L 525.736611 64.793676 
L 526.671879 67.02123 
L 527.724055 70.155365 
L 528.89314 74.431225 
L 530.062225 79.556285 
L 531.348219 86.187029 
L 532.751121 94.611365 
L 534.270931 105.122333 
L 536.009945 118.845895 
L 537.880481 135.463543 
L 540.101742 157.315157 
L 542.907546 187.273736 
L 550.608893 270.829506 
L 552.713246 290.750257 
L 554.583782 306.417798 
L 556.220501 318.333634 
L 557.740311 327.86949 
L 559.260122 336.018678 
L 560.779932 342.932855 
L 562.299742 348.786423 
L 563.819553 353.744935 
L 565.339363 357.950222 
L 566.859174 361.517198 
L 568.378984 364.536274 
L 569.898795 367.077531 
L 571.418605 369.194864 
L 572.938415 370.929638 
L 574.458226 372.312651 
L 575.861128 373.297511 
L 577.26403 374.016105 
L 578.666932 374.477792 
L 580.05522 374.687512 
L 581.341213 374.664714 
L 582.627207 374.43296 
L 583.9132 373.989826 
L 585.316102 373.259724 
L 586.719004 372.262891 
L 588.121906 370.985799 
L 589.524808 369.409949 
L 590.92771 367.51176 
L 592.44752 365.055286 
L 593.967331 362.132648 
L 595.487141 358.67727 
L 596.890043 354.940838 
L 598.292945 350.59199 
L 599.695847 345.525971 
L 601.098749 339.619229 
L 602.501651 332.735671 
L 603.904553 324.742329 
L 605.424363 314.711358 
L 607.061082 302.258188 
L 608.81471 287.100188 
L 610.919063 266.784798 
L 613.607958 238.391919 
L 622.376095 143.791286 
L 624.480448 124.305917 
L 626.350984 108.932466 
L 627.987703 97.16371 
L 629.507513 87.720169 
L 630.910415 80.296392 
L 632.196409 74.580523 
L 633.365493 70.277221 
L 634.534578 66.809529 
L 635.586755 64.390035 
L 636.522023 62.788137 
L 637.340382 61.804886 
L 638.041833 61.270317 
L 638.743284 61.018821 
L 639.327827 61.024991 
L 639.912369 61.227285 
L 640.61382 61.729435 
L 641.315271 62.515755 
L 642.133631 63.794823 
L 643.068898 65.738634 
L 644.004166 68.203026 
L 645.056343 71.608102 
L 646.225428 76.19027 
L 647.511421 82.217024 
L 648.914323 89.981568 
L 650.434134 99.790342 
L 652.070853 111.938408 
L 653.82448 126.669316 
L 655.811924 145.271478 
L 658.267003 170.481932 
L 662.008075 211.61063 
L 666.450597 259.977945 
L 668.237251 277.886145 
L 668.237251 277.886145 
" clip-path="url(#pcaf0131ae6)" style="fill: none; stroke-dasharray: 7.4,3.2; stroke-dashoffset: 0; stroke: #2f855a; stroke-width: 2"/>
   </g>
   <g id="line2d_30">
    <path d="M 83.69478 277.948035 
L 83.713485 278.066771 
L 86.182593 300.246753 
L 87.93622 313.80533 
L 89.572939 324.686926 
L 91.092749 333.307955 
L 92.61256 340.636036 
L 94.13237 346.842059 
L 95.652181 352.097177 
L 97.171991 356.552366 
L 98.691801 360.331892 
L 100.211612 363.534328 
L 101.731422 366.236394 
L 103.251233 368.49723 
L 104.771043 370.362138 
L 106.290854 371.865571 
L 107.693756 372.954985 
L 109.096657 373.773586 
L 110.499559 374.332062 
L 111.902461 374.637684 
L 113.188455 374.698994 
L 114.474448 374.551696 
L 115.760442 374.194275 
L 117.163344 373.560202 
L 118.566246 372.663355 
L 119.969147 371.491757 
L 121.372049 370.02879 
L 122.774951 368.253058 
L 124.177853 366.136212 
L 125.580755 363.64195 
L 127.100566 360.459819 
L 128.503468 357.01555 
L 129.906369 353.007002 
L 131.309271 348.33994 
L 132.712173 342.900571 
L 134.115075 336.558258 
L 135.517977 329.175738 
L 136.920879 320.629822 
L 138.44069 309.967599 
L 140.077408 296.846344 
L 141.947944 279.936006 
L 144.169206 257.692728 
L 147.208827 224.798054 
L 153.521885 155.988265 
L 155.860055 133.173195 
L 157.8475 115.833459 
L 159.601127 102.372881 
L 161.237846 91.493548 
L 162.757656 82.896676 
L 164.160558 76.255468 
L 165.446552 71.248541 
L 166.615637 67.578613 
L 167.667813 64.98038 
L 168.603081 63.221946 
L 169.421441 62.103197 
L 170.122892 61.453285 
L 170.824342 61.086908 
L 171.408885 60.997491 
L 171.993427 61.104153 
L 172.694878 61.491249 
L 173.396329 62.161934 
L 174.214689 63.305021 
L 175.033048 64.839934 
L 175.968316 67.079703 
L 177.020493 70.227806 
L 178.189578 74.519466 
L 179.358663 79.660567 
L 180.644656 86.309673 
L 182.047558 94.752875 
L 183.567368 105.284324 
L 185.204087 118.173403 
L 187.074623 134.713245 
L 189.281271 156.340801 
L 192.087075 186.230516 
L 200.036852 272.352886 
L 202.141205 292.113094 
L 204.011741 307.607774 
L 205.64846 319.362496 
L 207.168271 328.753025 
L 208.688081 336.769936 
L 210.207891 343.569074 
L 211.727702 349.325089 
L 213.247512 354.201567 
L 214.767323 358.337632 
L 216.287133 361.845561 
L 217.806944 364.813516 
L 219.326754 367.309763 
L 220.846564 369.386771 
L 222.366375 371.084618 
L 223.871572 372.422224 
L 225.274474 373.380312 
L 226.677376 374.073124 
L 228.080278 374.509761 
L 229.366271 374.689741 
L 230.652264 374.661019 
L 231.938258 374.423305 
L 233.224251 373.974108 
L 234.627153 373.237197 
L 236.030055 372.233256 
L 237.432957 370.948637 
L 238.835859 369.364718 
L 240.238761 367.457748 
L 241.758571 364.990731 
L 243.278382 362.056138 
L 244.798192 358.586981 
L 246.201094 354.835765 
L 247.603996 350.469655 
L 249.006898 345.383384 
L 250.4098 339.45296 
L 251.812702 332.542124 
L 253.215604 324.518301 
L 254.735414 314.45206 
L 256.372133 301.96097 
L 258.125761 286.765943 
L 260.230114 266.414836 
L 262.919009 237.993239 
L 271.570237 144.576163 
L 273.791499 123.987187 
L 275.662035 108.652156 
L 277.298754 96.91974 
L 278.818564 87.51106 
L 280.221466 80.119675 
L 281.507459 74.433246 
L 282.676544 70.156288 
L 283.845629 66.714456 
L 284.897806 64.317819 
L 285.833074 62.735945 
L 286.651433 61.770038 
L 287.352884 61.250239 
L 288.054335 61.013462 
L 288.638878 61.031887 
L 289.22342 61.246447 
L 289.924871 61.763361 
L 290.626322 62.564528 
L 291.444681 63.861062 
L 292.379949 65.824921 
L 293.315217 68.309953 
L 294.367394 71.738789 
L 295.536479 76.347158 
L 296.822472 82.403399 
L 298.225374 90.20037 
L 299.745185 100.043801 
L 301.381904 112.227746 
L 303.135531 126.993889 
L 305.122975 145.630245 
L 307.614588 171.26167 
L 311.355659 212.425656 
L 315.798182 260.734723 
L 318.136352 283.811686 
L 320.123797 301.270573 
L 321.877424 314.691324 
L 323.397234 324.731705 
L 324.917045 333.34615 
L 326.436855 340.668415 
L 327.956666 346.869468 
L 329.476476 352.120399 
L 330.996286 356.572064 
L 332.516097 360.3486 
L 334.035907 363.548462 
L 335.555718 366.248278 
L 337.075528 368.507121 
L 338.595339 370.370413 
L 340.115149 371.872097 
L 341.518051 372.959941 
L 342.920953 373.77712 
L 344.323855 374.334305 
L 345.726757 374.638622 
L 347.01275 374.698747 
L 348.298744 374.550261 
L 349.584737 374.191638 
L 350.987639 373.556221 
L 352.390541 372.657888 
L 353.793443 371.48477 
L 355.196345 370.020584 
L 356.599247 368.242944 
L 358.002149 366.124231 
L 359.521959 363.401468 
L 361.04177 360.175558 
L 362.444671 356.684641 
L 363.847573 352.621874 
L 365.250475 347.891304 
L 366.653377 342.377455 
L 368.056279 335.94855 
L 369.459181 328.467578 
L 370.862083 319.813928 
L 372.381893 309.030655 
L 374.018612 295.783836 
L 375.889148 278.748432 
L 378.11041 256.393588 
L 381.266939 222.121645 
L 387.112364 158.314095 
L 389.567442 134.188639 
L 391.554887 116.734141 
L 393.308514 103.160463 
L 394.945233 92.169865 
L 396.465043 83.467786 
L 397.867945 76.729775 
L 399.153939 71.635395 
L 400.323024 67.887433 
L 401.3752 65.220237 
L 402.310468 63.40143 
L 403.128827 62.230452 
L 403.947187 61.448009 
L 404.648638 61.08458 
L 405.23318 60.997614 
L 405.817723 61.106727 
L 406.519174 61.496772 
L 407.220625 62.170418 
L 408.038984 63.316994 
L 408.857344 64.855416 
L 409.792612 67.099281 
L 410.844788 70.25202 
L 412.013873 74.549294 
L 413.182958 79.695394 
L 414.468951 86.349939 
L 415.871853 94.800565 
L 417.391664 105.338297 
L 419.145291 119.214613 
L 421.015827 135.874089 
L 423.237088 157.765926 
L 426.145187 188.881425 
L 433.510422 268.929678 
L 435.731684 290.096666 
L 437.60222 305.84591 
L 439.238939 317.838396 
L 440.758749 327.443778 
L 442.27856 335.656517 
L 443.812983 342.687645 
L 445.303567 348.474537 
L 446.823377 353.480573 
L 448.343188 357.725939 
L 449.862998 361.327067 
L 451.382808 364.375673 
L 452.902619 366.942894 
L 454.422429 369.083457 
L 455.94224 370.839212 
L 457.345142 372.145921 
L 458.748044 373.17074 
L 460.150946 373.927493 
L 461.553848 374.426202 
L 462.956749 374.673208 
L 464.242743 374.681207 
L 465.528736 374.480411 
L 466.81473 374.068752 
L 468.217632 373.373955 
L 469.620534 372.413941 
L 471.023436 371.175749 
L 472.426337 369.641598 
L 473.829239 367.788723 
L 475.232141 365.587465 
L 476.751952 362.763318 
L 478.271762 359.421752 
L 479.674664 355.807258 
L 481.077566 351.600639 
L 482.480468 346.701451 
L 483.88337 340.989979 
L 485.286272 334.331907 
L 486.689174 326.591687 
L 488.208984 316.85557 
L 489.728795 305.645407 
L 491.482422 290.924643 
L 493.469866 272.196982 
L 495.924945 246.777619 
L 500.016742 201.608347 
L 503.991631 158.615497 
L 506.446709 134.460348 
L 508.434154 116.9754 
L 510.187781 103.371719 
L 511.8245 92.351492 
L 513.34431 83.621365 
L 514.747212 76.857529 
L 516.033206 71.739804 
L 517.202291 67.971009 
L 518.254467 65.285402 
L 519.189735 63.45048 
L 520.008095 62.265563 
L 520.826454 61.469297 
L 521.527905 61.094077 
L 522.112448 60.997306 
L 522.69699 61.096614 
L 523.398441 61.474867 
L 524.099892 62.136668 
L 524.918251 63.269315 
L 525.736611 64.793676 
L 526.671879 67.02123 
L 527.724055 70.155365 
L 528.89314 74.431225 
L 530.062225 79.556285 
L 531.348219 86.187029 
L 532.751121 94.611365 
L 534.270931 105.122333 
L 536.009945 118.845895 
L 537.880481 135.463543 
L 540.101742 157.315157 
L 542.907546 187.273736 
L 550.608893 270.829506 
L 552.713246 290.750257 
L 554.583782 306.417798 
L 556.220501 318.333634 
L 557.740311 327.86949 
L 559.260122 336.018678 
L 560.779932 342.932855 
L 562.299742 348.786423 
L 563.819553 353.744935 
L 565.339363 357.950222 
L 566.859174 361.517198 
L 568.378984 364.536274 
L 569.898795 367.077531 
L 571.418605 369.194864 
L 572.938415 370.929638 
L 574.458226 372.312651 
L 575.861128 373.297511 
L 577.26403 374.016105 
L 578.666932 374.477792 
L 580.05522 374.687512 
L 581.341213 374.664714 
L 582.627207 374.43296 
L 583.9132 373.989826 
L 585.316102 373.259724 
L 586.719004 372.262891 
L 588.121906 370.985799 
L 589.524808 369.409949 
L 590.92771 367.51176 
L 592.44752 365.055286 
L 593.967331 362.132648 
L 595.487141 358.67727 
L 596.890043 354.940838 
L 598.292945 350.59199 
L 599.695847 345.525971 
L 601.098749 339.619229 
L 602.501651 332.735671 
L 603.904553 324.742329 
L 605.424363 314.711358 
L 607.061082 302.258188 
L 608.81471 287.100188 
L 610.919063 266.784798 
L 613.607958 238.391919 
L 622.376095 143.791286 
L 624.480448 124.305917 
L 626.350984 108.932466 
L 627.987703 97.16371 
L 629.507513 87.720169 
L 630.910415 80.296392 
L 632.196409 74.580523 
L 633.365493 70.277221 
L 634.534578 66.809529 
L 635.586755 64.390035 
L 636.522023 62.788137 
L 637.340382 61.804886 
L 638.041833 61.270317 
L 638.743284 61.018821 
L 639.327827 61.024991 
L 639.912369 61.227285 
L 640.61382 61.729435 
L 641.315271 62.515755 
L 642.133631 63.794823 
L 643.068898 65.738634 
L 644.004166 68.203026 
L 645.056343 71.608102 
L 646.225428 76.19027 
L 647.511421 82.217024 
L 648.914323 89.981568 
L 650.434134 99.790342 
L 652.070853 111.938408 
L 653.82448 126.669316 
L 655.811924 145.271478 
L 658.267003 170.481932 
L 662.008075 211.61063 
L 666.450597 259.977945 
L 668.237251 277.886145 
L 668.237251 277.886145 
" clip-path="url(#pcaf0131ae6)" style="fill: none; stroke-dasharray: 12.8,3.2,2,3.2; stroke-dashoffset: 0; stroke: #805ad5; stroke-width: 2"/>
   </g>
   <g id="line2d_31">
    <path d="M 83.69478 277.948035 
L 83.713485 278.066771 
L 86.182593 300.246753 
L 87.93622 313.80533 
L 89.572939 324.686926 
L 91.092749 333.307955 
L 92.61256 340.636036 
L 94.13237 346.842059 
L 95.652181 352.097177 
L 97.171991 356.552366 
L 98.691801 360.331892 
L 100.211612 363.534328 
L 101.731422 366.236394 
L 103.251233 368.49723 
L 104.771043 370.362138 
L 106.290854 371.865571 
L 107.693756 372.954985 
L 109.096657 373.773586 
L 110.499559 374.332062 
L 111.902461 374.637684 
L 113.188455 374.698994 
L 114.474448 374.551696 
L 115.760442 374.194275 
L 117.163344 373.560202 
L 118.566246 372.663355 
L 119.969147 371.491757 
L 121.372049 370.02879 
L 122.774951 368.253058 
L 124.177853 366.136212 
L 125.580755 363.64195 
L 127.100566 360.459819 
L 128.503468 357.01555 
L 129.906369 353.007002 
L 131.309271 348.33994 
L 132.712173 342.900571 
L 134.115075 336.558258 
L 135.517977 329.175738 
L 136.920879 320.629822 
L 138.44069 309.967599 
L 140.077408 296.846344 
L 141.947944 279.936006 
L 144.169206 257.692728 
L 147.208827 224.798054 
L 153.521885 155.988265 
L 155.860055 133.173195 
L 157.8475 115.833459 
L 159.601127 102.372881 
L 161.237846 91.493548 
L 162.757656 82.896676 
L 164.160558 76.255468 
L 165.446552 71.248541 
L 166.615637 67.578613 
L 167.667813 64.98038 
L 168.603081 63.221946 
L 169.421441 62.103197 
L 170.122892 61.453285 
L 170.824342 61.086908 
L 171.408885 60.997491 
L 171.993427 61.104153 
L 172.694878 61.491249 
L 173.396329 62.161934 
L 174.214689 63.305021 
L 175.033048 64.839934 
L 175.968316 67.079703 
L 177.020493 70.227806 
L 178.189578 74.519466 
L 179.358663 79.660567 
L 180.644656 86.309673 
L 182.047558 94.752875 
L 183.567368 105.284324 
L 185.204087 118.173403 
L 187.074623 134.713245 
L 189.281271 156.340801 
L 192.087075 186.230516 
L 200.036852 272.352886 
L 202.141205 292.113094 
L 204.011741 307.607774 
L 205.64846 319.362496 
L 207.168271 328.753025 
L 208.688081 336.769936 
L 210.207891 343.569074 
L 211.727702 349.325089 
L 213.247512 354.201567 
L 214.767323 358.337632 
L 216.287133 361.845561 
L 217.806944 364.813516 
L 219.326754 367.309763 
L 220.846564 369.386771 
L 222.366375 371.084618 
L 223.871572 372.422224 
L 225.274474 373.380312 
L 226.677376 374.073124 
L 228.080278 374.509761 
L 229.366271 374.689741 
L 230.652264 374.661019 
L 231.938258 374.423305 
L 233.224251 373.974108 
L 234.627153 373.237197 
L 236.030055 372.233256 
L 237.432957 370.948637 
L 238.835859 369.364718 
L 240.238761 367.457748 
L 241.758571 364.990731 
L 243.278382 362.056138 
L 244.798192 358.586981 
L 246.201094 354.835765 
L 247.603996 350.469655 
L 249.006898 345.383384 
L 250.4098 339.45296 
L 251.812702 332.542124 
L 253.215604 324.518301 
L 254.735414 314.45206 
L 256.372133 301.96097 
L 258.125761 286.765943 
L 260.230114 266.414836 
L 262.919009 237.993239 
L 271.570237 144.576163 
L 273.791499 123.987187 
L 275.662035 108.652156 
L 277.298754 96.91974 
L 278.818564 87.51106 
L 280.221466 80.119675 
L 281.507459 74.433246 
L 282.676544 70.156288 
L 283.845629 66.714456 
L 284.897806 64.317819 
L 285.833074 62.735945 
L 286.651433 61.770038 
L 287.352884 61.250239 
L 288.054335 61.013462 
L 288.638878 61.031887 
L 289.22342 61.246447 
L 289.924871 61.763361 
L 290.626322 62.564528 
L 291.444681 63.861062 
L 292.379949 65.824921 
L 293.315217 68.309953 
L 294.367394 71.738789 
L 295.536479 76.347158 
L 296.822472 82.403399 
L 298.225374 90.20037 
L 299.745185 100.043801 
L 301.381904 112.227746 
L 303.135531 126.993889 
L 305.122975 145.630245 
L 307.614588 171.26167 
L 311.355659 212.425656 
L 315.798182 260.734723 
L 318.136352 283.811686 
L 320.123797 301.270573 
L 321.877424 314.691324 
L 323.397234 324.731705 
L 324.917045 333.34615 
L 326.436855 340.668415 
L 327.956666 346.869468 
L 329.476476 352.120399 
L 330.996286 356.572064 
L 332.516097 360.3486 
L 334.035907 363.548462 
L 335.555718 366.248278 
L 337.075528 368.507121 
L 338.595339 370.370413 
L 340.115149 371.872097 
L 341.518051 372.959941 
L 342.920953 373.77712 
L 344.323855 374.334305 
L 345.726757 374.638622 
L 347.01275 374.698747 
L 348.298744 374.550261 
L 349.584737 374.191638 
L 350.987639 373.556221 
L 352.390541 372.657888 
L 353.793443 371.48477 
L 355.196345 370.020584 
L 356.599247 368.242944 
L 358.002149 366.124231 
L 359.521959 363.401468 
L 361.04177 360.175558 
L 362.444671 356.684641 
L 363.847573 352.621874 
L 365.250475 347.891304 
L 366.653377 342.377455 
L 368.056279 335.94855 
L 369.459181 328.467578 
L 370.862083 319.813928 
L 372.381893 309.030655 
L 374.018612 295.783836 
L 375.889148 278.748432 
L 378.11041 256.393588 
L 381.266939 222.121645 
L 387.112364 158.314095 
L 389.567442 134.188639 
L 391.554887 116.734141 
L 393.308514 103.160463 
L 394.945233 92.169865 
L 396.465043 83.467786 
L 397.867945 76.729775 
L 399.153939 71.635395 
L 400.323024 67.887433 
L 401.3752 65.220237 
L 402.310468 63.40143 
L 403.128827 62.230452 
L 403.947187 61.448009 
L 404.648638 61.08458 
L 405.23318 60.997614 
L 405.817723 61.106727 
L 406.519174 61.496772 
L 407.220625 62.170418 
L 408.038984 63.316994 
L 408.857344 64.855416 
L 409.792612 67.099281 
L 410.844788 70.25202 
L 412.013873 74.549294 
L 413.182958 79.695394 
L 414.468951 86.349939 
L 415.871853 94.800565 
L 417.391664 105.338297 
L 419.145291 119.214613 
L 421.015827 135.874089 
L 423.237088 157.765926 
L 426.145187 188.881425 
L 433.510422 268.929678 
L 435.731684 290.096666 
L 437.60222 305.84591 
L 439.238939 317.838396 
L 440.758749 327.443778 
L 442.27856 335.656517 
L 443.812983 342.687645 
L 445.303567 348.474537 
L 446.823377 353.480573 
L 448.343188 357.725939 
L 449.862998 361.327067 
L 451.382808 364.375673 
L 452.902619 366.942894 
L 454.422429 369.083457 
L 455.94224 370.839212 
L 457.345142 372.145921 
L 458.748044 373.17074 
L 460.150946 373.927493 
L 461.553848 374.426202 
L 462.956749 374.673208 
L 464.242743 374.681207 
L 465.528736 374.480411 
L 466.81473 374.068752 
L 468.217632 373.373955 
L 469.620534 372.413941 
L 471.023436 371.175749 
L 472.426337 369.641598 
L 473.829239 367.788723 
L 475.232141 365.587465 
L 476.751952 362.763318 
L 478.271762 359.421752 
L 479.674664 355.807258 
L 481.077566 351.600639 
L 482.480468 346.701451 
L 483.88337 340.989979 
L 485.286272 334.331907 
L 486.689174 326.591687 
L 488.208984 316.85557 
L 489.728795 305.645407 
L 491.482422 290.924643 
L 493.469866 272.196982 
L 495.924945 246.777619 
L 500.016742 201.608347 
L 503.991631 158.615497 
L 506.446709 134.460348 
L 508.434154 116.9754 
L 510.187781 103.371719 
L 511.8245 92.351492 
L 513.34431 83.621365 
L 514.747212 76.857529 
L 516.033206 71.739804 
L 517.202291 67.971009 
L 518.254467 65.285402 
L 519.189735 63.45048 
L 520.008095 62.265563 
L 520.826454 61.469297 
L 521.527905 61.094077 
L 522.112448 60.997306 
L 522.69699 61.096614 
L 523.398441 61.474867 
L 524.099892 62.136668 
L 524.918251 63.269315 
L 525.736611 64.793676 
L 526.671879 67.02123 
L 527.724055 70.155365 
L 528.89314 74.431225 
L 530.062225 79.556285 
L 531.348219 86.187029 
L 532.751121 94.611365 
L 534.270931 105.122333 
L 536.009945 118.845895 
L 537.880481 135.463543 
L 540.101742 157.315157 
L 542.907546 187.273736 
L 550.608893 270.829506 
L 552.713246 290.750257 
L 554.583782 306.417798 
L 556.220501 318.333634 
L 557.740311 327.86949 
L 559.260122 336.018678 
L 560.779932 342.932855 
L 562.299742 348.786423 
L 563.819553 353.744935 
L 565.339363 357.950222 
L 566.859174 361.517198 
L 568.378984 364.536274 
L 569.898795 367.077531 
L 571.418605 369.194864 
L 572.938415 370.929638 
L 574.458226 372.312651 
L 575.861128 373.297511 
L 577.26403 374.016105 
L 578.666932 374.477792 
L 580.05522 374.687512 
L 581.341213 374.664714 
L 582.627207 374.43296 
L 583.9132 373.989826 
L 585.316102 373.259724 
L 586.719004 372.262891 
L 588.121906 370.985799 
L 589.524808 369.409949 
L 590.92771 367.51176 
L 592.44752 365.055286 
L 593.967331 362.132648 
L 595.487141 358.67727 
L 596.890043 354.940838 
L 598.292945 350.59199 
L 599.695847 345.525971 
L 601.098749 339.619229 
L 602.501651 332.735671 
L 603.904553 324.742329 
L 605.424363 314.711358 
L 607.061082 302.258188 
L 608.81471 287.100188 
L 610.919063 266.784798 
L 613.607958 238.391919 
L 622.376095 143.791286 
L 624.480448 124.305917 
L 626.350984 108.932466 
L 627.987703 97.16371 
L 629.507513 87.720169 
L 630.910415 80.296392 
L 632.196409 74.580523 
L 633.365493 70.277221 
L 634.534578 66.809529 
L 635.586755 64.390035 
L 636.522023 62.788137 
L 637.340382 61.804886 
L 638.041833 61.270317 
L 638.743284 61.018821 
L 639.327827 61.024991 
L 639.912369 61.227285 
L 640.61382 61.729435 
L 641.315271 62.515755 
L 642.133631 63.794823 
L 643.068898 65.738634 
L 644.004166 68.203026 
L 645.056343 71.608102 
L 646.225428 76.19027 
L 647.511421 82.217024 
L 648.914323 89.981568 
L 650.434134 99.790342 
L 652.070853 111.938408 
L 653.82448 126.669316 
L 655.811924 145.271478 
L 658.267003 170.481932 
L 662.008075 211.61063 
L 666.450597 259.977945 
L 668.237251 277.886145 
L 668.237251 277.886145 
" clip-path="url(#pcaf0131ae6)" style="fill: none; stroke-dasharray: 2,3.3; stroke-dashoffset: 0; stroke: #c05621; stroke-width: 2"/>
   </g>
   <g id="patch_3">
    <path d="M 54.467656 390.388719 
L 54.467656 45.312 
" style="fill: none; stroke: #000000; stroke-width: 0.8; stroke-linejoin: miter; stroke-linecap: square"/>
   </g>
   <g id="patch_4">
    <path d="M 697.464375 390.388719 
L 697.464375 45.312 
" style="fill: none; stroke: #000000; stroke-width: 0.8; stroke-linejoin: miter; stroke-linecap: square"/>
   </g>
   <g id="patch_5">
    <path d="M 54.467656 390.388719 
L 697.464375 390.388719 
" style="fill: none; stroke: #000000; stroke-width: 0.8; stroke-linejoin: miter; stroke-linecap: square"/>
   </g>
   <g id="patch_6">
    <path d="M 54.467656 45.312 
L 697.464375 45.312 
" style="fill: none; stroke: #000000; stroke-width: 0.8; stroke-linejoin: miter; stroke-linecap: square"/>
   </g>
   <g id="legend_1">
    <g id="patch_7">
     <path d="M 64.267656 161.517469 
L 137.207656 161.517469 
Q 140.007656 161.517469 140.007656 158.717469 
L 140.007656 55.112 
Q 140.007656 52.312 137.207656 52.312 
L 64.267656 52.312 
Q 61.467656 52.312 61.467656 55.112 
L 61.467656 158.717469 
Q 61.467656 161.517469 64.267656 161.517469 
z
" style="fill: #ffffff; opacity: 0.8; stroke: #cccccc; stroke-linejoin: miter"/>
    </g>
    <g id="line2d_32">
     <path d="M 67.067656 63.649813 
L 81.067656 63.649813 
L 95.067656 63.649813 
" style="fill: none; stroke: #0c5da5; stroke-width: 2.4; stroke-linecap: square"/>
    </g>
    <g id="text_16">
     <!-- $V_\mathrm{in}$ -->
     <g transform="translate(106.267656 68.549813) scale(0.14 -0.14)">
      <defs>
       <path id="Cmr10-24" d="M 197 0 
L 197 225 
Q 416 225 556 259 
Q 697 294 697 428 
L 697 2175 
Q 697 2422 601 2478 
Q 506 2534 225 2534 
L 225 2759 
L 1147 2828 
L 1147 428 
Q 1147 294 1269 259 
Q 1391 225 1594 225 
L 1594 0 
L 197 0 
z
M 469 3928 
Q 469 4069 575 4175 
Q 681 4281 819 4281 
Q 909 4281 993 4234 
Q 1078 4188 1125 4103 
Q 1172 4019 1172 3928 
Q 1172 3791 1065 3684 
Q 959 3578 819 3578 
Q 681 3578 575 3684 
Q 469 3791 469 3928 
z
" transform="scale(0.015625)"/>
       <path id="Cmr10-74" d="M 191 0 
L 191 225 
Q 409 225 550 259 
Q 691 294 691 428 
L 691 2175 
Q 691 2347 639 2423 
Q 588 2500 491 2517 
Q 394 2534 191 2534 
L 191 2759 
L 1119 2828 
L 1119 2203 
Q 1247 2478 1498 2653 
Q 1750 2828 2047 2828 
Q 2491 2828 2714 2615 
Q 2938 2403 2938 1966 
L 2938 428 
Q 2938 294 3078 259 
Q 3219 225 3438 225 
L 3438 0 
L 1972 0 
L 1972 225 
Q 2191 225 2331 259 
Q 2472 294 2472 428 
L 2472 1947 
Q 2472 2259 2381 2461 
Q 2291 2663 2009 2663 
Q 1638 2663 1398 2366 
Q 1159 2069 1159 1691 
L 1159 428 
Q 1159 294 1300 259 
Q 1441 225 1656 225 
L 1656 0 
L 191 0 
z
" transform="scale(0.015625)"/>
      </defs>
      <use xlink:href="#Cmmi10-7e" transform="translate(0 0.6875)"/>
      <use xlink:href="#Cmr10-24" transform="translate(58.300781 -14.312462) scale(0.7)"/>
      <use xlink:href="#Cmr10-74" transform="translate(77.680664 -14.312462) scale(0.7)"/>
     </g>
    </g>
    <g id="line2d_33">
     <path d="M 67.067656 84.650906 
L 81.067656 84.650906 
L 95.067656 84.650906 
" style="fill: none; stroke: #ff6b35; stroke-width: 2; stroke-linecap: square"/>
    </g>
    <g id="text_17">
     <!-- $V_\mathrm{out1}$ -->
     <g transform="translate(106.267656 89.550906) scale(0.14 -0.14)">
      <defs>
       <path id="Cmr10-42" d="M 1600 -72 
Q 1216 -72 887 123 
Q 559 319 368 647 
Q 178 975 178 1363 
Q 178 1656 283 1928 
Q 388 2200 583 2414 
Q 778 2628 1037 2748 
Q 1297 2869 1600 2869 
Q 1994 2869 2317 2661 
Q 2641 2453 2828 2104 
Q 3016 1756 3016 1363 
Q 3016 978 2825 648 
Q 2634 319 2307 123 
Q 1981 -72 1600 -72 
z
M 1600 116 
Q 2113 116 2284 487 
Q 2456 859 2456 1434 
Q 2456 1756 2422 1967 
Q 2388 2178 2272 2350 
Q 2200 2456 2089 2536 
Q 1978 2616 1854 2658 
Q 1731 2700 1600 2700 
Q 1400 2700 1220 2609 
Q 1041 2519 922 2350 
Q 803 2169 770 1951 
Q 738 1734 738 1434 
Q 738 1075 800 789 
Q 863 503 1052 309 
Q 1241 116 1600 116 
z
" transform="scale(0.015625)"/>
       <path id="Cmr10-5a" d="M 691 763 
L 691 2175 
Q 691 2347 639 2423 
Q 588 2500 491 2517 
Q 394 2534 191 2534 
L 191 2759 
L 1159 2828 
L 1159 763 
Q 1159 513 1195 373 
Q 1231 234 1348 165 
Q 1466 97 1722 97 
Q 2066 97 2269 384 
Q 2472 672 2472 1038 
L 2472 2175 
Q 2472 2347 2419 2423 
Q 2366 2500 2270 2517 
Q 2175 2534 1972 2534 
L 1972 2759 
L 2938 2828 
L 2938 581 
Q 2938 413 2989 336 
Q 3041 259 3137 242 
Q 3234 225 3438 225 
L 3438 0 
L 2491 -72 
L 2491 469 
Q 2372 228 2159 78 
Q 1947 -72 1691 -72 
Q 1231 -72 961 123 
Q 691 319 691 763 
z
" transform="scale(0.015625)"/>
       <path id="Cmr10-1c" d="M 653 769 
L 653 2534 
L 122 2534 
L 122 2700 
Q 541 2700 737 3090 
Q 934 3481 934 3938 
L 1119 3938 
L 1119 2759 
L 2022 2759 
L 2022 2534 
L 1119 2534 
L 1119 781 
Q 1119 516 1208 316 
Q 1297 116 1528 116 
Q 1747 116 1844 327 
Q 1941 538 1941 781 
L 1941 1159 
L 2125 1159 
L 2125 769 
Q 2125 569 2051 373 
Q 1978 178 1834 53 
Q 1691 -72 1484 -72 
Q 1100 -72 876 158 
Q 653 388 653 769 
z
" transform="scale(0.015625)"/>
       <path id="Cmr10-64" d="M 594 0 
L 594 225 
Q 1394 225 1394 428 
L 1394 3788 
Q 1063 3628 556 3628 
L 556 3853 
Q 1341 3853 1741 4263 
L 1831 4263 
Q 1853 4263 1873 4245 
Q 1894 4228 1894 4206 
L 1894 428 
Q 1894 225 2694 225 
L 2694 0 
L 594 0 
z
" transform="scale(0.015625)"/>
      </defs>
      <use xlink:href="#Cmmi10-7e" transform="translate(0 0.6875)"/>
      <use xlink:href="#Cmr10-42" transform="translate(58.300781 -14.312462) scale(0.7)"/>
      <use xlink:href="#Cmr10-5a" transform="translate(93.300781 -14.312462) scale(0.7)"/>
      <use xlink:href="#Cmr10-1c" transform="translate(132.163086 -14.312462) scale(0.7)"/>
      <use xlink:href="#Cmr10-64" transform="translate(159.335938 -14.312462) scale(0.7)"/>
     </g>
    </g>
    <g id="line2d_34">
     <path d="M 67.067656 105.652 
L 81.067656 105.652 
L 95.067656 105.652 
" style="fill: none; stroke-dasharray: 7.4,3.2; stroke-dashoffset: 0; stroke: #2f855a; stroke-width: 2"/>
    </g>
    <g id="text_18">
     <!-- $V_\mathrm{out2}$ -->
     <g transform="translate(106.267656 110.552) scale(0.14 -0.14)">
      <defs>
       <path id="Cmr10-31" d="M 319 0 
L 319 172 
Q 319 188 331 206 
L 1325 1306 
Q 1550 1550 1690 1715 
Q 1831 1881 1968 2097 
Q 2106 2313 2186 2536 
Q 2266 2759 2266 3009 
Q 2266 3272 2169 3511 
Q 2072 3750 1880 3894 
Q 1688 4038 1416 4038 
Q 1138 4038 916 3870 
Q 694 3703 603 3438 
Q 628 3444 672 3444 
Q 816 3444 917 3347 
Q 1019 3250 1019 3097 
Q 1019 2950 917 2848 
Q 816 2747 672 2747 
Q 522 2747 420 2851 
Q 319 2956 319 3097 
Q 319 3338 409 3548 
Q 500 3759 670 3923 
Q 841 4088 1055 4175 
Q 1269 4263 1509 4263 
Q 1875 4263 2190 4108 
Q 2506 3953 2690 3670 
Q 2875 3388 2875 3009 
Q 2875 2731 2753 2481 
Q 2631 2231 2440 2026 
Q 2250 1822 1953 1562 
Q 1656 1303 1563 1216 
L 838 519 
L 1453 519 
Q 1906 519 2211 526 
Q 2516 534 2534 550 
Q 2609 631 2688 1141 
L 2875 1141 
L 2694 0 
L 319 0 
z
" transform="scale(0.015625)"/>
      </defs>
      <use xlink:href="#Cmmi10-7e" transform="translate(0 0.6875)"/>
      <use xlink:href="#Cmr10-42" transform="translate(58.300781 -14.312462) scale(0.7)"/>
      <use xlink:href="#Cmr10-5a" transform="translate(93.300781 -14.312462) scale(0.7)"/>
      <use xlink:href="#Cmr10-1c" transform="translate(132.163086 -14.312462) scale(0.7)"/>
      <use xlink:href="#Cmr10-31" transform="translate(159.335938 -14.312462) scale(0.7)"/>
     </g>
    </g>
    <g id="line2d_35">
     <path d="M 67.067656 126.653094 
L 81.067656 126.653094 
L 95.067656 126.653094 
" style="fill: none; stroke-dasharray: 12.8,3.2,2,3.2; stroke-dashoffset: 0; stroke: #805ad5; stroke-width: 2"/>
    </g>
    <g id="text_19">
     <!-- $V_\mathrm{out3}$ -->
     <g transform="translate(106.267656 131.553094) scale(0.14 -0.14)">
      <defs>
       <path id="Cmr10-6e" d="M 609 494 
Q 759 275 1012 169 
Q 1266 63 1556 63 
Q 1928 63 2084 380 
Q 2241 697 2241 1100 
Q 2241 1281 2208 1462 
Q 2175 1644 2097 1800 
Q 2019 1956 1883 2050 
Q 1747 2144 1550 2144 
L 1125 2144 
Q 1069 2144 1069 2203 
L 1069 2259 
Q 1069 2309 1125 2309 
L 1478 2338 
Q 1703 2338 1851 2506 
Q 2000 2675 2069 2917 
Q 2138 3159 2138 3378 
Q 2138 3684 1994 3881 
Q 1850 4078 1556 4078 
Q 1313 4078 1091 3986 
Q 869 3894 738 3706 
Q 750 3709 759 3711 
Q 769 3713 781 3713 
Q 925 3713 1022 3613 
Q 1119 3513 1119 3372 
Q 1119 3234 1022 3134 
Q 925 3034 781 3034 
Q 641 3034 541 3134 
Q 441 3234 441 3372 
Q 441 3647 606 3850 
Q 772 4053 1033 4158 
Q 1294 4263 1556 4263 
Q 1750 4263 1965 4205 
Q 2181 4147 2356 4039 
Q 2531 3931 2642 3762 
Q 2753 3594 2753 3378 
Q 2753 3109 2633 2881 
Q 2513 2653 2303 2487 
Q 2094 2322 1844 2241 
Q 2122 2188 2372 2031 
Q 2622 1875 2773 1631 
Q 2925 1388 2925 1106 
Q 2925 753 2731 467 
Q 2538 181 2222 20 
Q 1906 -141 1556 -141 
Q 1256 -141 954 -26 
Q 653 88 461 316 
Q 269 544 269 863 
Q 269 1022 375 1128 
Q 481 1234 641 1234 
Q 744 1234 830 1186 
Q 916 1138 964 1050 
Q 1013 963 1013 863 
Q 1013 706 903 600 
Q 794 494 641 494 
L 609 494 
z
" transform="scale(0.015625)"/>
      </defs>
      <use xlink:href="#Cmmi10-7e" transform="translate(0 0.6875)"/>
      <use xlink:href="#Cmr10-42" transform="translate(58.300781 -14.312462) scale(0.7)"/>
      <use xlink:href="#Cmr10-5a" transform="translate(93.300781 -14.312462) scale(0.7)"/>
      <use xlink:href="#Cmr10-1c" transform="translate(132.163086 -14.312462) scale(0.7)"/>
      <use xlink:href="#Cmr10-6e" transform="translate(159.335938 -14.312462) scale(0.7)"/>
     </g>
    </g>
    <g id="line2d_36">
     <path d="M 67.067656 147.654188 
L 81.067656 147.654188 
L 95.067656 147.654188 
" style="fill: none; stroke-dasharray: 2,3.3; stroke-dashoffset: 0; stroke: #c05621; stroke-width: 2"/>
    </g>
    <g id="text_20">
     <!-- $V_\mathrm{out4}$ -->
     <g transform="translate(106.267656 152.554188) scale(0.14 -0.14)">
      <defs>
       <path id="Cmr10-3b" d="M 178 1056 
L 178 1281 
L 2156 4231 
Q 2178 4263 2222 4263 
L 2316 4263 
Q 2388 4263 2388 4191 
L 2388 1281 
L 3016 1281 
L 3016 1056 
L 2388 1056 
L 2388 428 
Q 2388 297 2575 261 
Q 2763 225 3009 225 
L 3009 0 
L 1247 0 
L 1247 225 
Q 1494 225 1681 261 
Q 1869 297 1869 428 
L 1869 1056 
L 178 1056 
z
M 391 1281 
L 1906 1281 
L 1906 3547 
L 391 1281 
z
" transform="scale(0.015625)"/>
      </defs>
      <use xlink:href="#Cmmi10-7e" transform="translate(0 0.6875)"/>
      <use xlink:href="#Cmr10-42" transform="translate(58.300781 -14.312462) scale(0.7)"/>
      <use xlink:href="#Cmr10-5a" transform="translate(93.300781 -14.312462) scale(0.7)"/>
      <use xlink:href="#Cmr10-1c" transform="translate(132.163086 -14.312462) scale(0.7)"/>
      <use xlink:href="#Cmr10-3b" transform="translate(159.335938 -14.312462) scale(0.7)"/>
     </g>
    </g>
   </g>
  </g>
  <g id="text_21">
   <!-- Inverter Top - Transient Response -->
   <g transform="translate(207.333938 19.964063) scale(0.168 -0.168)">
    <defs>
     <path id="DejaVuSerif-2c" d="M 1581 331 
L 2175 331 
L 2175 0 
L 353 0 
L 353 331 
L 947 331 
L 947 4331 
L 353 4331 
L 353 4666 
L 2175 4666 
L 2175 4331 
L 1581 4331 
L 1581 331 
z
" transform="scale(0.015625)"/>
     <path id="DejaVuSerif-51" d="M 263 0 
L 263 331 
L 781 331 
L 781 2988 
L 231 2988 
L 231 3322 
L 1356 3322 
L 1356 2731 
Q 1516 3069 1770 3241 
Q 2025 3413 2363 3413 
Q 2913 3413 3172 3097 
Q 3431 2781 3431 2113 
L 3431 331 
L 3944 331 
L 3944 0 
L 2356 0 
L 2356 331 
L 2853 331 
L 2853 1931 
Q 2853 2541 2703 2767 
Q 2553 2994 2175 2994 
Q 1775 2994 1565 2701 
Q 1356 2409 1356 1850 
L 1356 331 
L 1856 331 
L 1856 0 
L 263 0 
z
" transform="scale(0.015625)"/>
     <path id="DejaVuSerif-59" d="M 1581 0 
L 359 2988 
L -19 2988 
L -19 3322 
L 1509 3322 
L 1509 2988 
L 978 2988 
L 1913 703 
L 2847 2988 
L 2350 2988 
L 2350 3322 
L 3597 3322 
L 3597 2988 
L 3225 2988 
L 2003 0 
L 1581 0 
z
" transform="scale(0.015625)"/>
     <path id="DejaVuSerif-48" d="M 3469 1600 
L 991 1600 
L 991 1575 
Q 991 903 1244 561 
Q 1497 219 1991 219 
Q 2369 219 2611 417 
Q 2853 616 2950 1006 
L 3413 1006 
Q 3275 459 2904 184 
Q 2534 -91 1931 -91 
Q 1203 -91 761 389 
Q 319 869 319 1663 
Q 319 2450 753 2931 
Q 1188 3413 1894 3413 
Q 2647 3413 3050 2948 
Q 3453 2484 3469 1600 
z
M 2791 1931 
Q 2772 2513 2545 2808 
Q 2319 3103 1894 3103 
Q 1497 3103 1269 2806 
Q 1041 2509 991 1931 
L 2791 1931 
z
" transform="scale(0.015625)"/>
     <path id="DejaVuSerif-55" d="M 3059 3328 
L 3059 2497 
L 2728 2497 
Q 2713 2744 2591 2866 
Q 2469 2988 2234 2988 
Q 1809 2988 1582 2694 
Q 1356 2400 1356 1850 
L 1356 331 
L 2022 331 
L 2022 0 
L 263 0 
L 263 331 
L 781 331 
L 781 2994 
L 231 2994 
L 231 3322 
L 1356 3322 
L 1356 2731 
Q 1525 3078 1790 3245 
Q 2056 3413 2438 3413 
Q 2578 3413 2733 3391 
Q 2888 3369 3059 3328 
z
" transform="scale(0.015625)"/>
     <path id="DejaVuSerif-57" d="M 691 2988 
L 184 2988 
L 184 3322 
L 691 3322 
L 691 4353 
L 1269 4353 
L 1269 3322 
L 2350 3322 
L 2350 2988 
L 1269 2988 
L 1269 878 
Q 1269 456 1350 337 
Q 1431 219 1650 219 
Q 1875 219 1978 351 
Q 2081 484 2088 781 
L 2522 781 
Q 2497 328 2275 118 
Q 2053 -91 1600 -91 
Q 1103 -91 897 129 
Q 691 350 691 878 
L 691 2988 
z
" transform="scale(0.015625)"/>
     <path id="DejaVuSerif-37" d="M 1222 0 
L 1222 331 
L 1819 331 
L 1819 4294 
L 447 4294 
L 447 3566 
L 63 3566 
L 63 4666 
L 4206 4666 
L 4206 3566 
L 3822 3566 
L 3822 4294 
L 2450 4294 
L 2450 331 
L 3047 331 
L 3047 0 
L 1222 0 
z
" transform="scale(0.015625)"/>
     <path id="DejaVuSerif-52" d="M 1925 219 
Q 2388 219 2623 584 
Q 2859 950 2859 1663 
Q 2859 2375 2623 2739 
Q 2388 3103 1925 3103 
Q 1463 3103 1227 2739 
Q 991 2375 991 1663 
Q 991 950 1228 584 
Q 1466 219 1925 219 
z
M 1925 -91 
Q 1200 -91 759 389 
Q 319 869 319 1663 
Q 319 2456 758 2934 
Q 1197 3413 1925 3413 
Q 2653 3413 3092 2934 
Q 3531 2456 3531 1663 
Q 3531 869 3092 389 
Q 2653 -91 1925 -91 
z
" transform="scale(0.015625)"/>
     <path id="DejaVuSerif-53" d="M 1313 1825 
L 1313 1497 
Q 1313 897 1542 583 
Q 1772 269 2209 269 
Q 2650 269 2876 622 
Q 3103 975 3103 1663 
Q 3103 2353 2876 2703 
Q 2650 3053 2209 3053 
Q 1772 3053 1542 2737 
Q 1313 2422 1313 1825 
z
M 738 2988 
L 184 2988 
L 184 3322 
L 1313 3322 
L 1313 2803 
Q 1481 3116 1742 3264 
Q 2003 3413 2388 3413 
Q 3000 3413 3387 2928 
Q 3775 2444 3775 1663 
Q 3775 881 3387 395 
Q 3000 -91 2388 -91 
Q 2003 -91 1742 57 
Q 1481 206 1313 519 
L 1313 -997 
L 1856 -997 
L 1856 -1331 
L 184 -1331 
L 184 -997 
L 738 -997 
L 738 2988 
z
" transform="scale(0.015625)"/>
     <path id="DejaVuSerif-10" d="M 281 1959 
L 1881 1959 
L 1881 1472 
L 281 1472 
L 281 1959 
z
" transform="scale(0.015625)"/>
     <path id="DejaVuSerif-44" d="M 2547 1044 
L 2547 1747 
L 1806 1747 
Q 1378 1747 1168 1562 
Q 959 1378 959 997 
Q 959 650 1171 447 
Q 1384 244 1747 244 
Q 2106 244 2326 466 
Q 2547 688 2547 1044 
z
M 3122 2075 
L 3122 331 
L 3634 331 
L 3634 0 
L 2547 0 
L 2547 359 
Q 2356 128 2106 18 
Q 1856 -91 1522 -91 
Q 969 -91 644 203 
Q 319 497 319 997 
Q 319 1513 691 1797 
Q 1063 2081 1741 2081 
L 2547 2081 
L 2547 2309 
Q 2547 2688 2317 2895 
Q 2088 3103 1672 3103 
Q 1328 3103 1125 2947 
Q 922 2791 872 2484 
L 575 2484 
L 575 3156 
Q 875 3284 1158 3348 
Q 1441 3413 1709 3413 
Q 2400 3413 2761 3070 
Q 3122 2728 3122 2075 
z
" transform="scale(0.015625)"/>
     <path id="DejaVuSerif-4c" d="M 622 4353 
Q 622 4497 726 4603 
Q 831 4709 978 4709 
Q 1122 4709 1226 4603 
Q 1331 4497 1331 4353 
Q 1331 4206 1228 4103 
Q 1125 4000 978 4000 
Q 831 4000 726 4103 
Q 622 4206 622 4353 
z
M 1356 331 
L 1900 331 
L 1900 0 
L 231 0 
L 231 331 
L 781 331 
L 781 2988 
L 231 2988 
L 231 3322 
L 1356 3322 
L 1356 331 
z
" transform="scale(0.015625)"/>
     <path id="DejaVuSerif-35" d="M 3066 2316 
Q 3284 2256 3442 2114 
Q 3600 1972 3725 1716 
L 4403 331 
L 4972 331 
L 4972 0 
L 3872 0 
L 3144 1484 
Q 2934 1916 2759 2042 
Q 2584 2169 2278 2169 
L 1581 2169 
L 1581 331 
L 2241 331 
L 2241 0 
L 353 0 
L 353 331 
L 947 331 
L 947 4331 
L 353 4331 
L 353 4666 
L 2719 4666 
Q 3400 4666 3770 4341 
Q 4141 4016 4141 3419 
Q 4141 2938 3870 2661 
Q 3600 2384 3066 2316 
z
M 1581 2503 
L 2503 2503 
Q 2975 2503 3200 2726 
Q 3425 2950 3425 3419 
Q 3425 3888 3200 4109 
Q 2975 4331 2503 4331 
L 1581 4331 
L 1581 2503 
z
" transform="scale(0.015625)"/>
    </defs>
    <use xlink:href="#DejaVuSerif-2c"/>
    <use xlink:href="#DejaVuSerif-51" transform="translate(39.5 0)"/>
    <use xlink:href="#DejaVuSerif-59" transform="translate(103.90625 0)"/>
    <use xlink:href="#DejaVuSerif-48" transform="translate(160.40625 0)"/>
    <use xlink:href="#DejaVuSerif-55" transform="translate(219.59375 0)"/>
    <use xlink:href="#DejaVuSerif-57" transform="translate(267.390625 0)"/>
    <use xlink:href="#DejaVuSerif-48" transform="translate(307.578125 0)"/>
    <use xlink:href="#DejaVuSerif-55" transform="translate(366.765625 0)"/>
    <use xlink:href="#DejaVuSerif-3" transform="translate(414.5625 0)"/>
    <use xlink:href="#DejaVuSerif-37" transform="translate(446.34375 0)"/>
    <use xlink:href="#DejaVuSerif-52" transform="translate(505.28125 0)"/>
    <use xlink:href="#DejaVuSerif-53" transform="translate(565.484375 0)"/>
    <use xlink:href="#DejaVuSerif-3" transform="translate(629.5 0)"/>
    <use xlink:href="#DejaVuSerif-10" transform="translate(661.28125 0)"/>
    <use xlink:href="#DejaVuSerif-3" transform="translate(695.078125 0)"/>
    <use xlink:href="#DejaVuSerif-37" transform="translate(726.859375 0)"/>
    <use xlink:href="#DejaVuSerif-55" transform="translate(793.5625 0)"/>
    <use xlink:href="#DejaVuSerif-44" transform="translate(841.359375 0)"/>
    <use xlink:href="#DejaVuSerif-51" transform="translate(900.984375 0)"/>
    <use xlink:href="#DejaVuSerif-56" transform="translate(965.390625 0)"/>
    <use xlink:href="#DejaVuSerif-4c" transform="translate(1016.703125 0)"/>
    <use xlink:href="#DejaVuSerif-48" transform="translate(1048.6875 0)"/>
    <use xlink:href="#DejaVuSerif-51" transform="translate(1107.875 0)"/>
    <use xlink:href="#DejaVuSerif-57" transform="translate(1172.28125 0)"/>
    <use xlink:href="#DejaVuSerif-3" transform="translate(1212.46875 0)"/>
    <use xlink:href="#DejaVuSerif-35" transform="translate(1244.25 0)"/>
    <use xlink:href="#DejaVuSerif-48" transform="translate(1319.546875 0)"/>
    <use xlink:href="#DejaVuSerif-56" transform="translate(1378.734375 0)"/>
    <use xlink:href="#DejaVuSerif-53" transform="translate(1430.046875 0)"/>
    <use xlink:href="#DejaVuSerif-52" transform="translate(1494.0625 0)"/>
    <use xlink:href="#DejaVuSerif-51" transform="translate(1554.265625 0)"/>
    <use xlink:href="#DejaVuSerif-56" transform="translate(1618.671875 0)"/>
    <use xlink:href="#DejaVuSerif-48" transform="translate(1669.984375 0)"/>
   </g>
  </g>
 </g>
 <defs>
  <clipPath id="pcaf0131ae6">
   <rect x="54.467656" y="45.312" width="642.996719" height="345.076719"/>
  </clipPath>
 </defs>
</svg>
