<?xml version="1.0" encoding="utf-8" standalone="no"?>
<!DOCTYPE svg PUBLIC "-//W3C//DTD SVG 1.1//EN"
  "http://www.w3.org/Graphics/SVG/1.1/DTD/svg11.dtd">
<svg xmlns:xlink="http://www.w3.org/1999/xlink" width="701.83625pt" height="435.16325pt" viewBox="0 0 701.83625 435.16325" xmlns="http://www.w3.org/2000/svg" version="1.1">
 <metadata>
  <rdf:RDF xmlns:dc="http://purl.org/dc/elements/1.1/" xmlns:cc="http://creativecommons.org/ns#" xmlns:rdf="http://www.w3.org/1999/02/22-rdf-syntax-ns#">
   <cc:Work>
    <dc:type rdf:resource="http://purl.org/dc/dcmitype/StillImage"/>
    <dc:date>2026-05-06T13:41:59.771002</dc:date>
    <dc:format>image/svg+xml</dc:format>
    <dc:creator>
     <cc:Agent>
      <dc:title>Matplotlib v3.10.8, https://matplotlib.org/</dc:title>
     </cc:Agent>
    </dc:creator>
   </cc:Work>
  </rdf:RDF>
 </metadata>
 <defs>
  <style type="text/css">*{stroke-linejoin: round; stroke-linecap: butt}</style>
 </defs>
 <g id="figure_1">
  <g id="patch_1">
   <path d="M 0 435.16325 
L 701.83625 435.16325 
L 701.83625 0 
L 0 0 
z
" style="fill: #ffffff"/>
  </g>
  <g id="axes_1">
   <g id="patch_2">
    <path d="M 54.01375 389.8645 
L 694.63625 389.8645 
L 694.63625 44.352 
L 54.01375 44.352 
z
" style="fill: #ffffff"/>
   </g>
   <g id="matplotlib.axis_1">
    <g id="xtick_1">
     <g id="line2d_1">
      <path d="M 83.132955 389.8645 
L 83.132955 44.352 
" clip-path="url(#pec62ce3152)" style="fill: none; stroke-dasharray: 2.96,1.28; stroke-dashoffset: 0; stroke: #b0b0b0; stroke-opacity: 0.45; stroke-width: 0.8"/>
     </g>
     <g id="line2d_2">
      <defs>
       <path id="m041015f2e1" d="M 0 0 
L 0 3.5 
" style="stroke: #000000; stroke-width: 0.8"/>
      </defs>
      <g>
       <use xlink:href="#m041015f2e1" x="83.132955" y="389.8645" style="stroke: #000000; stroke-width: 0.8"/>
      </g>
     </g>
     <g id="text_1">
      <!-- 0 -->
      <g transform="translate(78.679205 407.502313) scale(0.14 -0.14)">
       <defs>
        <path id="DejaVuSerif-30" d="M 2034 219 
Q 2513 219 2750 744 
Q 2988 1269 2988 2328 
Q 2988 3391 2750 3916 
Q 2513 4441 2034 4441 
Q 1556 4441 1318 3916 
Q 1081 3391 1081 2328 
Q 1081 1269 1318 744 
Q 1556 219 2034 219 
z
M 2034 -91 
Q 1275 -91 848 546 
Q 422 1184 422 2328 
Q 422 3475 848 4112 
Q 1275 4750 2034 4750 
Q 2797 4750 3222 4112 
Q 3647 3475 3647 2328 
Q 3647 1184 3222 546 
Q 2797 -91 2034 -91 
z
" transform="scale(0.015625)"/>
       </defs>
       <use xlink:href="#DejaVuSerif-30"/>
      </g>
     </g>
    </g>
    <g id="xtick_2">
     <g id="line2d_3">
      <path d="M 199.609773 389.8645 
L 199.609773 44.352 
" clip-path="url(#pec62ce3152)" style="fill: none; stroke-dasharray: 2.96,1.28; stroke-dashoffset: 0; stroke: #b0b0b0; stroke-opacity: 0.45; stroke-width: 0.8"/>
     </g>
     <g id="line2d_4">
      <g>
       <use xlink:href="#m041015f2e1" x="199.609773" y="389.8645" style="stroke: #000000; stroke-width: 0.8"/>
      </g>
     </g>
     <g id="text_2">
      <!-- 1 -->
      <g transform="translate(195.156023 407.502313) scale(0.14 -0.14)">
       <defs>
        <path id="DejaVuSerif-31" d="M 909 0 
L 909 331 
L 1722 331 
L 1722 4213 
L 781 3603 
L 781 4013 
L 1919 4750 
L 2350 4750 
L 2350 331 
L 3163 331 
L 3163 0 
L 909 0 
z
" transform="scale(0.015625)"/>
       </defs>
       <use xlink:href="#DejaVuSerif-31"/>
      </g>
     </g>
    </g>
    <g id="xtick_3">
     <g id="line2d_5">
      <path d="M 316.086591 389.8645 
L 316.086591 44.352 
" clip-path="url(#pec62ce3152)" style="fill: none; stroke-dasharray: 2.96,1.28; stroke-dashoffset: 0; stroke: #b0b0b0; stroke-opacity: 0.45; stroke-width: 0.8"/>
     </g>
     <g id="line2d_6">
      <g>
       <use xlink:href="#m041015f2e1" x="316.086591" y="389.8645" style="stroke: #000000; stroke-width: 0.8"/>
      </g>
     </g>
     <g id="text_3">
      <!-- 2 -->
      <g transform="translate(311.632841 407.502313) scale(0.14 -0.14)">
       <defs>
        <path id="DejaVuSerif-32" d="M 819 3553 
L 469 3553 
L 469 4384 
Q 803 4563 1142 4656 
Q 1481 4750 1806 4750 
Q 2534 4750 2956 4397 
Q 3378 4044 3378 3438 
Q 3378 2753 2422 1800 
Q 2347 1728 2309 1691 
L 1131 513 
L 3078 513 
L 3078 1088 
L 3444 1088 
L 3444 0 
L 434 0 
L 434 341 
L 1850 1753 
Q 2319 2222 2519 2614 
Q 2719 3006 2719 3438 
Q 2719 3909 2473 4175 
Q 2228 4441 1797 4441 
Q 1350 4441 1106 4219 
Q 863 3997 819 3553 
z
" transform="scale(0.015625)"/>
       </defs>
       <use xlink:href="#DejaVuSerif-32"/>
      </g>
     </g>
    </g>
    <g id="xtick_4">
     <g id="line2d_7">
      <path d="M 432.563409 389.8645 
L 432.563409 44.352 
" clip-path="url(#pec62ce3152)" style="fill: none; stroke-dasharray: 2.96,1.28; stroke-dashoffset: 0; stroke: #b0b0b0; stroke-opacity: 0.45; stroke-width: 0.8"/>
     </g>
     <g id="line2d_8">
      <g>
       <use xlink:href="#m041015f2e1" x="432.563409" y="389.8645" style="stroke: #000000; stroke-width: 0.8"/>
      </g>
     </g>
     <g id="text_4">
      <!-- 3 -->
      <g transform="translate(428.109659 407.502313) scale(0.14 -0.14)">
       <defs>
        <path id="DejaVuSerif-33" d="M 622 4469 
Q 988 4606 1323 4678 
Q 1659 4750 1953 4750 
Q 2638 4750 3022 4454 
Q 3406 4159 3406 3634 
Q 3406 3213 3140 2930 
Q 2875 2647 2388 2547 
Q 2963 2466 3280 2130 
Q 3597 1794 3597 1259 
Q 3597 606 3158 257 
Q 2719 -91 1894 -91 
Q 1528 -91 1179 -12 
Q 831 66 488 225 
L 488 1131 
L 838 1131 
Q 869 681 1141 450 
Q 1413 219 1906 219 
Q 2384 219 2661 495 
Q 2938 772 2938 1253 
Q 2938 1803 2653 2086 
Q 2369 2369 1819 2369 
L 1522 2369 
L 1522 2688 
L 1678 2688 
Q 2225 2688 2498 2914 
Q 2772 3141 2772 3597 
Q 2772 4006 2547 4223 
Q 2322 4441 1900 4441 
Q 1478 4441 1245 4241 
Q 1013 4041 972 3647 
L 622 3647 
L 622 4469 
z
" transform="scale(0.015625)"/>
       </defs>
       <use xlink:href="#DejaVuSerif-33"/>
      </g>
     </g>
    </g>
    <g id="xtick_5">
     <g id="line2d_9">
      <path d="M 549.040227 389.8645 
L 549.040227 44.352 
" clip-path="url(#pec62ce3152)" style="fill: none; stroke-dasharray: 2.96,1.28; stroke-dashoffset: 0; stroke: #b0b0b0; stroke-opacity: 0.45; stroke-width: 0.8"/>
     </g>
     <g id="line2d_10">
      <g>
       <use xlink:href="#m041015f2e1" x="549.040227" y="389.8645" style="stroke: #000000; stroke-width: 0.8"/>
      </g>
     </g>
     <g id="text_5">
      <!-- 4 -->
      <g transform="translate(544.586477 407.502313) scale(0.14 -0.14)">
       <defs>
        <path id="DejaVuSerif-34" d="M 2234 1581 
L 2234 4063 
L 641 1581 
L 2234 1581 
z
M 3609 0 
L 1484 0 
L 1484 331 
L 2234 331 
L 2234 1247 
L 197 1247 
L 197 1588 
L 2241 4750 
L 2859 4750 
L 2859 1581 
L 3750 1581 
L 3750 1247 
L 2859 1247 
L 2859 331 
L 3609 331 
L 3609 0 
z
" transform="scale(0.015625)"/>
       </defs>
       <use xlink:href="#DejaVuSerif-34"/>
      </g>
     </g>
    </g>
    <g id="xtick_6">
     <g id="line2d_11">
      <path d="M 665.517045 389.8645 
L 665.517045 44.352 
" clip-path="url(#pec62ce3152)" style="fill: none; stroke-dasharray: 2.96,1.28; stroke-dashoffset: 0; stroke: #b0b0b0; stroke-opacity: 0.45; stroke-width: 0.8"/>
     </g>
     <g id="line2d_12">
      <g>
       <use xlink:href="#m041015f2e1" x="665.517045" y="389.8645" style="stroke: #000000; stroke-width: 0.8"/>
      </g>
     </g>
     <g id="text_6">
      <!-- 5 -->
      <g transform="translate(661.063295 407.502313) scale(0.14 -0.14)">
       <defs>
        <path id="DejaVuSerif-35" d="M 3219 4666 
L 3219 4153 
L 1081 4153 
L 1081 2816 
Q 1244 2928 1461 2984 
Q 1678 3041 1947 3041 
Q 2703 3041 3140 2622 
Q 3578 2203 3578 1478 
Q 3578 738 3136 323 
Q 2694 -91 1894 -91 
Q 1572 -91 1234 -12 
Q 897 66 544 225 
L 544 1131 
L 897 1131 
Q 925 688 1179 453 
Q 1434 219 1894 219 
Q 2388 219 2653 544 
Q 2919 869 2919 1478 
Q 2919 2084 2655 2407 
Q 2391 2731 1894 2731 
Q 1613 2731 1398 2631 
Q 1184 2531 1019 2322 
L 750 2322 
L 750 4666 
L 3219 4666 
z
" transform="scale(0.015625)"/>
       </defs>
       <use xlink:href="#DejaVuSerif-35"/>
      </g>
     </g>
    </g>
    <g id="text_7">
     <!-- $t$ (ms) -->
     <g transform="translate(353.815 425.051688) scale(0.14 -0.14)">
      <defs>
       <path id="Cmmi10-74" d="M 397 519 
Q 397 613 416 697 
L 878 2534 
L 206 2534 
Q 141 2534 141 2619 
Q 166 2759 225 2759 
L 934 2759 
L 1191 3803 
Q 1216 3888 1291 3947 
Q 1366 4006 1459 4006 
Q 1541 4006 1595 3957 
Q 1650 3909 1650 3828 
Q 1650 3809 1648 3798 
Q 1647 3788 1644 3775 
L 1388 2759 
L 2047 2759 
Q 2113 2759 2113 2675 
Q 2109 2659 2100 2621 
Q 2091 2584 2075 2559 
Q 2059 2534 2028 2534 
L 1331 2534 
L 872 684 
Q 825 503 825 372 
Q 825 97 1013 97 
Q 1294 97 1511 361 
Q 1728 625 1844 941 
Q 1869 978 1894 978 
L 1972 978 
Q 1997 978 2012 961 
Q 2028 944 2028 922 
Q 2028 909 2022 903 
Q 1881 516 1612 222 
Q 1344 -72 997 -72 
Q 744 -72 570 93 
Q 397 259 397 519 
z
" transform="scale(0.015625)"/>
       <path id="DejaVuSerif-20" transform="scale(0.015625)"/>
       <path id="DejaVuSerif-28" d="M 2041 -997 
Q 1281 -656 893 83 
Q 506 822 506 1931 
Q 506 3044 893 3783 
Q 1281 4522 2041 4863 
L 2041 4556 
Q 1559 4225 1350 3623 
Q 1141 3022 1141 1931 
Q 1141 844 1350 242 
Q 1559 -359 2041 -691 
L 2041 -997 
z
" transform="scale(0.015625)"/>
       <path id="DejaVuSerif-6d" d="M 3316 2675 
Q 3481 3041 3739 3227 
Q 3997 3413 4341 3413 
Q 4863 3413 5119 3089 
Q 5375 2766 5375 2113 
L 5375 331 
L 5894 331 
L 5894 0 
L 4300 0 
L 4300 331 
L 4800 331 
L 4800 2047 
Q 4800 2556 4650 2772 
Q 4500 2988 4153 2988 
Q 3769 2988 3567 2697 
Q 3366 2406 3366 1850 
L 3366 331 
L 3866 331 
L 3866 0 
L 2291 0 
L 2291 331 
L 2791 331 
L 2791 2069 
Q 2791 2566 2641 2777 
Q 2491 2988 2144 2988 
Q 1759 2988 1557 2697 
Q 1356 2406 1356 1850 
L 1356 331 
L 1856 331 
L 1856 0 
L 263 0 
L 263 331 
L 781 331 
L 781 2994 
L 231 2994 
L 231 3322 
L 1356 3322 
L 1356 2731 
Q 1516 3063 1762 3238 
Q 2009 3413 2322 3413 
Q 2709 3413 2968 3220 
Q 3228 3028 3316 2675 
z
" transform="scale(0.015625)"/>
       <path id="DejaVuSerif-73" d="M 359 184 
L 359 959 
L 691 959 
Q 703 588 923 403 
Q 1144 219 1575 219 
Q 1963 219 2166 364 
Q 2369 509 2369 788 
Q 2369 1006 2220 1140 
Q 2072 1275 1594 1428 
L 1178 1569 
Q 750 1706 558 1912 
Q 366 2119 366 2438 
Q 366 2894 700 3153 
Q 1034 3413 1625 3413 
Q 1888 3413 2178 3344 
Q 2469 3275 2778 3144 
L 2778 2419 
L 2447 2419 
Q 2434 2741 2221 2922 
Q 2009 3103 1644 3103 
Q 1281 3103 1095 2975 
Q 909 2847 909 2591 
Q 909 2381 1050 2254 
Q 1191 2128 1613 1997 
L 2069 1856 
Q 2541 1709 2748 1489 
Q 2956 1269 2956 922 
Q 2956 450 2595 179 
Q 2234 -91 1600 -91 
Q 1278 -91 972 -22 
Q 666 47 359 184 
z
" transform="scale(0.015625)"/>
       <path id="DejaVuSerif-29" d="M 453 -997 
L 453 -691 
Q 934 -359 1145 242 
Q 1356 844 1356 1931 
Q 1356 3022 1145 3623 
Q 934 4225 453 4556 
L 453 4863 
Q 1216 4522 1603 3783 
Q 1991 3044 1991 1931 
Q 1991 822 1603 83 
Q 1216 -656 453 -997 
z
" transform="scale(0.015625)"/>
      </defs>
      <use xlink:href="#Cmmi10-74" transform="translate(0 0.015625)"/>
      <use xlink:href="#DejaVuSerif-20" transform="translate(36.083984 0.015625)"/>
      <use xlink:href="#DejaVuSerif-28" transform="translate(67.871094 0.015625)"/>
      <use xlink:href="#DejaVuSerif-6d" transform="translate(106.884766 0.015625)"/>
      <use xlink:href="#DejaVuSerif-73" transform="translate(201.708984 0.015625)"/>
      <use xlink:href="#DejaVuSerif-29" transform="translate(253.027344 0.015625)"/>
     </g>
    </g>
   </g>
   <g id="matplotlib.axis_2">
    <g id="ytick_1">
     <g id="line2d_13">
      <path d="M 54.01375 345.419239 
L 694.63625 345.419239 
" clip-path="url(#pec62ce3152)" style="fill: none; stroke-dasharray: 2.96,1.28; stroke-dashoffset: 0; stroke: #b0b0b0; stroke-opacity: 0.45; stroke-width: 0.8"/>
     </g>
     <g id="line2d_14">
      <defs>
       <path id="m12ba9a5226" d="M 0 0 
L -3.5 0 
" style="stroke: #000000; stroke-width: 0.8"/>
      </defs>
      <g>
       <use xlink:href="#m12ba9a5226" x="54.01375" y="345.419239" style="stroke: #000000; stroke-width: 0.8"/>
      </g>
     </g>
     <g id="text_8">
      <!-- 0.4 -->
      <g transform="translate(24.749375 350.738145) scale(0.14 -0.14)">
       <defs>
        <path id="DejaVuSerif-2e" d="M 603 325 
Q 603 500 722 622 
Q 841 744 1019 744 
Q 1191 744 1312 622 
Q 1434 500 1434 325 
Q 1434 153 1312 31 
Q 1191 -91 1019 -91 
Q 841 -91 722 29 
Q 603 150 603 325 
z
" transform="scale(0.015625)"/>
       </defs>
       <use xlink:href="#DejaVuSerif-30"/>
       <use xlink:href="#DejaVuSerif-2e" transform="translate(63.623047 0)"/>
       <use xlink:href="#DejaVuSerif-34" transform="translate(95.410156 0)"/>
      </g>
     </g>
    </g>
    <g id="ytick_2">
     <g id="line2d_15">
      <path d="M 54.01375 297.08316 
L 694.63625 297.08316 
" clip-path="url(#pec62ce3152)" style="fill: none; stroke-dasharray: 2.96,1.28; stroke-dashoffset: 0; stroke: #b0b0b0; stroke-opacity: 0.45; stroke-width: 0.8"/>
     </g>
     <g id="line2d_16">
      <g>
       <use xlink:href="#m12ba9a5226" x="54.01375" y="297.08316" style="stroke: #000000; stroke-width: 0.8"/>
      </g>
     </g>
     <g id="text_9">
      <!-- 0.5 -->
      <g transform="translate(24.749375 302.402067) scale(0.14 -0.14)">
       <use xlink:href="#DejaVuSerif-30"/>
       <use xlink:href="#DejaVuSerif-2e" transform="translate(63.623047 0)"/>
       <use xlink:href="#DejaVuSerif-35" transform="translate(95.410156 0)"/>
      </g>
     </g>
    </g>
    <g id="ytick_3">
     <g id="line2d_17">
      <path d="M 54.01375 248.747082 
L 694.63625 248.747082 
" clip-path="url(#pec62ce3152)" style="fill: none; stroke-dasharray: 2.96,1.28; stroke-dashoffset: 0; stroke: #b0b0b0; stroke-opacity: 0.45; stroke-width: 0.8"/>
     </g>
     <g id="line2d_18">
      <g>
       <use xlink:href="#m12ba9a5226" x="54.01375" y="248.747082" style="stroke: #000000; stroke-width: 0.8"/>
      </g>
     </g>
     <g id="text_10">
      <!-- 0.6 -->
      <g transform="translate(24.749375 254.065988) scale(0.14 -0.14)">
       <defs>
        <path id="DejaVuSerif-36" d="M 2094 219 
Q 2534 219 2771 542 
Q 3009 866 3009 1472 
Q 3009 2078 2771 2401 
Q 2534 2725 2094 2725 
Q 1647 2725 1412 2412 
Q 1178 2100 1178 1509 
Q 1178 888 1415 553 
Q 1653 219 2094 219 
z
M 1075 2569 
Q 1288 2803 1556 2918 
Q 1825 3034 2163 3034 
Q 2859 3034 3264 2615 
Q 3669 2197 3669 1472 
Q 3669 763 3233 336 
Q 2797 -91 2069 -91 
Q 1278 -91 853 498 
Q 428 1088 428 2181 
Q 428 3406 931 4078 
Q 1434 4750 2350 4750 
Q 2597 4750 2869 4703 
Q 3141 4656 3425 4563 
L 3425 3794 
L 3072 3794 
Q 3034 4109 2831 4275 
Q 2628 4441 2284 4441 
Q 1678 4441 1381 3981 
Q 1084 3522 1075 2569 
z
" transform="scale(0.015625)"/>
       </defs>
       <use xlink:href="#DejaVuSerif-30"/>
       <use xlink:href="#DejaVuSerif-2e" transform="translate(63.623047 0)"/>
       <use xlink:href="#DejaVuSerif-36" transform="translate(95.410156 0)"/>
      </g>
     </g>
    </g>
    <g id="ytick_4">
     <g id="line2d_19">
      <path d="M 54.01375 200.411003 
L 694.63625 200.411003 
" clip-path="url(#pec62ce3152)" style="fill: none; stroke-dasharray: 2.96,1.28; stroke-dashoffset: 0; stroke: #b0b0b0; stroke-opacity: 0.45; stroke-width: 0.8"/>
     </g>
     <g id="line2d_20">
      <g>
       <use xlink:href="#m12ba9a5226" x="54.01375" y="200.411003" style="stroke: #000000; stroke-width: 0.8"/>
      </g>
     </g>
     <g id="text_11">
      <!-- 0.7 -->
      <g transform="translate(24.749375 205.72991) scale(0.14 -0.14)">
       <defs>
        <path id="DejaVuSerif-37" d="M 3609 4347 
L 1784 0 
L 1319 0 
L 3059 4153 
L 903 4153 
L 903 3578 
L 538 3578 
L 538 4666 
L 3609 4666 
L 3609 4347 
z
" transform="scale(0.015625)"/>
       </defs>
       <use xlink:href="#DejaVuSerif-30"/>
       <use xlink:href="#DejaVuSerif-2e" transform="translate(63.623047 0)"/>
       <use xlink:href="#DejaVuSerif-37" transform="translate(95.410156 0)"/>
      </g>
     </g>
    </g>
    <g id="ytick_5">
     <g id="line2d_21">
      <path d="M 54.01375 152.074925 
L 694.63625 152.074925 
" clip-path="url(#pec62ce3152)" style="fill: none; stroke-dasharray: 2.96,1.28; stroke-dashoffset: 0; stroke: #b0b0b0; stroke-opacity: 0.45; stroke-width: 0.8"/>
     </g>
     <g id="line2d_22">
      <g>
       <use xlink:href="#m12ba9a5226" x="54.01375" y="152.074925" style="stroke: #000000; stroke-width: 0.8"/>
      </g>
     </g>
     <g id="text_12">
      <!-- 0.8 -->
      <g transform="translate(24.749375 157.393831) scale(0.14 -0.14)">
       <defs>
        <path id="DejaVuSerif-38" d="M 2981 1275 
Q 2981 1775 2732 2051 
Q 2484 2328 2034 2328 
Q 1584 2328 1336 2051 
Q 1088 1775 1088 1275 
Q 1088 772 1336 495 
Q 1584 219 2034 219 
Q 2484 219 2732 495 
Q 2981 772 2981 1275 
z
M 2853 3541 
Q 2853 3966 2637 4203 
Q 2422 4441 2034 4441 
Q 1650 4441 1433 4203 
Q 1216 3966 1216 3541 
Q 1216 3113 1433 2875 
Q 1650 2638 2034 2638 
Q 2422 2638 2637 2875 
Q 2853 3113 2853 3541 
z
M 2516 2484 
Q 3047 2413 3344 2092 
Q 3641 1772 3641 1275 
Q 3641 619 3225 264 
Q 2809 -91 2034 -91 
Q 1263 -91 845 264 
Q 428 619 428 1275 
Q 428 1772 725 2092 
Q 1022 2413 1556 2484 
Q 1084 2569 832 2842 
Q 581 3116 581 3541 
Q 581 4103 968 4426 
Q 1356 4750 2034 4750 
Q 2713 4750 3100 4426 
Q 3488 4103 3488 3541 
Q 3488 3116 3236 2842 
Q 2984 2569 2516 2484 
z
" transform="scale(0.015625)"/>
       </defs>
       <use xlink:href="#DejaVuSerif-30"/>
       <use xlink:href="#DejaVuSerif-2e" transform="translate(63.623047 0)"/>
       <use xlink:href="#DejaVuSerif-38" transform="translate(95.410156 0)"/>
      </g>
     </g>
    </g>
    <g id="ytick_6">
     <g id="line2d_23">
      <path d="M 54.01375 103.738846 
L 694.63625 103.738846 
" clip-path="url(#pec62ce3152)" style="fill: none; stroke-dasharray: 2.96,1.28; stroke-dashoffset: 0; stroke: #b0b0b0; stroke-opacity: 0.45; stroke-width: 0.8"/>
     </g>
     <g id="line2d_24">
      <g>
       <use xlink:href="#m12ba9a5226" x="54.01375" y="103.738846" style="stroke: #000000; stroke-width: 0.8"/>
      </g>
     </g>
     <g id="text_13">
      <!-- 0.9 -->
      <g transform="translate(24.749375 109.057753) scale(0.14 -0.14)">
       <defs>
        <path id="DejaVuSerif-39" d="M 2994 2091 
Q 2784 1856 2512 1740 
Q 2241 1625 1900 1625 
Q 1206 1625 804 2044 
Q 403 2463 403 3188 
Q 403 3897 839 4323 
Q 1275 4750 2003 4750 
Q 2794 4750 3217 4161 
Q 3641 3572 3641 2478 
Q 3641 1253 3137 581 
Q 2634 -91 1722 -91 
Q 1475 -91 1203 -44 
Q 931 3 647 97 
L 647 872 
L 997 872 
Q 1038 556 1241 387 
Q 1444 219 1784 219 
Q 2391 219 2687 676 
Q 2984 1134 2994 2091 
z
M 1978 4441 
Q 1534 4441 1298 4117 
Q 1063 3794 1063 3188 
Q 1063 2581 1298 2256 
Q 1534 1931 1978 1931 
Q 2422 1931 2658 2245 
Q 2894 2559 2894 3150 
Q 2894 3772 2656 4106 
Q 2419 4441 1978 4441 
z
" transform="scale(0.015625)"/>
       </defs>
       <use xlink:href="#DejaVuSerif-30"/>
       <use xlink:href="#DejaVuSerif-2e" transform="translate(63.623047 0)"/>
       <use xlink:href="#DejaVuSerif-39" transform="translate(95.410156 0)"/>
      </g>
     </g>
    </g>
    <g id="ytick_7">
     <g id="line2d_25">
      <path d="M 54.01375 55.402768 
L 694.63625 55.402768 
" clip-path="url(#pec62ce3152)" style="fill: none; stroke-dasharray: 2.96,1.28; stroke-dashoffset: 0; stroke: #b0b0b0; stroke-opacity: 0.45; stroke-width: 0.8"/>
     </g>
     <g id="line2d_26">
      <g>
       <use xlink:href="#m12ba9a5226" x="54.01375" y="55.402768" style="stroke: #000000; stroke-width: 0.8"/>
      </g>
     </g>
     <g id="text_14">
      <!-- 1.0 -->
      <g transform="translate(24.749375 60.721674) scale(0.14 -0.14)">
       <use xlink:href="#DejaVuSerif-31"/>
       <use xlink:href="#DejaVuSerif-2e" transform="translate(63.623047 0)"/>
       <use xlink:href="#DejaVuSerif-30" transform="translate(95.410156 0)"/>
      </g>
     </g>
    </g>
    <g id="text_15">
     <!-- $V$ (V) -->
     <g transform="translate(17.837813 233.97825) rotate(-90) scale(0.14 -0.14)">
      <defs>
       <path id="Cmmi10-56" d="M 1409 -72 
L 897 4006 
Q 850 4147 416 4147 
Q 353 4147 353 4231 
Q 366 4300 384 4336 
Q 403 4372 459 4372 
L 2022 4372 
Q 2056 4372 2072 4347 
Q 2088 4322 2088 4288 
Q 2063 4147 2003 4147 
Q 1503 4147 1472 3975 
L 1894 628 
L 3866 3775 
Q 3922 3881 3922 3944 
Q 3922 4056 3820 4101 
Q 3719 4147 3584 4147 
Q 3519 4147 3519 4231 
Q 3531 4281 3540 4309 
Q 3550 4338 3569 4355 
Q 3588 4372 3628 4372 
L 4863 4372 
Q 4922 4372 4922 4288 
Q 4897 4147 4838 4147 
Q 4356 4147 4084 3725 
Q 4072 3713 4063 3713 
L 1703 -72 
Q 1656 -141 1581 -141 
L 1491 -141 
Q 1419 -141 1409 -72 
z
" transform="scale(0.015625)"/>
       <path id="DejaVuSerif-56" d="M 1119 4331 
L 2497 750 
L 3872 4331 
L 3347 4331 
L 3347 4666 
L 4716 4666 
L 4716 4331 
L 4263 4331 
L 2597 0 
L 2059 0 
L 403 4331 
L -63 4331 
L -63 4666 
L 1638 4666 
L 1638 4331 
L 1119 4331 
z
" transform="scale(0.015625)"/>
      </defs>
      <use xlink:href="#Cmmi10-56" transform="translate(0 0.015625)"/>
      <use xlink:href="#DejaVuSerif-20" transform="translate(58.300781 0.015625)"/>
      <use xlink:href="#DejaVuSerif-28" transform="translate(90.087891 0.015625)"/>
      <use xlink:href="#DejaVuSerif-56" transform="translate(129.101562 0.015625)"/>
      <use xlink:href="#DejaVuSerif-29" transform="translate(201.318359 0.015625)"/>
     </g>
    </g>
   </g>
   <g id="line2d_27">
    <path d="M 83.132955 176.242964 
L 92.833144 173.827563 
L 98.074601 172.75538 
L 102.617197 172.047654 
L 106.810362 171.616125 
L 110.887051 171.422456 
L 114.847263 171.456641 
L 118.923951 171.719037 
L 123.117117 172.216054 
L 127.659713 172.984947 
L 132.901169 174.110473 
L 140.006255 175.887344 
L 151.18803 178.684624 
L 156.429487 179.751508 
L 160.972083 180.453275 
L 165.165248 180.878499 
L 169.241937 181.065612 
L 173.202149 181.024955 
L 177.278837 180.756106 
L 181.472003 180.252997 
L 186.014599 179.478483 
L 191.256055 178.348159 
L 198.477618 176.537981 
L 209.426439 173.801304 
L 214.667896 172.73442 
L 219.210492 172.032653 
L 223.403657 171.607429 
L 227.480346 171.420316 
L 231.440558 171.460973 
L 235.517246 171.729822 
L 239.710412 172.232931 
L 244.253008 173.007446 
L 249.494464 174.137769 
L 256.716027 175.947947 
L 267.664848 178.684624 
L 272.906305 179.751508 
L 277.448901 180.453275 
L 281.642066 180.878499 
L 285.718755 181.065612 
L 289.678967 181.024955 
L 293.755655 180.756106 
L 297.948821 180.252997 
L 302.491417 179.478483 
L 307.732874 178.348159 
L 314.954436 176.537981 
L 325.903257 173.801304 
L 331.144714 172.73442 
L 335.68731 172.032653 
L 339.880475 171.607429 
L 343.957164 171.420316 
L 347.917376 171.460973 
L 351.994064 171.729822 
L 356.18723 172.232931 
L 360.729826 173.007446 
L 365.971283 174.137769 
L 373.192845 175.947947 
L 384.141666 178.684624 
L 389.383123 179.751508 
L 393.925719 180.453275 
L 398.118884 180.878499 
L 402.195573 181.065612 
L 406.155785 181.024955 
L 410.232474 180.756106 
L 414.425639 180.252997 
L 418.968235 179.478483 
L 424.209692 178.348159 
L 431.431254 176.537981 
L 442.380075 173.801304 
L 447.621532 172.73442 
L 452.164128 172.032653 
L 456.357294 171.607429 
L 460.433982 171.420316 
L 464.394194 171.460973 
L 468.470883 171.729822 
L 472.664048 172.232931 
L 477.206644 173.007446 
L 482.448101 174.137769 
L 489.669664 175.947947 
L 500.618484 178.684624 
L 505.859941 179.751508 
L 510.402537 180.453275 
L 514.595703 180.878499 
L 518.672391 181.065612 
L 522.632603 181.024955 
L 526.709292 180.756106 
L 530.902457 180.252997 
L 535.445053 179.478483 
L 540.68651 178.348159 
L 547.908073 176.537981 
L 558.856894 173.801304 
L 564.09835 172.73442 
L 568.640946 172.032653 
L 572.834112 171.607429 
L 576.9108 171.420316 
L 580.871012 171.460973 
L 584.947701 171.729822 
L 589.140866 172.232931 
L 593.683462 173.007446 
L 598.924919 174.137769 
L 606.146482 175.947947 
L 617.095303 178.684624 
L 622.336759 179.751508 
L 626.879355 180.453275 
L 631.072521 180.878499 
L 635.149209 181.065612 
L 639.109421 181.024955 
L 643.18611 180.756106 
L 647.379275 180.252997 
L 651.921871 179.478483 
L 657.163328 178.348159 
L 664.384891 176.537981 
L 665.517045 176.242964 
L 665.517045 176.242964 
" clip-path="url(#pec62ce3152)" style="fill: none; stroke: #0c5da5; stroke-width: 2.4; stroke-linecap: square"/>
   </g>
   <g id="line2d_28">
    <path d="M 83.132955 275.885844 
L 83.151591 276.004314 
L 85.728058 299.396156 
L 87.47521 313.031041 
L 89.105886 323.988907 
L 90.620084 332.676382 
L 92.134283 340.060957 
L 93.648482 346.311332 
L 95.16268 351.598986 
L 96.676879 356.076439 
L 98.191078 359.869791 
L 99.705276 363.079877 
L 101.219475 365.782979 
L 102.733674 368.041063 
L 104.247872 369.899582 
L 105.645594 371.290889 
L 107.043316 372.392431 
L 108.441038 373.219792 
L 109.838759 373.784166 
L 111.120004 374.076858 
L 112.401249 374.157959 
L 113.682494 374.028355 
L 114.963739 373.686667 
L 116.244984 373.129169 
L 117.642706 372.26762 
L 119.040428 371.130214 
L 120.43815 369.700774 
L 121.835872 367.957784 
L 123.233594 365.873199 
L 124.631315 363.410881 
L 126.029037 360.524563 
L 127.426759 357.155393 
L 128.824481 353.22904 
L 130.222203 348.653059 
L 131.619924 343.315515 
L 133.017646 337.087295 
L 134.415368 329.831613 
L 135.81309 321.423744 
L 137.327289 310.918781 
L 138.957964 297.966388 
L 140.821593 281.23374 
L 143.034653 259.161125 
L 145.946573 227.694554 
L 152.702229 153.858937 
L 155.031765 131.204064 
L 157.011871 114.03272 
L 158.759023 100.735673 
L 160.389699 90.013454 
L 161.903897 81.557037 
L 163.301619 75.036658 
L 164.582864 70.127243 
L 165.747632 66.533332 
L 166.795924 63.990854 
L 167.727738 62.271186 
L 168.543076 61.177542 
L 169.358414 60.463494 
L 170.057274 60.15158 
L 170.639659 60.102541 
L 171.222043 60.245098 
L 171.920904 60.669494 
L 172.619764 61.371343 
L 173.435102 62.543268 
L 174.25044 64.099469 
L 175.182254 66.355123 
L 176.230546 69.510972 
L 177.395314 73.800068 
L 178.676559 79.489684 
L 179.957804 86.211446 
L 181.355526 94.728126 
L 182.869724 105.332073 
L 184.616877 119.276366 
L 186.480506 135.999708 
L 188.693565 157.951567 
L 191.605486 189.272555 
L 198.827049 268.051859 
L 201.040108 289.268857 
L 202.903737 305.081778 
L 204.534413 317.141018 
L 206.048611 326.809713 
L 207.56281 335.079896 
L 209.077009 342.096777 
L 210.591207 348.033273 
L 212.105406 353.056568 
L 213.619604 357.311353 
L 215.133803 360.915492 
L 216.648002 363.96195 
L 218.1622 366.522851 
L 219.676399 368.653654 
L 221.190598 370.396713 
L 222.588319 371.689397 
L 223.986041 372.698112 
L 225.383763 373.436699 
L 226.781485 373.915227 
L 228.06273 374.130733 
L 229.343975 374.135234 
L 230.62522 373.928787 
L 231.906465 373.509162 
L 233.304187 372.802926 
L 234.701909 371.828044 
L 236.09963 370.571205 
L 237.497352 369.014079 
L 238.895074 367.13259 
L 240.292796 364.895554 
L 241.806994 362.024075 
L 243.204716 358.904588 
L 244.602438 355.26719 
L 246.00016 351.028794 
L 247.397882 346.087216 
L 248.795604 340.321286 
L 250.193325 333.59627 
L 251.591047 325.778276 
L 253.105246 315.950995 
L 254.619444 304.651157 
L 256.366597 289.84036 
L 258.346703 271.037313 
L 260.792716 245.56454 
L 264.985881 199.082775 
L 268.829616 157.447968 
L 271.275629 133.358825 
L 273.255735 115.94125 
L 275.002888 102.402392 
L 276.633563 91.443146 
L 278.147762 82.763975 
L 279.545484 76.038008 
L 280.826729 70.945045 
L 281.991497 67.186854 
L 283.039788 64.499691 
L 283.971603 62.653887 
L 284.78694 61.451134 
L 285.602278 60.628959 
L 286.301139 60.224853 
L 287 60.097023 
L 287.582384 60.201255 
L 288.281245 60.579534 
L 288.980106 61.234992 
L 289.795444 62.352433 
L 290.610781 63.853583 
L 291.542596 66.044927 
L 292.590887 69.127343 
L 293.755655 73.333624 
L 294.920424 78.378844 
L 296.201669 84.912075 
L 297.59939 93.2231 
L 299.113589 103.609073 
L 300.744264 116.346886 
L 302.607894 132.729905 
L 304.704476 153.16777 
L 307.383443 181.579651 
L 316.119204 276.139717 
L 318.215787 295.440195 
L 319.962939 309.585095 
L 321.593615 321.032024 
L 323.107814 330.149232 
L 324.622012 337.917754 
L 326.136211 344.498395 
L 327.650409 350.064894 
L 329.164608 354.776946 
L 330.678807 358.768972 
L 332.193005 362.148851 
L 333.707204 365.001019 
L 335.221403 367.391054 
L 336.735601 369.367996 
L 338.2498 370.970942 
L 339.647522 372.143368 
L 341.045244 373.037977 
L 342.442965 373.667284 
L 343.840687 374.039437 
L 345.121932 374.158881 
L 346.403177 374.067624 
L 347.684422 373.764701 
L 348.965667 373.24682 
L 350.363389 372.43 
L 351.761111 371.339564 
L 353.158833 369.960134 
L 354.556554 368.271165 
L 355.954276 366.245772 
L 357.351998 363.84932 
L 358.74972 361.038104 
L 360.263919 357.456341 
L 361.66164 353.579645 
L 363.059362 349.061807 
L 364.457084 343.792458 
L 365.854806 337.643681 
L 367.252528 330.478722 
L 368.650249 322.170848 
L 370.164448 311.779391 
L 371.795124 298.946266 
L 373.658753 282.334265 
L 375.871812 260.371602 
L 378.783733 228.985723 
L 385.772342 152.672564 
L 388.101878 130.137096 
L 390.081984 113.090048 
L 391.829136 99.91482 
L 393.459812 89.311542 
L 394.97401 80.966697 
L 396.371732 74.548499 
L 397.652977 69.731174 
L 398.817745 66.218502 
L 399.866037 63.748128 
L 400.797851 62.091577 
L 401.613189 61.05234 
L 402.31205 60.463494 
L 403.010911 60.15158 
L 403.593295 60.102541 
L 404.175679 60.245098 
L 404.87454 60.669494 
L 405.573401 61.371338 
L 406.388739 62.543348 
L 407.204076 64.099469 
L 408.135891 66.355123 
L 409.184182 69.510972 
L 410.34895 73.800068 
L 411.630195 79.489684 
L 412.91144 86.211446 
L 414.309162 94.728126 
L 415.823361 105.332073 
L 417.570513 119.276366 
L 419.434142 135.999708 
L 421.647202 157.951567 
L 424.559122 189.272555 
L 431.780685 268.051859 
L 433.993744 289.268857 
L 435.857374 305.081778 
L 437.488049 317.141018 
L 439.002248 326.809713 
L 440.516446 335.079896 
L 442.030645 342.096777 
L 443.544844 348.033273 
L 445.059042 353.056568 
L 446.573241 357.311353 
L 448.087439 360.915492 
L 449.601638 363.96195 
L 451.115837 366.522851 
L 452.630035 368.653654 
L 454.144234 370.396713 
L 455.541956 371.689397 
L 456.939678 372.698112 
L 458.337399 373.436699 
L 459.735121 373.915227 
L 461.016366 374.130733 
L 462.297611 374.135234 
L 463.578856 373.928787 
L 464.860101 373.509162 
L 466.257823 372.802926 
L 467.655545 371.828044 
L 469.053267 370.571206 
L 470.450989 369.014079 
L 471.84871 367.13259 
L 473.246432 364.895538 
L 474.644154 362.262835 
L 476.041876 359.183309 
L 477.439598 355.591994 
L 478.837319 351.407311 
L 480.235041 346.528714 
L 481.632763 340.836505 
L 483.030485 334.196676 
L 484.428207 326.474448 
L 485.942405 316.759008 
L 487.456604 305.572409 
L 489.203756 290.883304 
L 491.183862 272.194902 
L 493.629875 246.819736 
L 497.590087 202.984594 
L 501.666776 158.653858 
L 504.112789 134.446132 
L 506.092895 116.907494 
L 507.840047 103.248202 
L 509.470723 92.170251 
L 510.984921 83.379534 
L 512.382643 76.551644 
L 513.663888 71.366245 
L 514.828656 67.525598 
L 515.876948 64.76615 
L 516.808762 62.857006 
L 517.740577 61.451134 
L 518.555914 60.628959 
L 519.254775 60.224853 
L 519.953636 60.097023 
L 520.53602 60.201255 
L 521.234881 60.579534 
L 521.933742 61.234992 
L 522.74908 62.352433 
L 523.564418 63.853463 
L 524.496232 66.044927 
L 525.544524 69.127373 
L 526.709292 73.333624 
L 527.87406 78.378844 
L 529.155305 84.912075 
L 530.553027 93.222515 
L 532.067225 103.609073 
L 533.697901 116.346886 
L 535.56153 132.729944 
L 537.658113 153.16777 
L 540.337079 181.579651 
L 549.072841 276.139717 
L 551.169424 295.440195 
L 552.916576 309.585095 
L 554.547251 321.032024 
L 556.06145 330.149232 
L 557.575649 337.917754 
L 559.089847 344.498395 
L 560.604046 350.064894 
L 562.118244 354.776946 
L 563.632443 358.768972 
L 565.146642 362.148851 
L 566.66084 365.001019 
L 568.175039 367.390721 
L 569.689238 369.367995 
L 571.203436 370.970943 
L 572.601158 372.143368 
L 573.99888 373.037977 
L 575.396602 373.667263 
L 576.794324 374.039437 
L 578.075569 374.158881 
L 579.356814 374.067624 
L 580.638059 373.764701 
L 581.919304 373.24682 
L 583.317025 372.43 
L 584.714747 371.339564 
L 586.112469 369.960134 
L 587.510191 368.271165 
L 588.907913 366.245772 
L 590.305634 363.84932 
L 591.703356 361.038104 
L 593.217555 357.456341 
L 594.615277 353.579645 
L 596.012999 349.061807 
L 597.41072 343.792458 
L 598.808442 337.643681 
L 600.206164 330.478722 
L 601.603886 322.170848 
L 603.118084 311.779391 
L 604.74876 298.946266 
L 606.612389 282.334265 
L 608.825449 260.371602 
L 611.737369 228.985723 
L 618.725978 152.672564 
L 621.055514 130.137061 
L 623.03562 113.090048 
L 624.782773 99.91482 
L 626.413448 89.311542 
L 627.927647 80.966697 
L 629.325369 74.548499 
L 630.606614 69.731174 
L 631.771382 66.218502 
L 632.819673 63.748269 
L 633.751488 62.091577 
L 634.566825 61.05234 
L 635.265686 60.463494 
L 635.964547 60.15158 
L 636.546931 60.102541 
L 637.129315 60.245098 
L 637.828176 60.669494 
L 638.527037 61.371338 
L 639.342375 62.543276 
L 640.157713 64.099483 
L 641.089527 66.355123 
L 642.137819 69.510976 
L 643.302587 73.800068 
L 644.583832 79.489684 
L 645.865077 86.211446 
L 647.262799 94.728136 
L 648.776997 105.332073 
L 650.524149 119.276366 
L 652.387779 135.999712 
L 654.600838 157.951567 
L 657.512759 189.272555 
L 664.734321 268.051859 
L 665.517045 275.821867 
L 665.517045 275.821867 
" clip-path="url(#pec62ce3152)" style="fill: none; stroke: #ff6b35; stroke-width: 2; stroke-linecap: square"/>
   </g>
   <g id="line2d_29">
    <path d="M 83.132955 275.850239 
L 83.151591 275.968721 
L 85.728058 299.365387 
L 87.47521 313.003847 
L 89.105886 323.965003 
L 90.620084 332.655281 
L 92.134283 340.042292 
L 93.648482 346.2947 
L 95.16268 351.584011 
L 96.676879 356.062797 
L 98.191078 359.857215 
L 99.705276 363.068154 
L 101.219475 365.771936 
L 102.733674 368.030559 
L 104.247872 369.889504 
L 105.645594 371.281118 
L 107.043316 372.382897 
L 108.441038 373.210432 
L 109.838759 373.774922 
L 111.120004 374.067674 
L 112.401249 374.148792 
L 113.682494 374.019161 
L 114.963739 373.677403 
L 116.244984 373.119789 
L 117.642706 372.25806 
L 119.040428 371.120409 
L 120.43815 369.690653 
L 121.835872 367.947262 
L 123.233594 365.862179 
L 124.631315 363.399245 
L 126.029037 360.512168 
L 127.426759 357.142065 
L 128.824481 353.214563 
L 130.222203 348.637177 
L 131.619924 343.297925 
L 133.017646 337.067661 
L 134.415368 329.809596 
L 135.81309 321.399059 
L 137.327289 310.891015 
L 138.957964 297.935301 
L 140.821593 281.19912 
L 143.034653 259.122884 
L 145.946573 227.65258 
L 152.702229 153.812863 
L 155.031765 131.158083 
L 157.011871 113.987358 
L 158.759023 100.691176 
L 160.389699 89.969942 
L 161.903897 81.514503 
L 163.301619 74.995014 
L 164.582864 70.086351 
L 165.747632 66.493038 
L 166.795924 63.951008 
L 167.727738 62.231655 
L 168.543076 61.138217 
L 169.358414 60.424305 
L 170.057274 60.112452 
L 170.639659 60.063423 
L 171.222043 60.205954 
L 171.920904 60.630267 
L 172.619764 61.331984 
L 173.435102 62.50369 
L 174.25044 64.059608 
L 175.182254 66.314865 
L 176.230546 69.470186 
L 177.395314 73.758614 
L 178.676559 79.447428 
L 179.957804 86.16836 
L 181.355526 94.684157 
L 182.869724 105.287242 
L 184.616877 119.230764 
L 186.480506 135.953644 
L 188.693565 157.905548 
L 191.605486 189.227665 
L 198.827049 268.014934 
L 201.040108 289.235812 
L 202.903737 305.052426 
L 204.534413 317.115018 
L 206.048611 326.786705 
L 207.56281 335.059588 
L 209.077009 342.078781 
L 210.591207 348.01719 
L 212.105406 353.042035 
L 213.619604 357.298065 
L 215.133803 360.903199 
L 216.648002 363.950453 
L 218.1622 366.511988 
L 219.676399 368.643293 
L 221.190598 370.386746 
L 222.588319 371.679713 
L 223.986041 372.688643 
L 225.383763 373.427383 
L 226.781485 373.90601 
L 228.06273 374.12156 
L 229.343975 374.126062 
L 230.62522 373.919573 
L 231.906465 373.499862 
L 233.304187 372.793479 
L 234.701909 371.81839 
L 236.09963 370.561278 
L 237.497352 369.003802 
L 238.895074 367.121874 
L 240.292796 364.884293 
L 241.806994 362.012079 
L 243.204716 358.89175 
L 244.602438 355.253317 
L 246.00016 351.013649 
L 247.397882 346.07052 
L 248.795604 340.302717 
L 250.193325 333.575485 
L 251.591047 325.754955 
L 253.105246 315.924664 
L 254.619444 304.621717 
L 256.366597 289.807459 
L 258.346703 271.000894 
L 260.792716 245.524513 
L 264.985881 199.038483 
L 268.829616 157.401945 
L 271.275629 133.312802 
L 273.255735 115.895792 
L 275.002888 102.357767 
L 276.633563 91.399487 
L 278.147762 82.72129 
L 279.545484 75.996219 
L 280.826729 70.904022 
L 281.991497 67.146448 
L 283.039788 64.459753 
L 283.971603 62.614285 
L 284.78694 61.411757 
L 285.602278 60.58974 
L 286.301139 60.185711 
L 287 60.057906 
L 287.582384 60.162118 
L 288.281245 60.540325 
L 288.980106 61.195659 
L 289.795444 62.312891 
L 290.610781 63.813767 
L 291.542596 66.004723 
L 292.590887 69.08662 
L 293.755655 73.292241 
L 294.920424 78.336737 
L 296.201669 84.86914 
L 297.59939 93.179273 
L 299.113589 103.564366 
L 300.744264 116.301415 
L 302.607894 132.683896 
L 304.704476 153.121685 
L 307.383443 181.534377 
L 316.119204 276.104146 
L 318.215787 295.408499 
L 319.962939 309.55694 
L 321.593615 321.0072 
L 323.107814 330.127304 
L 324.622012 337.898383 
L 326.136211 344.48118 
L 327.650409 350.049447 
L 329.164608 354.762925 
L 330.678807 358.756093 
L 332.193005 362.136886 
L 333.707204 364.989782 
L 335.221403 367.380399 
L 336.735601 369.357798 
L 338.2498 370.961102 
L 339.647522 372.133781 
L 341.045244 373.028579 
L 342.442965 373.658017 
L 343.840687 374.030245 
L 345.121932 374.149714 
L 346.403177 374.058438 
L 347.684422 373.755454 
L 348.965667 373.237465 
L 350.363389 372.420474 
L 351.761111 371.329805 
L 353.158833 369.95007 
L 354.556554 368.260716 
L 355.954276 366.234843 
L 357.351998 363.837796 
L 358.74972 361.025847 
L 360.263919 357.443097 
L 361.66164 353.565273 
L 363.059362 349.046053 
L 364.457084 343.775023 
L 365.854806 337.62423 
L 367.252528 330.456916 
L 368.650249 322.146393 
L 370.164448 311.751864 
L 371.795124 298.915411 
L 373.658753 282.299854 
L 375.871812 260.333534 
L 378.783733 228.943877 
L 385.772342 152.626476 
L 388.101878 130.09114 
L 390.081984 113.044734 
L 391.829136 99.870389 
L 393.459812 89.268104 
L 394.97401 80.924239 
L 396.371732 74.506927 
L 397.652977 69.690346 
L 398.817745 66.178262 
L 399.866037 63.708326 
L 400.797851 62.05208 
L 401.613189 61.013039 
L 402.31205 60.424305 
L 403.010911 60.112452 
L 403.593295 60.063423 
L 404.175679 60.205954 
L 404.87454 60.630267 
L 405.573401 61.33198 
L 406.388739 62.503771 
L 407.204076 64.059608 
L 408.135891 66.314865 
L 409.184182 69.470186 
L 410.34895 73.758614 
L 411.630195 79.447428 
L 412.91144 86.16836 
L 414.309162 94.684157 
L 415.823361 105.287242 
L 417.570513 119.230764 
L 419.434142 135.953644 
L 421.647202 157.905548 
L 424.559122 189.227665 
L 431.780685 268.014934 
L 433.993744 289.235812 
L 435.857374 305.052426 
L 437.488049 317.115018 
L 439.002248 326.786705 
L 440.516446 335.059588 
L 442.030645 342.078781 
L 443.544844 348.01719 
L 445.059042 353.042035 
L 446.573241 357.298065 
L 448.087439 360.903199 
L 449.601638 363.950453 
L 451.115837 366.511988 
L 452.630035 368.643293 
L 454.144234 370.386746 
L 455.541956 371.679713 
L 456.939678 372.688643 
L 458.337399 373.427383 
L 459.735121 373.90601 
L 461.016366 374.12156 
L 462.297611 374.126062 
L 463.578856 373.919573 
L 464.860101 373.499862 
L 466.257823 372.793479 
L 467.655545 371.81839 
L 469.053267 370.561279 
L 470.450989 369.003802 
L 471.84871 367.121874 
L 473.246432 364.884277 
L 474.644154 362.250902 
L 476.041876 359.170548 
L 477.439598 355.578215 
L 478.837319 351.392283 
L 480.235041 346.512159 
L 481.632763 340.818105 
L 483.030485 334.176089 
L 484.428207 326.45135 
L 485.942405 316.732914 
L 487.456604 305.543206 
L 489.203756 290.850625 
L 491.183862 272.158676 
L 493.629875 246.779862 
L 497.590087 202.940563 
L 501.666776 158.607856 
L 504.112789 134.40009 
L 506.092895 116.861991 
L 507.840047 103.203514 
L 509.470723 92.126519 
L 510.984921 83.336773 
L 512.382643 76.509782 
L 513.663888 71.325156 
L 514.828656 67.485135 
L 515.876948 64.726165 
L 516.808762 62.817366 
L 517.740577 61.411757 
L 518.555914 60.58974 
L 519.254775 60.185711 
L 519.953636 60.057906 
L 520.53602 60.162118 
L 521.234881 60.540325 
L 521.933742 61.195659 
L 522.74908 62.312891 
L 523.564418 63.813647 
L 524.496232 66.004723 
L 525.544524 69.08665 
L 526.709292 73.292241 
L 527.87406 78.336737 
L 529.155305 84.86914 
L 530.553027 93.178687 
L 532.067225 103.564366 
L 533.697901 116.301415 
L 535.56153 132.683934 
L 537.658113 153.121685 
L 540.337079 181.534377 
L 549.072841 276.104146 
L 551.169424 295.408499 
L 552.916576 309.55694 
L 554.547251 321.0072 
L 556.06145 330.127304 
L 557.575649 337.898383 
L 559.089847 344.48118 
L 560.604046 350.049447 
L 562.118244 354.762925 
L 563.632443 358.756093 
L 565.146642 362.136886 
L 566.66084 364.989782 
L 568.175039 367.380065 
L 569.689238 369.357798 
L 571.203436 370.961103 
L 572.601158 372.133781 
L 573.99888 373.028579 
L 575.396602 373.657995 
L 576.794324 374.030245 
L 578.075569 374.149714 
L 579.356814 374.058438 
L 580.638059 373.755454 
L 581.919304 373.237465 
L 583.317025 372.420474 
L 584.714747 371.329805 
L 586.112469 369.95007 
L 587.510191 368.260716 
L 588.907913 366.234843 
L 590.305634 363.837796 
L 591.703356 361.025847 
L 593.217555 357.443097 
L 594.615277 353.565273 
L 596.012999 349.046053 
L 597.41072 343.775023 
L 598.808442 337.62423 
L 600.206164 330.456916 
L 601.603886 322.146393 
L 603.118084 311.751864 
L 604.74876 298.915411 
L 606.612389 282.299854 
L 608.825449 260.333534 
L 611.737369 228.943877 
L 618.725978 152.626476 
L 621.055514 130.091104 
L 623.03562 113.044734 
L 624.782773 99.870389 
L 626.413448 89.268104 
L 627.927647 80.924239 
L 629.325369 74.506927 
L 630.606614 69.690346 
L 631.771382 66.178262 
L 632.819673 63.708466 
L 633.751488 62.05208 
L 634.566825 61.013039 
L 635.265686 60.424305 
L 635.964547 60.112452 
L 636.546931 60.063423 
L 637.129315 60.205954 
L 637.828176 60.630267 
L 638.527037 61.33198 
L 639.342375 62.503699 
L 640.157713 64.059622 
L 641.089527 66.314865 
L 642.137819 69.47019 
L 643.302587 73.758614 
L 644.583832 79.447428 
L 645.865077 86.16836 
L 647.262799 94.684166 
L 648.776997 105.287242 
L 650.524149 119.230764 
L 652.387779 135.953649 
L 654.600838 157.905548 
L 657.512759 189.227665 
L 664.734321 268.014934 
L 665.517045 275.78624 
L 665.517045 275.78624 
" clip-path="url(#pec62ce3152)" style="fill: none; stroke-dasharray: 7.4,3.2; stroke-dashoffset: 0; stroke: #2f855a; stroke-width: 2"/>
   </g>
   <g id="line2d_30">
    <path d="M 83.132955 275.849515 
L 83.151591 275.967997 
L 85.728058 299.364761 
L 87.47521 313.003294 
L 89.105886 323.964517 
L 90.620084 332.654853 
L 92.134283 340.041913 
L 93.648482 346.294364 
L 95.16268 351.583708 
L 96.676879 356.062521 
L 98.191078 359.856962 
L 99.705276 363.067918 
L 101.219475 365.771714 
L 102.733674 368.030348 
L 104.247872 369.889302 
L 105.645594 371.280922 
L 107.043316 372.382706 
L 108.441038 373.210244 
L 109.838759 373.774737 
L 111.120004 374.06749 
L 112.401249 374.148608 
L 113.682494 374.018977 
L 114.963739 373.677218 
L 116.244984 373.119602 
L 117.642706 372.257868 
L 119.040428 371.120212 
L 120.43815 369.69045 
L 121.835872 367.947051 
L 123.233594 365.861958 
L 124.631315 363.39901 
L 126.029037 360.511918 
L 127.426759 357.141795 
L 128.824481 353.21427 
L 130.222203 348.636855 
L 131.619924 343.297568 
L 133.017646 337.067262 
L 134.415368 329.809149 
L 135.81309 321.398557 
L 137.327289 310.89045 
L 138.957964 297.934669 
L 140.821593 281.198416 
L 143.034653 259.122106 
L 145.946573 227.651727 
L 152.702229 153.811927 
L 155.031765 131.15715 
L 157.011871 113.986437 
L 158.759023 100.690273 
L 160.389699 89.96906 
L 161.903897 81.513641 
L 163.301619 74.99417 
L 164.582864 70.085522 
L 165.747632 66.492222 
L 166.795924 63.9502 
L 167.727738 62.230854 
L 168.543076 61.13742 
L 169.358414 60.423512 
L 170.057274 60.11166 
L 170.639659 60.062631 
L 171.222043 60.205161 
L 171.920904 60.629473 
L 172.619764 61.331186 
L 173.435102 62.502888 
L 174.25044 64.058801 
L 175.182254 66.314049 
L 176.230546 69.46936 
L 177.395314 73.757774 
L 178.676559 79.446572 
L 179.957804 86.167486 
L 181.355526 94.683265 
L 182.869724 105.286333 
L 184.616877 119.229838 
L 186.480506 135.95271 
L 188.693565 157.904614 
L 191.605486 189.226754 
L 198.827049 268.014183 
L 201.040108 289.23514 
L 202.903737 305.051829 
L 204.534413 317.114489 
L 206.048611 326.786237 
L 207.56281 335.059175 
L 209.077009 342.078416 
L 210.591207 348.016864 
L 212.105406 353.041741 
L 213.619604 357.297796 
L 215.133803 360.902951 
L 216.648002 363.950221 
L 218.1622 366.511769 
L 219.676399 368.643085 
L 221.190598 370.386546 
L 222.588319 371.679518 
L 223.986041 372.688453 
L 225.383763 373.427197 
L 226.781485 373.905826 
L 228.06273 374.121377 
L 229.343975 374.125878 
L 230.62522 373.919388 
L 231.906465 373.499676 
L 233.304187 372.79329 
L 234.701909 371.818196 
L 236.09963 370.561079 
L 237.497352 369.003595 
L 238.895074 367.121659 
L 240.292796 364.884067 
L 241.806994 362.011838 
L 243.204716 358.891491 
L 244.602438 355.253036 
L 246.00016 351.013343 
L 247.397882 346.070182 
L 248.795604 340.30234 
L 250.193325 333.575063 
L 251.591047 325.754481 
L 253.105246 315.924128 
L 254.619444 304.621118 
L 256.366597 289.80679 
L 258.346703 271.000153 
L 260.792716 245.523699 
L 264.985881 199.037583 
L 268.829616 157.40101 
L 271.275629 133.311867 
L 273.255735 115.894869 
L 275.002888 102.356861 
L 276.633563 91.398601 
L 278.147762 82.720425 
L 279.545484 75.995372 
L 280.826729 70.903191 
L 281.991497 67.145629 
L 283.039788 64.458944 
L 283.971603 62.613483 
L 284.78694 61.410959 
L 285.602278 60.588945 
L 286.301139 60.184919 
L 287 60.057114 
L 287.582384 60.161325 
L 288.281245 60.539531 
L 288.980106 61.194862 
L 289.795444 62.31209 
L 290.610781 63.81296 
L 291.542596 66.003908 
L 292.590887 69.085795 
L 293.755655 73.291402 
L 294.920424 78.335884 
L 296.201669 84.86827 
L 297.59939 93.178384 
L 299.113589 103.563458 
L 300.744264 116.300492 
L 302.607894 132.682962 
L 304.704476 153.120749 
L 307.383443 181.533458 
L 316.119204 276.103422 
L 318.215787 295.407855 
L 319.962939 309.556368 
L 321.593615 321.006695 
L 323.107814 330.126858 
L 324.622012 337.897989 
L 326.136211 344.480831 
L 327.650409 350.049134 
L 329.164608 354.762641 
L 330.678807 358.755833 
L 332.193005 362.136644 
L 333.707204 364.989556 
L 335.221403 367.380184 
L 336.735601 369.357593 
L 338.2498 370.960904 
L 339.647522 372.133589 
L 341.045244 373.02839 
L 342.442965 373.657831 
L 343.840687 374.030062 
L 345.121932 374.149531 
L 346.403177 374.058254 
L 347.684422 373.755268 
L 348.965667 373.237278 
L 350.363389 372.420283 
L 351.761111 371.329609 
L 353.158833 369.949868 
L 354.556554 368.260506 
L 355.954276 366.234623 
L 357.351998 363.837564 
L 358.74972 361.025599 
L 360.263919 357.442829 
L 361.66164 353.564982 
L 363.059362 349.045734 
L 364.457084 343.77467 
L 365.854806 337.623835 
L 367.252528 330.456473 
L 368.650249 322.145896 
L 370.164448 311.751305 
L 371.795124 298.914784 
L 373.658753 282.299154 
L 375.871812 260.33276 
L 378.783733 228.943026 
L 385.772342 152.62554 
L 388.101878 130.090207 
L 390.081984 113.043815 
L 391.829136 99.869488 
L 393.459812 89.267224 
L 394.97401 80.923378 
L 396.371732 74.506084 
L 397.652977 69.689518 
L 398.817745 66.177447 
L 399.866037 63.707519 
L 400.797851 62.05128 
L 401.613189 61.012243 
L 402.31205 60.423512 
L 403.010911 60.11166 
L 403.593295 60.062631 
L 404.175679 60.205161 
L 404.87454 60.629473 
L 405.573401 61.331182 
L 406.388739 62.502969 
L 407.204076 64.058801 
L 408.135891 66.314049 
L 409.184182 69.46936 
L 410.34895 73.757774 
L 411.630195 79.446572 
L 412.91144 86.167486 
L 414.309162 94.683265 
L 415.823361 105.286333 
L 417.570513 119.229838 
L 419.434142 135.95271 
L 421.647202 157.904614 
L 424.559122 189.226754 
L 431.780685 268.014183 
L 433.993744 289.23514 
L 435.857374 305.051829 
L 437.488049 317.114489 
L 439.002248 326.786237 
L 440.516446 335.059175 
L 442.030645 342.078416 
L 443.544844 348.016864 
L 445.059042 353.041741 
L 446.573241 357.297796 
L 448.087439 360.902951 
L 449.601638 363.950221 
L 451.115837 366.511769 
L 452.630035 368.643085 
L 454.144234 370.386546 
L 455.541956 371.679518 
L 456.939678 372.688453 
L 458.337399 373.427197 
L 459.735121 373.905826 
L 461.016366 374.121377 
L 462.297611 374.125878 
L 463.578856 373.919388 
L 464.860101 373.499676 
L 466.257823 372.79329 
L 467.655545 371.818196 
L 469.053267 370.56108 
L 470.450989 369.003595 
L 471.84871 367.121659 
L 473.246432 364.884051 
L 474.644154 362.250661 
L 476.041876 359.170291 
L 477.439598 355.577936 
L 478.837319 351.391979 
L 480.235041 346.511824 
L 481.632763 340.817732 
L 483.030485 334.175671 
L 484.428207 326.45088 
L 485.942405 316.732383 
L 487.456604 305.542612 
L 489.203756 290.84996 
L 491.183862 272.157938 
L 493.629875 246.779051 
L 497.590087 202.939669 
L 501.666776 158.606921 
L 504.112789 134.399156 
L 506.092895 116.861068 
L 507.840047 103.202607 
L 509.470723 92.125632 
L 510.984921 83.335907 
L 512.382643 76.508934 
L 513.663888 71.324324 
L 514.828656 67.484315 
L 515.876948 64.725355 
L 516.808762 62.816563 
L 517.740577 61.410959 
L 518.555914 60.588945 
L 519.254775 60.184919 
L 519.953636 60.057114 
L 520.53602 60.161325 
L 521.234881 60.539531 
L 521.933742 61.194862 
L 522.74908 62.31209 
L 523.564418 63.81284 
L 524.496232 66.003908 
L 525.544524 69.085825 
L 526.709292 73.291402 
L 527.87406 78.335884 
L 529.155305 84.86827 
L 530.553027 93.177798 
L 532.067225 103.563458 
L 533.697901 116.300492 
L 535.56153 132.683 
L 537.658113 153.120749 
L 540.337079 181.533458 
L 549.072841 276.103422 
L 551.169424 295.407855 
L 552.916576 309.556368 
L 554.547251 321.006695 
L 556.06145 330.126858 
L 557.575649 337.897989 
L 559.089847 344.480831 
L 560.604046 350.049134 
L 562.118244 354.762641 
L 563.632443 358.755833 
L 565.146642 362.136644 
L 566.66084 364.989556 
L 568.175039 367.379851 
L 569.689238 369.357593 
L 571.203436 370.960906 
L 572.601158 372.133589 
L 573.99888 373.02839 
L 575.396602 373.657809 
L 576.794324 374.030062 
L 578.075569 374.149531 
L 579.356814 374.058254 
L 580.638059 373.755268 
L 581.919304 373.237278 
L 583.317025 372.420283 
L 584.714747 371.329609 
L 586.112469 369.949868 
L 587.510191 368.260506 
L 588.907913 366.234623 
L 590.305634 363.837564 
L 591.703356 361.025599 
L 593.217555 357.442829 
L 594.615277 353.564982 
L 596.012999 349.045734 
L 597.41072 343.77467 
L 598.808442 337.623835 
L 600.206164 330.456473 
L 601.603886 322.145896 
L 603.118084 311.751305 
L 604.74876 298.914784 
L 606.612389 282.299154 
L 608.825449 260.33276 
L 611.737369 228.943026 
L 618.725978 152.62554 
L 621.055514 130.090171 
L 623.03562 113.043815 
L 624.782773 99.869488 
L 626.413448 89.267224 
L 627.927647 80.923378 
L 629.325369 74.506084 
L 630.606614 69.689518 
L 631.771382 66.177447 
L 632.819673 63.70766 
L 633.751488 62.05128 
L 634.566825 61.012243 
L 635.265686 60.423512 
L 635.964547 60.11166 
L 636.546931 60.062631 
L 637.129315 60.205161 
L 637.828176 60.629473 
L 638.527037 61.331182 
L 639.342375 62.502897 
L 640.157713 64.058814 
L 641.089527 66.314049 
L 642.137819 69.469364 
L 643.302587 73.757774 
L 644.583832 79.446572 
L 645.865077 86.167486 
L 647.262799 94.683274 
L 648.776997 105.286333 
L 650.524149 119.229838 
L 652.387779 135.952714 
L 654.600838 157.904614 
L 657.512759 189.226754 
L 664.734321 268.014183 
L 665.517045 275.785515 
L 665.517045 275.785515 
" clip-path="url(#pec62ce3152)" style="fill: none; stroke-dasharray: 12.8,3.2,2,3.2; stroke-dashoffset: 0; stroke: #805ad5; stroke-width: 2"/>
   </g>
   <g id="line2d_31">
    <path d="M 83.132955 275.88622 
L 83.151591 276.004689 
L 85.728058 299.396481 
L 87.47521 313.031329 
L 89.105886 323.989161 
L 90.620084 332.676605 
L 92.134283 340.061155 
L 93.648482 346.311508 
L 95.16268 351.599145 
L 96.676879 356.076584 
L 98.191078 359.869924 
L 99.705276 363.080001 
L 101.219475 365.783096 
L 102.733674 368.041173 
L 104.247872 369.899688 
L 105.645594 371.290992 
L 107.043316 372.392531 
L 108.441038 373.219891 
L 109.838759 373.784263 
L 111.120004 374.076954 
L 112.401249 374.158055 
L 113.682494 374.028452 
L 114.963739 373.686764 
L 116.244984 373.129267 
L 117.642706 372.26772 
L 119.040428 371.130317 
L 120.43815 369.70088 
L 121.835872 367.957895 
L 123.233594 365.873316 
L 124.631315 363.411003 
L 126.029037 360.524694 
L 127.426759 357.155535 
L 128.824481 353.229193 
L 130.222203 348.653227 
L 131.619924 343.315701 
L 133.017646 337.087503 
L 134.415368 329.831846 
L 135.81309 321.424005 
L 137.327289 310.919075 
L 138.957964 297.966716 
L 140.821593 281.234106 
L 143.034653 259.161528 
L 145.946573 227.694996 
L 152.702229 153.85942 
L 155.031765 131.204546 
L 157.011871 114.033196 
L 158.759023 100.736139 
L 160.389699 90.01391 
L 161.903897 81.557482 
L 163.301619 75.037094 
L 164.582864 70.127671 
L 165.747632 66.533754 
L 166.795924 63.991271 
L 167.727738 62.271599 
L 168.543076 61.177953 
L 169.358414 60.463903 
L 170.057274 60.151989 
L 170.639659 60.10295 
L 171.222043 60.245508 
L 171.920904 60.669903 
L 172.619764 61.371754 
L 173.435102 62.543682 
L 174.25044 64.099885 
L 175.182254 66.355543 
L 176.230546 69.511398 
L 177.395314 73.800502 
L 178.676559 79.490126 
L 179.957804 86.211897 
L 181.355526 94.728587 
L 182.869724 105.332542 
L 184.616877 119.276844 
L 186.480506 136.000191 
L 188.693565 157.952051 
L 191.605486 189.273027 
L 198.827049 268.052249 
L 201.040108 289.269206 
L 202.903737 305.082088 
L 204.534413 317.141293 
L 206.048611 326.809956 
L 207.56281 335.080112 
L 209.077009 342.096968 
L 210.591207 348.033443 
L 212.105406 353.056722 
L 213.619604 357.311494 
L 215.133803 360.915622 
L 216.648002 363.962071 
L 218.1622 366.522966 
L 219.676399 368.653763 
L 221.190598 370.396818 
L 222.588319 371.689499 
L 223.986041 372.698212 
L 225.383763 373.436797 
L 226.781485 373.915324 
L 228.06273 374.130829 
L 229.343975 374.13533 
L 230.62522 373.928883 
L 231.906465 373.50926 
L 233.304187 372.803025 
L 234.701909 371.828145 
L 236.09963 370.571309 
L 237.497352 369.014187 
L 238.895074 367.132703 
L 240.292796 364.895673 
L 241.806994 362.024202 
L 243.204716 358.904723 
L 244.602438 355.267337 
L 246.00016 351.028954 
L 247.397882 346.087392 
L 248.795604 340.321483 
L 250.193325 333.596491 
L 251.591047 325.778523 
L 253.105246 315.951274 
L 254.619444 304.651468 
L 256.366597 289.840708 
L 258.346703 271.037698 
L 260.792716 245.564962 
L 264.985881 199.083241 
L 268.829616 157.448451 
L 271.275629 133.359308 
L 273.255735 115.941726 
L 275.002888 102.40286 
L 276.633563 91.443603 
L 278.147762 82.764422 
L 279.545484 76.038446 
L 280.826729 70.945474 
L 281.991497 67.187276 
L 283.039788 64.500108 
L 283.971603 62.654301 
L 284.78694 61.451545 
L 285.602278 60.629369 
L 286.301139 60.225262 
L 287 60.097432 
L 287.582384 60.201664 
L 288.281245 60.579944 
L 288.980106 61.235403 
L 289.795444 62.352846 
L 290.610781 63.854 
L 291.542596 66.045347 
L 292.590887 69.127769 
L 293.755655 73.334058 
L 294.920424 78.379284 
L 296.201669 84.912525 
L 297.59939 93.223559 
L 299.113589 103.609542 
L 300.744264 116.347363 
L 302.607894 132.730388 
L 304.704476 153.168254 
L 307.383443 181.580126 
L 316.119204 276.140092 
L 318.215787 295.44053 
L 319.962939 309.585393 
L 321.593615 321.032287 
L 323.107814 330.149464 
L 324.622012 337.917959 
L 326.136211 344.498577 
L 327.650409 350.065058 
L 329.164608 354.777094 
L 330.678807 358.769108 
L 332.193005 362.148977 
L 333.707204 365.001137 
L 335.221403 367.391167 
L 336.735601 369.368103 
L 338.2498 370.971046 
L 339.647522 372.143469 
L 341.045244 373.038075 
L 342.442965 373.667382 
L 343.840687 374.039534 
L 345.121932 374.158977 
L 346.403177 374.06772 
L 347.684422 373.764798 
L 348.965667 373.246918 
L 350.363389 372.4301 
L 351.761111 371.339666 
L 353.158833 369.960239 
L 354.556554 368.271275 
L 355.954276 366.245888 
L 357.351998 363.849442 
L 358.74972 361.038233 
L 360.263919 357.456481 
L 361.66164 353.579797 
L 363.059362 349.061974 
L 364.457084 343.792643 
L 365.854806 337.643887 
L 367.252528 330.478953 
L 368.650249 322.171107 
L 370.164448 311.779682 
L 371.795124 298.946592 
L 373.658753 282.334628 
L 375.871812 260.372004 
L 378.783733 228.986164 
L 385.772342 152.673048 
L 388.101878 130.137579 
L 390.081984 113.090523 
L 391.829136 99.915286 
L 393.459812 89.311997 
L 394.97401 80.967141 
L 396.371732 74.548934 
L 397.652977 69.731601 
L 398.817745 66.218922 
L 399.866037 63.748544 
L 400.797851 62.09199 
L 401.613189 61.05275 
L 402.31205 60.463903 
L 403.010911 60.151989 
L 403.593295 60.10295 
L 404.175679 60.245508 
L 404.87454 60.669903 
L 405.573401 61.37175 
L 406.388739 62.543762 
L 407.204076 64.099885 
L 408.135891 66.355543 
L 409.184182 69.511398 
L 410.34895 73.800502 
L 411.630195 79.490126 
L 412.91144 86.211897 
L 414.309162 94.728587 
L 415.823361 105.332542 
L 417.570513 119.276844 
L 419.434142 136.000192 
L 421.647202 157.952051 
L 424.559122 189.273027 
L 431.780685 268.052249 
L 433.993744 289.269206 
L 435.857374 305.082088 
L 437.488049 317.141293 
L 439.002248 326.809956 
L 440.516446 335.080112 
L 442.030645 342.096968 
L 443.544844 348.033443 
L 445.059042 353.056722 
L 446.573241 357.311494 
L 448.087439 360.915622 
L 449.601638 363.962071 
L 451.115837 366.522966 
L 452.630035 368.653763 
L 454.144234 370.396818 
L 455.541956 371.689499 
L 456.939678 372.698212 
L 458.337399 373.436797 
L 459.735121 373.915324 
L 461.016366 374.13083 
L 462.297611 374.13533 
L 463.578856 373.928883 
L 464.860101 373.50926 
L 466.257823 372.803025 
L 467.655545 371.828145 
L 469.053267 370.57131 
L 470.450989 369.014187 
L 471.84871 367.132703 
L 473.246432 364.895657 
L 474.644154 362.262961 
L 476.041876 359.183444 
L 477.439598 355.592139 
L 478.837319 351.40747 
L 480.235041 346.528889 
L 481.632763 340.8367 
L 483.030485 334.196894 
L 484.428207 326.474694 
L 485.942405 316.759284 
L 487.456604 305.572718 
L 489.203756 290.883649 
L 491.183862 272.195284 
L 493.629875 246.820157 
L 497.590087 202.985057 
L 501.666776 158.654341 
L 504.112789 134.446615 
L 506.092895 116.907971 
L 507.840047 103.248671 
L 509.470723 92.170709 
L 510.984921 83.379982 
L 512.382643 76.552082 
L 513.663888 71.366675 
L 514.828656 67.526022 
L 515.876948 64.766568 
L 516.808762 62.85742 
L 517.740577 61.451545 
L 518.555914 60.629369 
L 519.254775 60.225262 
L 519.953636 60.097432 
L 520.53602 60.201664 
L 521.234881 60.579944 
L 521.933742 61.235403 
L 522.74908 62.352846 
L 523.564418 63.853879 
L 524.496232 66.045347 
L 525.544524 69.127799 
L 526.709292 73.334058 
L 527.87406 78.379284 
L 529.155305 84.912525 
L 530.553027 93.222974 
L 532.067225 103.609542 
L 533.697901 116.347363 
L 535.56153 132.730426 
L 537.658113 153.168254 
L 540.337079 181.580126 
L 549.072841 276.140092 
L 551.169424 295.44053 
L 552.916576 309.585393 
L 554.547251 321.032287 
L 556.06145 330.149464 
L 557.575649 337.917959 
L 559.089847 344.498577 
L 560.604046 350.065058 
L 562.118244 354.777094 
L 563.632443 358.769108 
L 565.146642 362.148977 
L 566.66084 365.001137 
L 568.175039 367.390833 
L 569.689238 369.368103 
L 571.203436 370.971047 
L 572.601158 372.143469 
L 573.99888 373.038075 
L 575.396602 373.66736 
L 576.794324 374.039534 
L 578.075569 374.158977 
L 579.356814 374.06772 
L 580.638059 373.764798 
L 581.919304 373.246918 
L 583.317025 372.4301 
L 584.714747 371.339666 
L 586.112469 369.960239 
L 587.510191 368.271275 
L 588.907913 366.245888 
L 590.305634 363.849442 
L 591.703356 361.038233 
L 593.217555 357.456481 
L 594.615277 353.579797 
L 596.012999 349.061974 
L 597.41072 343.792643 
L 598.808442 337.643887 
L 600.206164 330.478953 
L 601.603886 322.171107 
L 603.118084 311.779682 
L 604.74876 298.946592 
L 606.612389 282.334628 
L 608.825449 260.372004 
L 611.737369 228.986164 
L 618.725978 152.673048 
L 621.055514 130.137542 
L 623.03562 113.090523 
L 624.782773 99.915286 
L 626.413448 89.311997 
L 627.927647 80.967141 
L 629.325369 74.548934 
L 630.606614 69.731601 
L 631.771382 66.218922 
L 632.819673 63.748684 
L 633.751488 62.09199 
L 634.566825 61.052751 
L 635.265686 60.463903 
L 635.964547 60.151989 
L 636.546931 60.10295 
L 637.129315 60.245508 
L 637.828176 60.669903 
L 638.527037 61.37175 
L 639.342375 62.54369 
L 640.157713 64.099899 
L 641.089527 66.355543 
L 642.137819 69.511402 
L 643.302587 73.800502 
L 644.583832 79.490126 
L 645.865077 86.211897 
L 647.262799 94.728596 
L 648.776997 105.332542 
L 650.524149 119.276844 
L 652.387779 136.000195 
L 654.600838 157.952051 
L 657.512759 189.273027 
L 664.734321 268.052249 
L 665.517045 275.822243 
L 665.517045 275.822243 
" clip-path="url(#pec62ce3152)" style="fill: none; stroke-dasharray: 2,3.3; stroke-dashoffset: 0; stroke: #c05621; stroke-width: 2"/>
   </g>
   <g id="patch_3">
    <path d="M 54.01375 389.8645 
L 54.01375 44.352 
" style="fill: none; stroke: #000000; stroke-width: 0.8; stroke-linejoin: miter; stroke-linecap: square"/>
   </g>
   <g id="patch_4">
    <path d="M 694.63625 389.8645 
L 694.63625 44.352 
" style="fill: none; stroke: #000000; stroke-width: 0.8; stroke-linejoin: miter; stroke-linecap: square"/>
   </g>
   <g id="patch_5">
    <path d="M 54.01375 389.8645 
L 694.63625 389.8645 
" style="fill: none; stroke: #000000; stroke-width: 0.8; stroke-linejoin: miter; stroke-linecap: square"/>
   </g>
   <g id="patch_6">
    <path d="M 54.01375 44.352 
L 694.63625 44.352 
" style="fill: none; stroke: #000000; stroke-width: 0.8; stroke-linejoin: miter; stroke-linecap: square"/>
   </g>
   <g id="legend_1">
    <g id="patch_7">
     <path d="M 63.81375 158.298875 
L 136.75375 158.298875 
Q 139.55375 158.298875 139.55375 155.498875 
L 139.55375 54.152 
Q 139.55375 51.352 136.75375 51.352 
L 63.81375 51.352 
Q 61.01375 51.352 61.01375 54.152 
L 61.01375 155.498875 
Q 61.01375 158.298875 63.81375 158.298875 
z
" style="fill: #ffffff; opacity: 0.8; stroke: #cccccc; stroke-linejoin: miter"/>
    </g>
    <g id="line2d_32">
     <path d="M 66.61375 62.689812 
L 80.61375 62.689812 
L 94.61375 62.689812 
" style="fill: none; stroke: #0c5da5; stroke-width: 2.4; stroke-linecap: square"/>
    </g>
    <g id="text_16">
     <!-- $V_\mathrm{in}$ -->
     <g transform="translate(105.81375 67.589812) scale(0.14 -0.14)">
      <defs>
       <path id="Cmr10-69" d="M 197 0 
L 197 225 
Q 416 225 556 259 
Q 697 294 697 428 
L 697 2175 
Q 697 2422 601 2478 
Q 506 2534 225 2534 
L 225 2759 
L 1147 2828 
L 1147 428 
Q 1147 294 1269 259 
Q 1391 225 1594 225 
L 1594 0 
L 197 0 
z
M 469 3928 
Q 469 4069 575 4175 
Q 681 4281 819 4281 
Q 909 4281 993 4234 
Q 1078 4188 1125 4103 
Q 1172 4019 1172 3928 
Q 1172 3791 1065 3684 
Q 959 3578 819 3578 
Q 681 3578 575 3684 
Q 469 3791 469 3928 
z
" transform="scale(0.015625)"/>
       <path id="Cmr10-6e" d="M 191 0 
L 191 225 
Q 409 225 550 259 
Q 691 294 691 428 
L 691 2175 
Q 691 2347 639 2423 
Q 588 2500 491 2517 
Q 394 2534 191 2534 
L 191 2759 
L 1119 2828 
L 1119 2203 
Q 1247 2478 1498 2653 
Q 1750 2828 2047 2828 
Q 2491 2828 2714 2615 
Q 2938 2403 2938 1966 
L 2938 428 
Q 2938 294 3078 259 
Q 3219 225 3438 225 
L 3438 0 
L 1972 0 
L 1972 225 
Q 2191 225 2331 259 
Q 2472 294 2472 428 
L 2472 1947 
Q 2472 2259 2381 2461 
Q 2291 2663 2009 2663 
Q 1638 2663 1398 2366 
Q 1159 2069 1159 1691 
L 1159 428 
Q 1159 294 1300 259 
Q 1441 225 1656 225 
L 1656 0 
L 191 0 
z
" transform="scale(0.015625)"/>
      </defs>
      <use xlink:href="#Cmmi10-56" transform="translate(0 0.6875)"/>
      <use xlink:href="#Cmr10-69" transform="translate(58.300781 -16.31875) scale(0.7)"/>
      <use xlink:href="#Cmr10-6e" transform="translate(77.680664 -16.31875) scale(0.7)"/>
     </g>
    </g>
    <g id="line2d_33">
     <path d="M 66.61375 83.239187 
L 80.61375 83.239187 
L 94.61375 83.239187 
" style="fill: none; stroke: #ff6b35; stroke-width: 2; stroke-linecap: square"/>
    </g>
    <g id="text_17">
     <!-- $V_\mathrm{out1}$ -->
     <g transform="translate(105.81375 88.139187) scale(0.14 -0.14)">
      <defs>
       <path id="Cmr10-6f" d="M 1600 -72 
Q 1216 -72 887 123 
Q 559 319 368 647 
Q 178 975 178 1363 
Q 178 1656 283 1928 
Q 388 2200 583 2414 
Q 778 2628 1037 2748 
Q 1297 2869 1600 2869 
Q 1994 2869 2317 2661 
Q 2641 2453 2828 2104 
Q 3016 1756 3016 1363 
Q 3016 978 2825 648 
Q 2634 319 2307 123 
Q 1981 -72 1600 -72 
z
M 1600 116 
Q 2113 116 2284 487 
Q 2456 859 2456 1434 
Q 2456 1756 2422 1967 
Q 2388 2178 2272 2350 
Q 2200 2456 2089 2536 
Q 1978 2616 1854 2658 
Q 1731 2700 1600 2700 
Q 1400 2700 1220 2609 
Q 1041 2519 922 2350 
Q 803 2169 770 1951 
Q 738 1734 738 1434 
Q 738 1075 800 789 
Q 863 503 1052 309 
Q 1241 116 1600 116 
z
" transform="scale(0.015625)"/>
       <path id="Cmr10-75" d="M 691 763 
L 691 2175 
Q 691 2347 639 2423 
Q 588 2500 491 2517 
Q 394 2534 191 2534 
L 191 2759 
L 1159 2828 
L 1159 763 
Q 1159 513 1195 373 
Q 1231 234 1348 165 
Q 1466 97 1722 97 
Q 2066 97 2269 384 
Q 2472 672 2472 1038 
L 2472 2175 
Q 2472 2347 2419 2423 
Q 2366 2500 2270 2517 
Q 2175 2534 1972 2534 
L 1972 2759 
L 2938 2828 
L 2938 581 
Q 2938 413 2989 336 
Q 3041 259 3137 242 
Q 3234 225 3438 225 
L 3438 0 
L 2491 -72 
L 2491 469 
Q 2372 228 2159 78 
Q 1947 -72 1691 -72 
Q 1231 -72 961 123 
Q 691 319 691 763 
z
" transform="scale(0.015625)"/>
       <path id="Cmr10-74" d="M 653 769 
L 653 2534 
L 122 2534 
L 122 2700 
Q 541 2700 737 3090 
Q 934 3481 934 3938 
L 1119 3938 
L 1119 2759 
L 2022 2759 
L 2022 2534 
L 1119 2534 
L 1119 781 
Q 1119 516 1208 316 
Q 1297 116 1528 116 
Q 1747 116 1844 327 
Q 1941 538 1941 781 
L 1941 1159 
L 2125 1159 
L 2125 769 
Q 2125 569 2051 373 
Q 1978 178 1834 53 
Q 1691 -72 1484 -72 
Q 1100 -72 876 158 
Q 653 388 653 769 
z
" transform="scale(0.015625)"/>
       <path id="Cmr10-31" d="M 594 0 
L 594 225 
Q 1394 225 1394 428 
L 1394 3788 
Q 1063 3628 556 3628 
L 556 3853 
Q 1341 3853 1741 4263 
L 1831 4263 
Q 1853 4263 1873 4245 
Q 1894 4228 1894 4206 
L 1894 428 
Q 1894 225 2694 225 
L 2694 0 
L 594 0 
z
" transform="scale(0.015625)"/>
      </defs>
      <use xlink:href="#Cmmi10-56" transform="translate(0 0.6875)"/>
      <use xlink:href="#Cmr10-6f" transform="translate(58.300781 -16.31875) scale(0.7)"/>
      <use xlink:href="#Cmr10-75" transform="translate(93.300781 -16.31875) scale(0.7)"/>
      <use xlink:href="#Cmr10-74" transform="translate(132.163086 -16.31875) scale(0.7)"/>
      <use xlink:href="#Cmr10-31" transform="translate(159.335938 -16.31875) scale(0.7)"/>
     </g>
    </g>
    <g id="line2d_34">
     <path d="M 66.61375 103.788562 
L 80.61375 103.788562 
L 94.61375 103.788562 
" style="fill: none; stroke-dasharray: 7.4,3.2; stroke-dashoffset: 0; stroke: #2f855a; stroke-width: 2"/>
    </g>
    <g id="text_18">
     <!-- $V_\mathrm{out2}$ -->
     <g transform="translate(105.81375 108.688562) scale(0.14 -0.14)">
      <defs>
       <path id="Cmr10-32" d="M 319 0 
L 319 172 
Q 319 188 331 206 
L 1325 1306 
Q 1550 1550 1690 1715 
Q 1831 1881 1968 2097 
Q 2106 2313 2186 2536 
Q 2266 2759 2266 3009 
Q 2266 3272 2169 3511 
Q 2072 3750 1880 3894 
Q 1688 4038 1416 4038 
Q 1138 4038 916 3870 
Q 694 3703 603 3438 
Q 628 3444 672 3444 
Q 816 3444 917 3347 
Q 1019 3250 1019 3097 
Q 1019 2950 917 2848 
Q 816 2747 672 2747 
Q 522 2747 420 2851 
Q 319 2956 319 3097 
Q 319 3338 409 3548 
Q 500 3759 670 3923 
Q 841 4088 1055 4175 
Q 1269 4263 1509 4263 
Q 1875 4263 2190 4108 
Q 2506 3953 2690 3670 
Q 2875 3388 2875 3009 
Q 2875 2731 2753 2481 
Q 2631 2231 2440 2026 
Q 2250 1822 1953 1562 
Q 1656 1303 1563 1216 
L 838 519 
L 1453 519 
Q 1906 519 2211 526 
Q 2516 534 2534 550 
Q 2609 631 2688 1141 
L 2875 1141 
L 2694 0 
L 319 0 
z
" transform="scale(0.015625)"/>
      </defs>
      <use xlink:href="#Cmmi10-56" transform="translate(0 0.6875)"/>
      <use xlink:href="#Cmr10-6f" transform="translate(58.300781 -16.31875) scale(0.7)"/>
      <use xlink:href="#Cmr10-75" transform="translate(93.300781 -16.31875) scale(0.7)"/>
      <use xlink:href="#Cmr10-74" transform="translate(132.163086 -16.31875) scale(0.7)"/>
      <use xlink:href="#Cmr10-32" transform="translate(159.335938 -16.31875) scale(0.7)"/>
     </g>
    </g>
    <g id="line2d_35">
     <path d="M 66.61375 124.337937 
L 80.61375 124.337937 
L 94.61375 124.337937 
" style="fill: none; stroke-dasharray: 12.8,3.2,2,3.2; stroke-dashoffset: 0; stroke: #805ad5; stroke-width: 2"/>
    </g>
    <g id="text_19">
     <!-- $V_\mathrm{out3}$ -->
     <g transform="translate(105.81375 129.237937) scale(0.14 -0.14)">
      <defs>
       <path id="Cmr10-33" d="M 609 494 
Q 759 275 1012 169 
Q 1266 63 1556 63 
Q 1928 63 2084 380 
Q 2241 697 2241 1100 
Q 2241 1281 2208 1462 
Q 2175 1644 2097 1800 
Q 2019 1956 1883 2050 
Q 1747 2144 1550 2144 
L 1125 2144 
Q 1069 2144 1069 2203 
L 1069 2259 
Q 1069 2309 1125 2309 
L 1478 2338 
Q 1703 2338 1851 2506 
Q 2000 2675 2069 2917 
Q 2138 3159 2138 3378 
Q 2138 3684 1994 3881 
Q 1850 4078 1556 4078 
Q 1313 4078 1091 3986 
Q 869 3894 738 3706 
Q 750 3709 759 3711 
Q 769 3713 781 3713 
Q 925 3713 1022 3613 
Q 1119 3513 1119 3372 
Q 1119 3234 1022 3134 
Q 925 3034 781 3034 
Q 641 3034 541 3134 
Q 441 3234 441 3372 
Q 441 3647 606 3850 
Q 772 4053 1033 4158 
Q 1294 4263 1556 4263 
Q 1750 4263 1965 4205 
Q 2181 4147 2356 4039 
Q 2531 3931 2642 3762 
Q 2753 3594 2753 3378 
Q 2753 3109 2633 2881 
Q 2513 2653 2303 2487 
Q 2094 2322 1844 2241 
Q 2122 2188 2372 2031 
Q 2622 1875 2773 1631 
Q 2925 1388 2925 1106 
Q 2925 753 2731 467 
Q 2538 181 2222 20 
Q 1906 -141 1556 -141 
Q 1256 -141 954 -26 
Q 653 88 461 316 
Q 269 544 269 863 
Q 269 1022 375 1128 
Q 481 1234 641 1234 
Q 744 1234 830 1186 
Q 916 1138 964 1050 
Q 1013 963 1013 863 
Q 1013 706 903 600 
Q 794 494 641 494 
L 609 494 
z
" transform="scale(0.015625)"/>
      </defs>
      <use xlink:href="#Cmmi10-56" transform="translate(0 0.6875)"/>
      <use xlink:href="#Cmr10-6f" transform="translate(58.300781 -16.31875) scale(0.7)"/>
      <use xlink:href="#Cmr10-75" transform="translate(93.300781 -16.31875) scale(0.7)"/>
      <use xlink:href="#Cmr10-74" transform="translate(132.163086 -16.31875) scale(0.7)"/>
      <use xlink:href="#Cmr10-33" transform="translate(159.335938 -16.31875) scale(0.7)"/>
     </g>
    </g>
    <g id="line2d_36">
     <path d="M 66.61375 144.887312 
L 80.61375 144.887312 
L 94.61375 144.887312 
" style="fill: none; stroke-dasharray: 2,3.3; stroke-dashoffset: 0; stroke: #c05621; stroke-width: 2"/>
    </g>
    <g id="text_20">
     <!-- $V_\mathrm{out4}$ -->
     <g transform="translate(105.81375 149.787312) scale(0.14 -0.14)">
      <defs>
       <path id="Cmr10-34" d="M 178 1056 
L 178 1281 
L 2156 4231 
Q 2178 4263 2222 4263 
L 2316 4263 
Q 2388 4263 2388 4191 
L 2388 1281 
L 3016 1281 
L 3016 1056 
L 2388 1056 
L 2388 428 
Q 2388 297 2575 261 
Q 2763 225 3009 225 
L 3009 0 
L 1247 0 
L 1247 225 
Q 1494 225 1681 261 
Q 1869 297 1869 428 
L 1869 1056 
L 178 1056 
z
M 391 1281 
L 1906 1281 
L 1906 3547 
L 391 1281 
z
" transform="scale(0.015625)"/>
      </defs>
      <use xlink:href="#Cmmi10-56" transform="translate(0 0.6875)"/>
      <use xlink:href="#Cmr10-6f" transform="translate(58.300781 -16.31875) scale(0.7)"/>
      <use xlink:href="#Cmr10-75" transform="translate(93.300781 -16.31875) scale(0.7)"/>
      <use xlink:href="#Cmr10-74" transform="translate(132.163086 -16.31875) scale(0.7)"/>
      <use xlink:href="#Cmr10-34" transform="translate(159.335938 -16.31875) scale(0.7)"/>
     </g>
    </g>
   </g>
  </g>
  <g id="text_21">
   <!-- Inverter Top - Transient Response -->
   <g transform="translate(204.5045 19.965375) scale(0.168 -0.168)">
    <defs>
     <path id="DejaVuSerif-49" d="M 1581 331 
L 2175 331 
L 2175 0 
L 353 0 
L 353 331 
L 947 331 
L 947 4331 
L 353 4331 
L 353 4666 
L 2175 4666 
L 2175 4331 
L 1581 4331 
L 1581 331 
z
" transform="scale(0.015625)"/>
     <path id="DejaVuSerif-6e" d="M 263 0 
L 263 331 
L 781 331 
L 781 2988 
L 231 2988 
L 231 3322 
L 1356 3322 
L 1356 2731 
Q 1516 3069 1770 3241 
Q 2025 3413 2363 3413 
Q 2913 3413 3172 3097 
Q 3431 2781 3431 2113 
L 3431 331 
L 3944 331 
L 3944 0 
L 2356 0 
L 2356 331 
L 2853 331 
L 2853 1931 
Q 2853 2541 2703 2767 
Q 2553 2994 2175 2994 
Q 1775 2994 1565 2701 
Q 1356 2409 1356 1850 
L 1356 331 
L 1856 331 
L 1856 0 
L 263 0 
z
" transform="scale(0.015625)"/>
     <path id="DejaVuSerif-76" d="M 1581 0 
L 359 2988 
L -19 2988 
L -19 3322 
L 1509 3322 
L 1509 2988 
L 978 2988 
L 1913 703 
L 2847 2988 
L 2350 2988 
L 2350 3322 
L 3597 3322 
L 3597 2988 
L 3225 2988 
L 2003 0 
L 1581 0 
z
" transform="scale(0.015625)"/>
     <path id="DejaVuSerif-65" d="M 3469 1600 
L 991 1600 
L 991 1575 
Q 991 903 1244 561 
Q 1497 219 1991 219 
Q 2369 219 2611 417 
Q 2853 616 2950 1006 
L 3413 1006 
Q 3275 459 2904 184 
Q 2534 -91 1931 -91 
Q 1203 -91 761 389 
Q 319 869 319 1663 
Q 319 2450 753 2931 
Q 1188 3413 1894 3413 
Q 2647 3413 3050 2948 
Q 3453 2484 3469 1600 
z
M 2791 1931 
Q 2772 2513 2545 2808 
Q 2319 3103 1894 3103 
Q 1497 3103 1269 2806 
Q 1041 2509 991 1931 
L 2791 1931 
z
" transform="scale(0.015625)"/>
     <path id="DejaVuSerif-72" d="M 3059 3328 
L 3059 2497 
L 2728 2497 
Q 2713 2744 2591 2866 
Q 2469 2988 2234 2988 
Q 1809 2988 1582 2694 
Q 1356 2400 1356 1850 
L 1356 331 
L 2022 331 
L 2022 0 
L 263 0 
L 263 331 
L 781 331 
L 781 2994 
L 231 2994 
L 231 3322 
L 1356 3322 
L 1356 2731 
Q 1525 3078 1790 3245 
Q 2056 3413 2438 3413 
Q 2578 3413 2733 3391 
Q 2888 3369 3059 3328 
z
" transform="scale(0.015625)"/>
     <path id="DejaVuSerif-74" d="M 691 2988 
L 184 2988 
L 184 3322 
L 691 3322 
L 691 4353 
L 1269 4353 
L 1269 3322 
L 2350 3322 
L 2350 2988 
L 1269 2988 
L 1269 878 
Q 1269 456 1350 337 
Q 1431 219 1650 219 
Q 1875 219 1978 351 
Q 2081 484 2088 781 
L 2522 781 
Q 2497 328 2275 118 
Q 2053 -91 1600 -91 
Q 1103 -91 897 129 
Q 691 350 691 878 
L 691 2988 
z
" transform="scale(0.015625)"/>
     <path id="DejaVuSerif-54" d="M 1222 0 
L 1222 331 
L 1819 331 
L 1819 4294 
L 447 4294 
L 447 3566 
L 63 3566 
L 63 4666 
L 4206 4666 
L 4206 3566 
L 3822 3566 
L 3822 4294 
L 2450 4294 
L 2450 331 
L 3047 331 
L 3047 0 
L 1222 0 
z
" transform="scale(0.015625)"/>
     <path id="DejaVuSerif-6f" d="M 1925 219 
Q 2388 219 2623 584 
Q 2859 950 2859 1663 
Q 2859 2375 2623 2739 
Q 2388 3103 1925 3103 
Q 1463 3103 1227 2739 
Q 991 2375 991 1663 
Q 991 950 1228 584 
Q 1466 219 1925 219 
z
M 1925 -91 
Q 1200 -91 759 389 
Q 319 869 319 1663 
Q 319 2456 758 2934 
Q 1197 3413 1925 3413 
Q 2653 3413 3092 2934 
Q 3531 2456 3531 1663 
Q 3531 869 3092 389 
Q 2653 -91 1925 -91 
z
" transform="scale(0.015625)"/>
     <path id="DejaVuSerif-70" d="M 1313 1825 
L 1313 1497 
Q 1313 897 1542 583 
Q 1772 269 2209 269 
Q 2650 269 2876 622 
Q 3103 975 3103 1663 
Q 3103 2353 2876 2703 
Q 2650 3053 2209 3053 
Q 1772 3053 1542 2737 
Q 1313 2422 1313 1825 
z
M 738 2988 
L 184 2988 
L 184 3322 
L 1313 3322 
L 1313 2803 
Q 1481 3116 1742 3264 
Q 2003 3413 2388 3413 
Q 3000 3413 3387 2928 
Q 3775 2444 3775 1663 
Q 3775 881 3387 395 
Q 3000 -91 2388 -91 
Q 2003 -91 1742 57 
Q 1481 206 1313 519 
L 1313 -997 
L 1856 -997 
L 1856 -1331 
L 184 -1331 
L 184 -997 
L 738 -997 
L 738 2988 
z
" transform="scale(0.015625)"/>
     <path id="DejaVuSerif-2d" d="M 281 1959 
L 1881 1959 
L 1881 1472 
L 281 1472 
L 281 1959 
z
" transform="scale(0.015625)"/>
     <path id="DejaVuSerif-61" d="M 2547 1044 
L 2547 1747 
L 1806 1747 
Q 1378 1747 1168 1562 
Q 959 1378 959 997 
Q 959 650 1171 447 
Q 1384 244 1747 244 
Q 2106 244 2326 466 
Q 2547 688 2547 1044 
z
M 3122 2075 
L 3122 331 
L 3634 331 
L 3634 0 
L 2547 0 
L 2547 359 
Q 2356 128 2106 18 
Q 1856 -91 1522 -91 
Q 969 -91 644 203 
Q 319 497 319 997 
Q 319 1513 691 1797 
Q 1063 2081 1741 2081 
L 2547 2081 
L 2547 2309 
Q 2547 2688 2317 2895 
Q 2088 3103 1672 3103 
Q 1328 3103 1125 2947 
Q 922 2791 872 2484 
L 575 2484 
L 575 3156 
Q 875 3284 1158 3348 
Q 1441 3413 1709 3413 
Q 2400 3413 2761 3070 
Q 3122 2728 3122 2075 
z
" transform="scale(0.015625)"/>
     <path id="DejaVuSerif-69" d="M 622 4353 
Q 622 4497 726 4603 
Q 831 4709 978 4709 
Q 1122 4709 1226 4603 
Q 1331 4497 1331 4353 
Q 1331 4206 1228 4103 
Q 1125 4000 978 4000 
Q 831 4000 726 4103 
Q 622 4206 622 4353 
z
M 1356 331 
L 1900 331 
L 1900 0 
L 231 0 
L 231 331 
L 781 331 
L 781 2988 
L 231 2988 
L 231 3322 
L 1356 3322 
L 1356 331 
z
" transform="scale(0.015625)"/>
     <path id="DejaVuSerif-52" d="M 3066 2316 
Q 3284 2256 3442 2114 
Q 3600 1972 3725 1716 
L 4403 331 
L 4972 331 
L 4972 0 
L 3872 0 
L 3144 1484 
Q 2934 1916 2759 2042 
Q 2584 2169 2278 2169 
L 1581 2169 
L 1581 331 
L 2241 331 
L 2241 0 
L 353 0 
L 353 331 
L 947 331 
L 947 4331 
L 353 4331 
L 353 4666 
L 2719 4666 
Q 3400 4666 3770 4341 
Q 4141 4016 4141 3419 
Q 4141 2938 3870 2661 
Q 3600 2384 3066 2316 
z
M 1581 2503 
L 2503 2503 
Q 2975 2503 3200 2726 
Q 3425 2950 3425 3419 
Q 3425 3888 3200 4109 
Q 2975 4331 2503 4331 
L 1581 4331 
L 1581 2503 
z
" transform="scale(0.015625)"/>
    </defs>
    <use xlink:href="#DejaVuSerif-49"/>
    <use xlink:href="#DejaVuSerif-6e" transform="translate(39.501953 0)"/>
    <use xlink:href="#DejaVuSerif-76" transform="translate(103.90625 0)"/>
    <use xlink:href="#DejaVuSerif-65" transform="translate(160.400391 0)"/>
    <use xlink:href="#DejaVuSerif-72" transform="translate(219.580078 0)"/>
    <use xlink:href="#DejaVuSerif-74" transform="translate(267.382812 0)"/>
    <use xlink:href="#DejaVuSerif-65" transform="translate(307.568359 0)"/>
    <use xlink:href="#DejaVuSerif-72" transform="translate(366.748047 0)"/>
    <use xlink:href="#DejaVuSerif-20" transform="translate(414.550781 0)"/>
    <use xlink:href="#DejaVuSerif-54" transform="translate(446.337891 0)"/>
    <use xlink:href="#DejaVuSerif-6f" transform="translate(505.287109 0)"/>
    <use xlink:href="#DejaVuSerif-70" transform="translate(565.492188 0)"/>
    <use xlink:href="#DejaVuSerif-20" transform="translate(629.505859 0)"/>
    <use xlink:href="#DejaVuSerif-2d" transform="translate(661.292969 0)"/>
    <use xlink:href="#DejaVuSerif-20" transform="translate(695.082031 0)"/>
    <use xlink:href="#DejaVuSerif-54" transform="translate(726.869141 0)"/>
    <use xlink:href="#DejaVuSerif-72" transform="translate(793.568359 0)"/>
    <use xlink:href="#DejaVuSerif-61" transform="translate(841.371094 0)"/>
    <use xlink:href="#DejaVuSerif-6e" transform="translate(900.990234 0)"/>
    <use xlink:href="#DejaVuSerif-73" transform="translate(965.394531 0)"/>
    <use xlink:href="#DejaVuSerif-69" transform="translate(1016.712891 0)"/>
    <use xlink:href="#DejaVuSerif-65" transform="translate(1048.695312 0)"/>
    <use xlink:href="#DejaVuSerif-6e" transform="translate(1107.875 0)"/>
    <use xlink:href="#DejaVuSerif-74" transform="translate(1172.279297 0)"/>
    <use xlink:href="#DejaVuSerif-20" transform="translate(1212.464844 0)"/>
    <use xlink:href="#DejaVuSerif-52" transform="translate(1244.251953 0)"/>
    <use xlink:href="#DejaVuSerif-65" transform="translate(1319.544922 0)"/>
    <use xlink:href="#DejaVuSerif-73" transform="translate(1378.724609 0)"/>
    <use xlink:href="#DejaVuSerif-70" transform="translate(1430.042969 0)"/>
    <use xlink:href="#DejaVuSerif-6f" transform="translate(1494.056641 0)"/>
    <use xlink:href="#DejaVuSerif-6e" transform="translate(1554.261719 0)"/>
    <use xlink:href="#DejaVuSerif-73" transform="translate(1618.666016 0)"/>
    <use xlink:href="#DejaVuSerif-65" transform="translate(1669.984375 0)"/>
   </g>
  </g>
 </g>
 <defs>
  <clipPath id="pec62ce3152">
   <rect x="54.01375" y="44.352" width="640.6225" height="345.5125"/>
  </clipPath>
 </defs>
</svg>
