<?xml version="1.0" encoding="utf-8" standalone="no"?>
<!DOCTYPE svg PUBLIC "-//W3C//DTD SVG 1.1//EN"
  "http://www.w3.org/Graphics/SVG/1.1/DTD/svg11.dtd">
<svg xmlns:xlink="http://www.w3.org/1999/xlink" width="224.7984pt" height="445.8384pt" viewBox="0 0 224.7984 445.8384" xmlns="http://www.w3.org/2000/svg" version="1.1">
 <metadata>
  <rdf:RDF xmlns:dc="http://purl.org/dc/elements/1.1/" xmlns:cc="http://creativecommons.org/ns#" xmlns:rdf="http://www.w3.org/1999/02/22-rdf-syntax-ns#">
   <cc:Work>
    <dc:type rdf:resource="http://purl.org/dc/dcmitype/StillImage"/>
    <dc:date>2026-05-18T12:30:18.804281</dc:date>
    <dc:format>image/svg+xml</dc:format>
    <dc:creator>
     <cc:Agent>
      <dc:title>Matplotlib v3.10.7, https://matplotlib.org/</dc:title>
     </cc:Agent>
    </dc:creator>
   </cc:Work>
  </rdf:RDF>
 </metadata>
 <defs>
  <style type="text/css">*{stroke-linejoin: round; stroke-linecap: butt}</style>
 </defs>
 <g id="figure_1">
  <g id="patch_1">
   <path d="M 0 445.8384 
L 224.7984 445.8384 
L 224.7984 0 
L 0 0 
L 0 445.8384 
z
" style="fill: none"/>
  </g>
  <g id="axes_1">
   <g id="line2d_1">
    <path d="M 29.4776 218.352 
L 56.4776 218.352 
L 83.4776 218.352 
" clip-path="url(#p142f9bb980)" style="fill: none; stroke: #000000; stroke-width: 2; stroke-linecap: round"/>
   </g>
   <g id="line2d_2">
    <path d="M 83.4776 218.352 
L 83.4776 191.352 
L 83.4776 164.352 
" clip-path="url(#p142f9bb980)" style="fill: none; stroke: #000000; stroke-width: 2; stroke-linecap: round"/>
   </g>
   <g id="line2d_3">
    <path d="M 83.4776 164.352 
L 92.4776 164.352 
L 101.4776 164.352 
" clip-path="url(#p142f9bb980)" style="fill: none; stroke: #000000; stroke-width: 2; stroke-linecap: round"/>
   </g>
   <g id="line2d_4">
    <path d="M 134.4776 194.352 
L 134.4776 179.352 
L 119.4776 179.352 
L 119.4776 149.352 
L 134.4776 149.352 
L 134.4776 134.352 
" clip-path="url(#p142f9bb980)" style="fill: none; stroke: #000000; stroke-width: 2; stroke-linecap: round"/>
   </g>
   <g id="line2d_5">
    <path d="M 128.4776 149.352 
L 134.4776 149.352 
" clip-path="url(#p142f9bb980)" style="fill: none; stroke: #000000; stroke-width: 2; stroke-linecap: round"/>
   </g>
   <g id="patch_2">
    <path d="M 128.4776 153.852 
L 119.4776 149.352 
L 128.4776 144.852 
z
" clip-path="url(#p142f9bb980)"/>
   </g>
   <g id="line2d_6">
    <path d="M 116.4776 176.352 
L 116.4776 152.352 
" clip-path="url(#p142f9bb980)" style="fill: none; stroke: #000000; stroke-width: 2; stroke-linecap: round"/>
   </g>
   <g id="line2d_7">
    <path d="M 101.4776 164.352 
L 116.4776 164.352 
" clip-path="url(#p142f9bb980)" style="fill: none; stroke: #000000; stroke-width: 2; stroke-linecap: round"/>
   </g>
   <g id="line2d_8">
    <path d="M 134.4776 134.352 
L 134.4776 125.352 
L 134.4776 116.352 
" clip-path="url(#p142f9bb980)" style="fill: none; stroke: #000000; stroke-width: 2; stroke-linecap: round"/>
   </g>
   <g id="line2d_9">
    <path d="M 134.4776 116.352 
L 134.4776 101.352 
L 119.4776 101.352 
L 119.4776 71.352 
L 134.4776 71.352 
L 134.4776 56.352 
" clip-path="url(#p142f9bb980)" style="fill: none; stroke: #000000; stroke-width: 2; stroke-linecap: round"/>
   </g>
   <g id="line2d_10">
    <path d="M 128.4776 71.352 
L 134.4776 71.352 
" clip-path="url(#p142f9bb980)" style="fill: none; stroke: #000000; stroke-width: 2; stroke-linecap: round"/>
   </g>
   <g id="patch_3">
    <path d="M 128.4776 75.852 
L 119.4776 71.352 
L 128.4776 66.852 
z
" clip-path="url(#p142f9bb980)"/>
   </g>
   <g id="line2d_11">
    <path d="M 116.4776 98.352 
L 116.4776 74.352 
" clip-path="url(#p142f9bb980)" style="fill: none; stroke: #000000; stroke-width: 2; stroke-linecap: round"/>
   </g>
   <g id="line2d_12">
    <path d="M 101.4776 86.352 
L 116.4776 86.352 
" clip-path="url(#p142f9bb980)" style="fill: none; stroke: #000000; stroke-width: 2; stroke-linecap: round"/>
   </g>
   <g id="line2d_13">
    <path d="M 134.4776 56.352 
L 134.4776 47.352 
L 134.4776 38.352 
" clip-path="url(#p142f9bb980)" style="fill: none; stroke: #000000; stroke-width: 2; stroke-linecap: round"/>
   </g>
   <g id="line2d_14">
    <path d="M 134.4776 38.352 
L 134.4776 23.952 
" clip-path="url(#p142f9bb980)" style="fill: none; stroke: #000000; stroke-width: 2; stroke-linecap: round"/>
   </g>
   <g id="line2d_15">
    <path d="M 134.4776 23.952 
L 127.7276 23.952 
" clip-path="url(#p142f9bb980)" style="fill: none; stroke: #000000; stroke-width: 2; stroke-linecap: round"/>
   </g>
   <g id="line2d_16">
    <path d="M 134.4776 23.952 
L 141.2276 23.952 
" clip-path="url(#p142f9bb980)" style="fill: none; stroke: #000000; stroke-width: 2; stroke-linecap: round"/>
   </g>
   <g id="line2d_17">
    <path d="M 101.4776 86.352 
L 92.4776 86.352 
L 83.4776 86.352 
" clip-path="url(#p142f9bb980)" style="fill: none; stroke: #000000; stroke-width: 2; stroke-linecap: round"/>
   </g>
   <g id="line2d_18">
    <path d="M 83.4776 86.352 
L 83.4776 68.352 
L 83.4776 50.352 
" clip-path="url(#p142f9bb980)" style="fill: none; stroke: #000000; stroke-width: 2; stroke-linecap: round"/>
   </g>
   <g id="line2d_19">
    <path d="M 83.4776 50.352 
L 108.9776 50.352 
L 134.4776 50.352 
" clip-path="url(#p142f9bb980)" style="fill: none; stroke: #000000; stroke-width: 2; stroke-linecap: round"/>
   </g>
   <g id="line2d_20">
    <path d="M 101.4776 86.352 
L 92.4776 86.352 
L 83.4776 86.352 
" clip-path="url(#p142f9bb980)" style="fill: none; stroke: #000000; stroke-width: 2; stroke-linecap: round"/>
   </g>
   <g id="line2d_21">
    <path d="M 83.4776 86.352 
L 83.4776 104.352 
L 83.4776 122.352 
" clip-path="url(#p142f9bb980)" style="fill: none; stroke: #000000; stroke-width: 2; stroke-linecap: round"/>
   </g>
   <g id="line2d_22">
    <path d="M 83.4776 122.352 
L 108.9776 122.352 
L 134.4776 122.352 
" clip-path="url(#p142f9bb980)" style="fill: none; stroke: #000000; stroke-width: 2; stroke-linecap: round"/>
   </g>
   <g id="line2d_23">
    <path d="M 134.4776 194.352 
L 134.4776 206.352 
L 134.4776 218.352 
" clip-path="url(#p142f9bb980)" style="fill: none; stroke: #000000; stroke-width: 2; stroke-linecap: round"/>
   </g>
   <g id="line2d_24">
    <path d="M 134.4776 218.352 
L 161.4776 218.352 
L 188.4776 218.352 
" clip-path="url(#p142f9bb980)" style="fill: none; stroke: #000000; stroke-width: 2; stroke-linecap: round"/>
   </g>
   <g id="line2d_25">
    <path d="M 83.4776 218.352 
L 83.4776 245.352 
L 83.4776 272.352 
" clip-path="url(#p142f9bb980)" style="fill: none; stroke: #000000; stroke-width: 2; stroke-linecap: round"/>
   </g>
   <g id="line2d_26">
    <path d="M 83.4776 272.352 
L 92.4776 272.352 
L 101.4776 272.352 
" clip-path="url(#p142f9bb980)" style="fill: none; stroke: #000000; stroke-width: 2; stroke-linecap: round"/>
   </g>
   <g id="line2d_27">
    <path d="M 134.4776 302.352 
L 134.4776 287.352 
L 119.4776 287.352 
L 119.4776 257.352 
L 134.4776 257.352 
L 134.4776 242.352 
" clip-path="url(#p142f9bb980)" style="fill: none; stroke: #000000; stroke-width: 2; stroke-linecap: round"/>
   </g>
   <g id="line2d_28">
    <path d="M 125.4776 287.352 
L 119.4776 287.352 
" clip-path="url(#p142f9bb980)" style="fill: none; stroke: #000000; stroke-width: 2; stroke-linecap: round"/>
   </g>
   <g id="patch_4">
    <path d="M 125.4776 282.852 
L 134.4776 287.352 
L 125.4776 291.852 
z
" clip-path="url(#p142f9bb980)"/>
   </g>
   <g id="line2d_29">
    <path d="M 116.4776 284.352 
L 116.4776 260.352 
" clip-path="url(#p142f9bb980)" style="fill: none; stroke: #000000; stroke-width: 2; stroke-linecap: round"/>
   </g>
   <g id="line2d_30">
    <path d="M 101.4776 272.352 
L 116.4776 272.352 
" clip-path="url(#p142f9bb980)" style="fill: none; stroke: #000000; stroke-width: 2; stroke-linecap: round"/>
   </g>
   <g id="line2d_31">
    <path d="M 134.4776 302.352 
L 134.4776 311.352 
L 134.4776 320.352 
" clip-path="url(#p142f9bb980)" style="fill: none; stroke: #000000; stroke-width: 2; stroke-linecap: round"/>
   </g>
   <g id="line2d_32">
    <path d="M 134.4776 380.352 
L 134.4776 365.352 
L 119.4776 365.352 
L 119.4776 335.352 
L 134.4776 335.352 
L 134.4776 320.352 
" clip-path="url(#p142f9bb980)" style="fill: none; stroke: #000000; stroke-width: 2; stroke-linecap: round"/>
   </g>
   <g id="line2d_33">
    <path d="M 125.4776 365.352 
L 119.4776 365.352 
" clip-path="url(#p142f9bb980)" style="fill: none; stroke: #000000; stroke-width: 2; stroke-linecap: round"/>
   </g>
   <g id="patch_5">
    <path d="M 125.4776 360.852 
L 134.4776 365.352 
L 125.4776 369.852 
z
" clip-path="url(#p142f9bb980)"/>
   </g>
   <g id="line2d_34">
    <path d="M 116.4776 362.352 
L 116.4776 338.352 
" clip-path="url(#p142f9bb980)" style="fill: none; stroke: #000000; stroke-width: 2; stroke-linecap: round"/>
   </g>
   <g id="line2d_35">
    <path d="M 101.4776 350.352 
L 116.4776 350.352 
" clip-path="url(#p142f9bb980)" style="fill: none; stroke: #000000; stroke-width: 2; stroke-linecap: round"/>
   </g>
   <g id="line2d_36">
    <path d="M 134.4776 380.352 
L 134.4776 389.352 
L 134.4776 398.352 
" clip-path="url(#p142f9bb980)" style="fill: none; stroke: #000000; stroke-width: 2; stroke-linecap: round"/>
   </g>
   <g id="line2d_37">
    <path d="M 134.4776 398.352 
L 134.4776 412.752 
L 125.4776 412.752 
L 134.4776 421.752 
L 143.4776 412.752 
L 134.4776 412.752 
" clip-path="url(#p142f9bb980)" style="fill: none; stroke: #000000; stroke-width: 2; stroke-linecap: round"/>
   </g>
   <g id="line2d_38">
    <path d="M 101.4776 350.352 
L 92.4776 350.352 
L 83.4776 350.352 
" clip-path="url(#p142f9bb980)" style="fill: none; stroke: #000000; stroke-width: 2; stroke-linecap: round"/>
   </g>
   <g id="line2d_39">
    <path d="M 83.4776 350.352 
L 83.4776 368.352 
L 83.4776 386.352 
" clip-path="url(#p142f9bb980)" style="fill: none; stroke: #000000; stroke-width: 2; stroke-linecap: round"/>
   </g>
   <g id="line2d_40">
    <path d="M 83.4776 386.352 
L 108.9776 386.352 
L 134.4776 386.352 
" clip-path="url(#p142f9bb980)" style="fill: none; stroke: #000000; stroke-width: 2; stroke-linecap: round"/>
   </g>
   <g id="line2d_41">
    <path d="M 101.4776 350.352 
L 92.4776 350.352 
L 83.4776 350.352 
" clip-path="url(#p142f9bb980)" style="fill: none; stroke: #000000; stroke-width: 2; stroke-linecap: round"/>
   </g>
   <g id="line2d_42">
    <path d="M 83.4776 350.352 
L 83.4776 332.352 
L 83.4776 314.352 
" clip-path="url(#p142f9bb980)" style="fill: none; stroke: #000000; stroke-width: 2; stroke-linecap: round"/>
   </g>
   <g id="line2d_43">
    <path d="M 83.4776 314.352 
L 108.9776 314.352 
L 134.4776 314.352 
" clip-path="url(#p142f9bb980)" style="fill: none; stroke: #000000; stroke-width: 2; stroke-linecap: round"/>
   </g>
   <g id="line2d_44">
    <path d="M 134.4776 242.352 
L 134.4776 230.352 
L 134.4776 218.352 
" clip-path="url(#p142f9bb980)" style="fill: none; stroke: #000000; stroke-width: 2; stroke-linecap: round"/>
   </g>
   <g id="patch_6">
    <path d="M 83.4776 221.052 
C 84.193648 221.052 84.880466 220.767511 85.386788 220.261188 
C 85.893111 219.754866 86.1776 219.068048 86.1776 218.352 
C 86.1776 217.635952 85.893111 216.949134 85.386788 216.442812 
C 84.880466 215.936489 84.193648 215.652 83.4776 215.652 
C 82.761552 215.652 82.074734 215.936489 81.568412 216.442812 
C 81.062089 216.949134 80.7776 217.635952 80.7776 218.352 
C 80.7776 219.068048 81.062089 219.754866 81.568412 220.261188 
C 82.074734 220.767511 82.761552 221.052 83.4776 221.052 
z
" clip-path="url(#p142f9bb980)" style="stroke: #000000; stroke-width: 2; stroke-linejoin: miter"/>
   </g>
   <g id="text_1">
    <!-- $M_{2}$ -->
    <g transform="translate(143.798783 168.337056) scale(0.16 -0.16)">
     <defs>
      <path id="CMMI12-4d" d="M 5811 3886 
C 5869 4102 5882 4166 6336 4166 
C 6458 4166 6515 4166 6515 4287 
C 6515 4352 6470 4352 6349 4352 
L 5581 4352 
C 5421 4352 5414 4345 5344 4243 
L 3008 567 
L 2528 4211 
C 2509 4352 2502 4352 2336 4352 
L 1542 4352 
C 1421 4352 1363 4352 1363 4230 
C 1363 4166 1421 4166 1517 4166 
C 1907 4166 1907 4115 1907 4045 
C 1907 4032 1907 3994 1882 3898 
L 1062 650 
C 986 344 838 204 410 185 
C 390 185 314 179 314 70 
C 314 0 371 0 397 0 
C 525 0 851 12 979 12 
L 1286 12 
C 1376 12 1485 0 1574 0 
C 1619 0 1690 0 1690 121 
C 1690 179 1626 185 1600 185 
C 1389 191 1184 230 1184 459 
C 1184 523 1184 529 1210 618 
L 2093 4128 
L 2099 4128 
L 2630 172 
C 2650 19 2656 0 2714 0 
C 2784 0 2816 51 2848 108 
L 5421 4159 
L 5427 4159 
L 4499 472 
C 4442 249 4429 185 3981 185 
C 3859 185 3795 185 3795 70 
C 3795 0 3853 0 3891 0 
C 4000 0 4128 12 4237 12 
L 4992 12 
C 5101 12 5235 0 5344 0 
C 5395 0 5466 0 5466 121 
C 5466 185 5408 185 5312 185 
C 4922 185 4922 236 4922 300 
C 4922 306 4922 351 4934 402 
L 5811 3886 
z
" transform="scale(0.015625)"/>
      <path id="CMR17-32" d="M 2669 990 
L 2554 990 
C 2490 537 2438 460 2413 422 
C 2381 371 1920 371 1830 371 
L 602 371 
C 832 620 1280 1073 1824 1596 
C 2214 1966 2669 2400 2669 3033 
C 2669 3788 2067 4224 1395 4224 
C 691 4224 262 3603 262 3027 
C 262 2777 448 2745 525 2745 
C 589 2745 781 2783 781 3007 
C 781 3206 614 3264 525 3264 
C 486 3264 448 3257 422 3244 
C 544 3788 915 4057 1306 4057 
C 1862 4057 2227 3616 2227 3033 
C 2227 2477 1901 1998 1536 1583 
L 262 147 
L 262 0 
L 2515 0 
L 2669 990 
z
" transform="scale(0.015625)"/>
     </defs>
     <use xlink:href="#CMMI12-4d" transform="scale(0.996264)"/>
     <use xlink:href="#CMR17-32" transform="translate(94.373425 -14.943915) scale(0.697382)"/>
    </g>
   </g>
   <g id="text_2">
    <!-- $M_\mathrm{dummy2}$ -->
    <g transform="translate(143.224906 89.517916) scale(0.16 -0.16)">
     <defs>
      <path id="CMR17-64" d="M 1869 4345 
L 1869 4179 
C 2246 4179 2304 4141 2304 3843 
L 2304 2371 
C 2278 2403 2016 2816 1498 2816 
C 845 2816 211 2228 211 1376 
C 211 529 806 -64 1434 -64 
C 1978 -64 2259 361 2291 406 
L 2291 -64 
L 3066 -13 
L 3066 154 
C 2688 154 2630 193 2630 503 
L 2630 4416 
L 1869 4345 
z
M 2291 762 
C 2291 568 2176 393 2029 264 
C 1811 70 1594 38 1472 38 
C 1286 38 621 135 621 1369 
C 621 2636 1363 2713 1530 2713 
C 1824 2713 2061 2545 2208 2313 
C 2291 2177 2291 2157 2291 2041 
L 2291 762 
z
" transform="scale(0.015625)"/>
      <path id="CMR17-75" d="M 1882 2745 
L 1882 2579 
C 2259 2579 2317 2540 2317 2229 
L 2317 1053 
C 2317 510 2029 38 1555 38 
C 1030 38 986 355 986 691 
L 986 2816 
L 211 2745 
L 211 2579 
C 467 2579 640 2579 646 2320 
L 646 1079 
C 646 646 646 368 813 187 
C 896 103 1056 -64 1517 -64 
C 2061 -64 2272 400 2323 536 
L 2330 536 
L 2330 -64 
L 3091 -13 
L 3091 154 
C 2714 154 2656 193 2656 503 
L 2656 2816 
L 1882 2745 
z
" transform="scale(0.015625)"/>
      <path id="CMR17-6d" d="M 4326 1954 
C 4326 2276 4269 2816 3507 2816 
C 3072 2816 2771 2520 2656 2173 
L 2650 2173 
C 2573 2700 2195 2816 1837 2816 
C 1331 2816 1069 2424 973 2166 
L 966 2166 
L 966 2816 
L 211 2745 
L 211 2578 
C 589 2578 646 2540 646 2231 
L 646 443 
C 646 198 621 166 211 166 
L 211 0 
C 365 12 646 12 813 12 
C 979 12 1267 12 1421 0 
L 1421 166 
C 1011 166 986 192 986 443 
L 986 1678 
C 986 2269 1344 2713 1792 2713 
C 2266 2713 2317 2289 2317 1980 
L 2317 443 
C 2317 198 2291 166 1882 166 
L 1882 0 
C 2035 12 2317 12 2483 12 
C 2650 12 2938 12 3091 0 
L 3091 166 
C 2682 166 2656 192 2656 443 
L 2656 1678 
C 2656 2269 3014 2713 3462 2713 
C 3936 2713 3987 2289 3987 1980 
L 3987 443 
C 3987 198 3962 166 3552 166 
L 3552 0 
C 3706 12 3987 12 4154 12 
C 4320 12 4608 12 4762 0 
L 4762 166 
C 4352 166 4326 192 4326 443 
L 4326 1954 
z
" transform="scale(0.015625)"/>
      <path id="CMR17-79" d="M 2496 2183 
C 2656 2579 2944 2585 3034 2585 
L 3034 2752 
C 2912 2745 2752 2739 2630 2739 
C 2496 2739 2285 2739 2157 2752 
L 2157 2585 
C 2400 2566 2406 2384 2406 2332 
C 2406 2268 2394 2235 2362 2158 
L 1664 409 
L 902 2300 
C 870 2378 870 2423 870 2430 
C 870 2572 1018 2585 1171 2585 
L 1171 2752 
C 1018 2739 742 2739 582 2739 
C 410 2739 205 2739 64 2752 
L 64 2585 
C 410 2585 448 2553 531 2345 
L 1485 -31 
C 1197 -795 1030 -1242 627 -1242 
C 557 -1242 397 -1223 282 -1106 
C 429 -1093 493 -1002 493 -892 
C 493 -782 416 -685 288 -685 
C 147 -685 77 -782 77 -899 
C 77 -1158 339 -1344 627 -1344 
C 998 -1344 1229 -983 1357 -659 
L 2496 2183 
z
" transform="scale(0.015625)"/>
     </defs>
     <use xlink:href="#CMMI12-4d" transform="scale(0.996264)"/>
     <use xlink:href="#CMR17-64" transform="translate(94.373425 -14.943915) scale(0.697382)"/>
     <use xlink:href="#CMR17-75" transform="translate(130.000033 -14.943915) scale(0.697382)"/>
     <use xlink:href="#CMR17-6d" transform="translate(165.626642 -14.943915) scale(0.697382)"/>
     <use xlink:href="#CMR17-6d" transform="translate(219.470108 -14.943915) scale(0.697382)"/>
     <use xlink:href="#CMR17-79" transform="translate(271.491854 -14.943915) scale(0.697382)"/>
     <use xlink:href="#CMR17-32" transform="translate(305.296742 -14.943915) scale(0.697382)"/>
    </g>
   </g>
   <g id="text_3">
    <!-- $V_\mathrm{DD}$ -->
    <g transform="translate(121.404455 15.452524) scale(0.16 -0.16)">
     <defs>
      <path id="CMMI12-56" d="M 3962 3644 
C 4179 3987 4378 4140 4704 4166 
C 4768 4172 4819 4172 4819 4287 
C 4819 4313 4806 4352 4749 4352 
C 4634 4352 4358 4339 4243 4339 
C 4058 4339 3866 4352 3686 4352 
C 3635 4352 3571 4352 3571 4230 
C 3571 4172 3629 4166 3654 4166 
C 3891 4146 3917 4032 3917 3956 
C 3917 3860 3827 3714 3821 3708 
L 1811 540 
L 1363 3968 
C 1363 4153 1696 4166 1766 4166 
C 1862 4166 1920 4166 1920 4287 
C 1920 4352 1850 4352 1830 4352 
C 1722 4352 1594 4339 1485 4339 
L 1126 4339 
C 659 4339 467 4352 461 4352 
C 422 4352 346 4352 346 4236 
C 346 4166 390 4166 493 4166 
C 819 4166 838 4108 858 3949 
L 1370 25 
C 1389 -109 1389 -128 1478 -128 
C 1555 -128 1587 -109 1651 -7 
L 3962 3644 
z
" transform="scale(0.015625)"/>
      <path id="CMR17-44" d="M 333 4352 
L 333 4185 
C 774 4185 845 4185 845 3898 
L 845 453 
C 845 166 774 166 333 166 
L 333 0 
L 2368 0 
C 3398 0 4224 943 4224 2140 
C 4224 3344 3411 4352 2368 4352 
L 333 4352 
z
M 1523 166 
C 1267 166 1254 198 1254 414 
L 1254 3936 
C 1254 4153 1267 4185 1523 4185 
L 2240 4185 
C 2771 4185 3750 3873 3750 2140 
C 3750 1242 3488 879 3366 707 
C 3213 510 2848 166 2240 166 
L 1523 166 
z
" transform="scale(0.015625)"/>
     </defs>
     <use xlink:href="#CMMI12-56" transform="scale(0.996264)"/>
     <use xlink:href="#CMR17-44" transform="translate(56.869579 -14.943915) scale(0.697382)"/>
     <use xlink:href="#CMR17-44" transform="translate(106.144849 -14.943915) scale(0.697382)"/>
    </g>
   </g>
   <g id="patch_7">
    <path d="M 83.4776 89.052 
C 84.193648 89.052 84.880466 88.767511 85.386788 88.261188 
C 85.893111 87.754866 86.1776 87.068048 86.1776 86.352 
C 86.1776 85.635952 85.893111 84.949134 85.386788 84.442812 
C 84.880466 83.936489 84.193648 83.652 83.4776 83.652 
C 82.761552 83.652 82.074734 83.936489 81.568412 84.442812 
C 81.062089 84.949134 80.7776 85.635952 80.7776 86.352 
C 80.7776 87.068048 81.062089 87.754866 81.568412 88.261188 
C 82.074734 88.767511 82.761552 89.052 83.4776 89.052 
z
" clip-path="url(#p142f9bb980)" style="stroke: #000000; stroke-width: 2; stroke-linejoin: miter"/>
   </g>
   <g id="patch_8">
    <path d="M 134.4776 53.052 
C 135.193648 53.052 135.880466 52.767511 136.386788 52.261188 
C 136.893111 51.754866 137.1776 51.068048 137.1776 50.352 
C 137.1776 49.635952 136.893111 48.949134 136.386788 48.442812 
C 135.880466 47.936489 135.193648 47.652 134.4776 47.652 
C 133.761552 47.652 133.074734 47.936489 132.568412 48.442812 
C 132.062089 48.949134 131.7776 49.635952 131.7776 50.352 
C 131.7776 51.068048 132.062089 51.754866 132.568412 52.261188 
C 133.074734 52.767511 133.761552 53.052 134.4776 53.052 
z
" clip-path="url(#p142f9bb980)" style="stroke: #000000; stroke-width: 2; stroke-linejoin: miter"/>
   </g>
   <g id="patch_9">
    <path d="M 134.4776 125.052 
C 135.193648 125.052 135.880466 124.767511 136.386788 124.261188 
C 136.893111 123.754866 137.1776 123.068048 137.1776 122.352 
C 137.1776 121.635952 136.893111 120.949134 136.386788 120.442812 
C 135.880466 119.936489 135.193648 119.652 134.4776 119.652 
C 133.761552 119.652 133.074734 119.936489 132.568412 120.442812 
C 132.062089 120.949134 131.7776 121.635952 131.7776 122.352 
C 131.7776 123.068048 132.062089 123.754866 132.568412 124.261188 
C 133.074734 124.767511 133.761552 125.052 134.4776 125.052 
z
" clip-path="url(#p142f9bb980)" style="stroke: #000000; stroke-width: 2; stroke-linejoin: miter"/>
   </g>
   <g id="patch_10">
    <path d="M 134.4776 221.052 
C 135.193648 221.052 135.880466 220.767511 136.386788 220.261188 
C 136.893111 219.754866 137.1776 219.068048 137.1776 218.352 
C 137.1776 217.635952 136.893111 216.949134 136.386788 216.442812 
C 135.880466 215.936489 135.193648 215.652 134.4776 215.652 
C 133.761552 215.652 133.074734 215.936489 132.568412 216.442812 
C 132.062089 216.949134 131.7776 217.635952 131.7776 218.352 
C 131.7776 219.068048 132.062089 219.754866 132.568412 220.261188 
C 133.074734 220.767511 133.761552 221.052 134.4776 221.052 
z
" clip-path="url(#p142f9bb980)" style="stroke: #000000; stroke-width: 2; stroke-linejoin: miter"/>
   </g>
   <g id="text_4">
    <!-- $M_{1}$ -->
    <g transform="translate(143.798783 276.337056) scale(0.16 -0.16)">
     <defs>
      <path id="CMR17-31" d="M 1702 4083 
C 1702 4217 1696 4224 1606 4224 
C 1357 3927 979 3833 621 3820 
C 602 3820 570 3820 563 3808 
C 557 3795 557 3782 557 3648 
C 755 3648 1088 3686 1344 3839 
L 1344 467 
C 1344 243 1331 166 781 166 
L 589 166 
L 589 0 
C 896 6 1216 12 1523 12 
C 1830 12 2150 6 2458 0 
L 2458 166 
L 2266 166 
C 1715 166 1702 236 1702 467 
L 1702 4083 
z
" transform="scale(0.015625)"/>
     </defs>
     <use xlink:href="#CMMI12-4d" transform="scale(0.996264)"/>
     <use xlink:href="#CMR17-31" transform="translate(94.373425 -14.943915) scale(0.697382)"/>
    </g>
   </g>
   <g id="text_5">
    <!-- $M_\mathrm{dummy1}$ -->
    <g transform="translate(143.224906 353.517916) scale(0.16 -0.16)">
     <use xlink:href="#CMMI12-4d" transform="scale(0.996264)"/>
     <use xlink:href="#CMR17-64" transform="translate(94.373425 -14.943915) scale(0.697382)"/>
     <use xlink:href="#CMR17-75" transform="translate(130.000033 -14.943915) scale(0.697382)"/>
     <use xlink:href="#CMR17-6d" transform="translate(165.626642 -14.943915) scale(0.697382)"/>
     <use xlink:href="#CMR17-6d" transform="translate(219.470108 -14.943915) scale(0.697382)"/>
     <use xlink:href="#CMR17-79" transform="translate(271.491854 -14.943915) scale(0.697382)"/>
     <use xlink:href="#CMR17-31" transform="translate(305.296742 -14.943915) scale(0.697382)"/>
    </g>
   </g>
   <g id="text_6">
    <!-- $V_\mathrm{SS}$ -->
    <g transform="translate(123.729066 438.221588) scale(0.16 -0.16)">
     <defs>
      <path id="CMR17-53" d="M 2803 4351 
C 2803 4467 2797 4473 2758 4473 
C 2720 4473 2707 4447 2682 4390 
L 2490 3965 
C 2246 4320 1875 4480 1472 4480 
C 819 4480 294 3958 294 3301 
C 294 3101 339 2817 557 2546 
C 794 2250 1018 2198 1530 2063 
C 1722 2011 2042 1927 2106 1901 
C 2470 1747 2662 1360 2662 999 
C 2662 534 2336 38 1779 38 
C 1094 38 454 425 410 1328 
C 403 1431 397 1437 352 1437 
C 301 1437 294 1431 294 1302 
L 294 0 
C 294 -116 301 -122 339 -122 
C 384 -122 397 -90 486 109 
C 493 128 493 141 614 386 
C 934 -39 1472 -128 1779 -128 
C 2477 -128 2970 457 2970 1141 
C 2970 1476 2848 1734 2778 1850 
C 2509 2263 2221 2340 1914 2417 
C 1869 2437 1856 2437 1498 2527 
C 1152 2617 1005 2662 845 2836 
C 666 3036 602 3243 602 3449 
C 602 3868 934 4326 1478 4326 
C 2157 4326 2579 3842 2675 3036 
C 2694 2920 2701 2914 2746 2914 
C 2803 2914 2803 2933 2803 3043 
L 2803 4351 
z
" transform="scale(0.015625)"/>
     </defs>
     <use xlink:href="#CMMI12-56" transform="scale(0.996264)"/>
     <use xlink:href="#CMR17-53" transform="translate(56.869579 -14.943915) scale(0.697382)"/>
     <use xlink:href="#CMR17-53" transform="translate(92.496187 -14.943915) scale(0.697382)"/>
    </g>
   </g>
   <g id="patch_11">
    <path d="M 83.4776 353.052 
C 84.193648 353.052 84.880466 352.767511 85.386788 352.261188 
C 85.893111 351.754866 86.1776 351.068048 86.1776 350.352 
C 86.1776 349.635952 85.893111 348.949134 85.386788 348.442812 
C 84.880466 347.936489 84.193648 347.652 83.4776 347.652 
C 82.761552 347.652 82.074734 347.936489 81.568412 348.442812 
C 81.062089 348.949134 80.7776 349.635952 80.7776 350.352 
C 80.7776 351.068048 81.062089 351.754866 81.568412 352.261188 
C 82.074734 352.767511 82.761552 353.052 83.4776 353.052 
z
" clip-path="url(#p142f9bb980)" style="stroke: #000000; stroke-width: 2; stroke-linejoin: miter"/>
   </g>
   <g id="patch_12">
    <path d="M 134.4776 389.052 
C 135.193648 389.052 135.880466 388.767511 136.386788 388.261188 
C 136.893111 387.754866 137.1776 387.068048 137.1776 386.352 
C 137.1776 385.635952 136.893111 384.949134 136.386788 384.442812 
C 135.880466 383.936489 135.193648 383.652 134.4776 383.652 
C 133.761552 383.652 133.074734 383.936489 132.568412 384.442812 
C 132.062089 384.949134 131.7776 385.635952 131.7776 386.352 
C 131.7776 387.068048 132.062089 387.754866 132.568412 388.261188 
C 133.074734 388.767511 133.761552 389.052 134.4776 389.052 
z
" clip-path="url(#p142f9bb980)" style="stroke: #000000; stroke-width: 2; stroke-linejoin: miter"/>
   </g>
   <g id="patch_13">
    <path d="M 134.4776 317.052 
C 135.193648 317.052 135.880466 316.767511 136.386788 316.261188 
C 136.893111 315.754866 137.1776 315.068048 137.1776 314.352 
C 137.1776 313.635952 136.893111 312.949134 136.386788 312.442812 
C 135.880466 311.936489 135.193648 311.652 134.4776 311.652 
C 133.761552 311.652 133.074734 311.936489 132.568412 312.442812 
C 132.062089 312.949134 131.7776 313.635952 131.7776 314.352 
C 131.7776 315.068048 132.062089 315.754866 132.568412 316.261188 
C 133.074734 316.767511 133.761552 317.052 134.4776 317.052 
z
" clip-path="url(#p142f9bb980)" style="stroke: #000000; stroke-width: 2; stroke-linejoin: miter"/>
   </g>
   <g id="patch_14">
    <path d="M 134.4776 221.052 
C 135.193648 221.052 135.880466 220.767511 136.386788 220.261188 
C 136.893111 219.754866 137.1776 219.068048 137.1776 218.352 
C 137.1776 217.635952 136.893111 216.949134 136.386788 216.442812 
C 135.880466 215.936489 135.193648 215.652 134.4776 215.652 
C 133.761552 215.652 133.074734 215.936489 132.568412 216.442812 
C 132.062089 216.949134 131.7776 217.635952 131.7776 218.352 
C 131.7776 219.068048 132.062089 219.754866 132.568412 220.261188 
C 133.074734 220.767511 133.761552 221.052 134.4776 221.052 
z
" clip-path="url(#p142f9bb980)" style="stroke: #000000; stroke-width: 2; stroke-linejoin: miter"/>
   </g>
   <g id="patch_15">
    <path d="M 29.4776 221.052 
C 30.193648 221.052 30.880466 220.767511 31.386788 220.261188 
C 31.893111 219.754866 32.1776 219.068048 32.1776 218.352 
C 32.1776 217.635952 31.893111 216.949134 31.386788 216.442812 
C 30.880466 215.936489 30.193648 215.652 29.4776 215.652 
C 28.761552 215.652 28.074734 215.936489 27.568412 216.442812 
C 27.062089 216.949134 26.7776 217.635952 26.7776 218.352 
C 26.7776 219.068048 27.062089 219.754866 27.568412 220.261188 
C 28.074734 220.767511 28.761552 221.052 29.4776 221.052 
z
" clip-path="url(#p142f9bb980)" style="fill: #ffffff; stroke: #000000; stroke-width: 2; stroke-linejoin: miter"/>
   </g>
   <g id="text_7">
    <!-- $V_\mathrm{in}$ -->
    <g transform="translate(2.980023 222.337056) scale(0.16 -0.16)">
     <defs>
      <path id="CMR17-69" d="M 992 3961 
C 992 4102 877 4224 730 4224 
C 589 4224 467 4108 467 3961 
C 467 3820 582 3699 730 3699 
C 870 3699 992 3814 992 3961 
z
M 243 2745 
L 243 2579 
C 602 2579 653 2540 653 2231 
L 653 443 
C 653 198 627 166 218 166 
L 218 0 
C 371 12 646 12 806 12 
C 960 12 1222 12 1370 0 
L 1370 166 
C 992 166 979 205 979 436 
L 979 2816 
L 243 2745 
z
" transform="scale(0.015625)"/>
      <path id="CMR17-6e" d="M 2656 1954 
C 2656 2282 2592 2816 1837 2816 
C 1331 2816 1069 2424 973 2166 
L 966 2166 
L 966 2816 
L 211 2745 
L 211 2578 
C 589 2578 646 2540 646 2231 
L 646 443 
C 646 198 621 166 211 166 
L 211 0 
C 365 12 646 12 813 12 
C 979 12 1267 12 1421 0 
L 1421 166 
C 1011 166 986 192 986 443 
L 986 1678 
C 986 2269 1344 2713 1792 2713 
C 2266 2713 2317 2289 2317 1980 
L 2317 443 
C 2317 198 2291 166 1882 166 
L 1882 0 
C 2035 12 2317 12 2483 12 
C 2650 12 2938 12 3091 0 
L 3091 166 
C 2682 166 2656 192 2656 443 
L 2656 1954 
z
" transform="scale(0.015625)"/>
     </defs>
     <use xlink:href="#CMMI12-56" transform="scale(0.996264)"/>
     <use xlink:href="#CMR17-69" transform="translate(56.869579 -14.943915) scale(0.697382)"/>
     <use xlink:href="#CMR17-6e" transform="translate(74.279238 -14.943915) scale(0.697382)"/>
    </g>
   </g>
   <g id="patch_16">
    <path d="M 188.4776 221.052 
C 189.193648 221.052 189.880466 220.767511 190.386788 220.261188 
C 190.893111 219.754866 191.1776 219.068048 191.1776 218.352 
C 191.1776 217.635952 190.893111 216.949134 190.386788 216.442812 
C 189.880466 215.936489 189.193648 215.652 188.4776 215.652 
C 187.761552 215.652 187.074734 215.936489 186.568412 216.442812 
C 186.062089 216.949134 185.7776 217.635952 185.7776 218.352 
C 185.7776 219.068048 186.062089 219.754866 186.568412 220.261188 
C 187.074734 220.767511 187.761552 221.052 188.4776 221.052 
z
" clip-path="url(#p142f9bb980)" style="fill: #ffffff; stroke: #000000; stroke-width: 2; stroke-linejoin: miter"/>
   </g>
   <g id="text_8">
    <!-- $V_\mathrm{out}$ -->
    <g transform="translate(196.5776 222.337056) scale(0.16 -0.16)">
     <defs>
      <path id="CMR17-6f" d="M 2758 1356 
C 2758 2176 2163 2816 1466 2816 
C 768 2816 173 2176 173 1356 
C 173 550 768 -64 1466 -64 
C 2163 -64 2758 550 2758 1356 
z
M 1466 51 
C 1165 51 909 230 762 480 
C 602 768 582 1126 582 1408 
C 582 1676 595 2009 762 2297 
C 890 2508 1139 2713 1466 2713 
C 1754 2713 1997 2553 2150 2329 
C 2349 2028 2349 1606 2349 1408 
C 2349 1158 2336 774 2163 467 
C 1984 172 1709 51 1466 51 
z
" transform="scale(0.015625)"/>
      <path id="CMR17-74" d="M 966 2585 
L 1862 2585 
L 1862 2752 
L 966 2752 
L 966 3968 
L 851 3968 
C 838 3292 614 2700 70 2687 
L 70 2585 
L 627 2585 
L 627 778 
C 627 655 627 -64 1370 -64 
C 1747 -64 1965 308 1965 784 
L 1965 1151 
L 1850 1151 
L 1850 790 
C 1850 347 1677 51 1408 51 
C 1222 51 966 179 966 765 
L 966 2585 
z
" transform="scale(0.015625)"/>
     </defs>
     <use xlink:href="#CMMI12-56" transform="scale(0.996264)"/>
     <use xlink:href="#CMR17-6f" transform="translate(56.869579 -14.943915) scale(0.697382)"/>
     <use xlink:href="#CMR17-75" transform="translate(88.852761 -14.943915) scale(0.697382)"/>
     <use xlink:href="#CMR17-74" transform="translate(124.479369 -14.943915) scale(0.697382)"/>
    </g>
   </g>
  </g>
 </g>
 <defs>
  <clipPath id="p142f9bb980">
   <rect x="0" y="0" width="224.7984" height="445.8384"/>
  </clipPath>
 </defs>
</svg>
