<?xml version="1.0" encoding="utf-8" standalone="no"?>
<!DOCTYPE svg PUBLIC "-//W3C//DTD SVG 1.1//EN"
  "http://www.w3.org/Graphics/SVG/1.1/DTD/svg11.dtd">
<svg xmlns:xlink="http://www.w3.org/1999/xlink" width="474.8848pt" height="374.7984pt" viewBox="0 0 474.8848 374.7984" xmlns="http://www.w3.org/2000/svg" version="1.1">
 <metadata>
  <rdf:RDF xmlns:dc="http://purl.org/dc/elements/1.1/" xmlns:cc="http://creativecommons.org/ns#" xmlns:rdf="http://www.w3.org/1999/02/22-rdf-syntax-ns#">
   <cc:Work>
    <dc:type rdf:resource="http://purl.org/dc/dcmitype/StillImage"/>
    <dc:date>2026-02-19T16:05:29.997299</dc:date>
    <dc:format>image/svg+xml</dc:format>
    <dc:creator>
     <cc:Agent>
      <dc:title>Matplotlib v3.10.7, https://matplotlib.org/</dc:title>
     </cc:Agent>
    </dc:creator>
   </cc:Work>
  </rdf:RDF>
 </metadata>
 <defs>
  <style type="text/css">*{stroke-linejoin: round; stroke-linecap: butt}</style>
 </defs>
 <g id="figure_1">
  <g id="patch_1">
   <path d="M 0 374.7984 
L 474.8848 374.7984 
L 474.8848 0 
L 0 0 
L 0 374.7984 
z
" style="fill: none"/>
  </g>
  <g id="axes_1">
   <g id="patch_2">
    <path d="M 121.7008 65.3064 
C 122.846477 65.3064 123.945385 64.851218 124.755501 64.041101 
C 125.565618 63.230985 126.0208 62.132077 126.0208 60.9864 
C 126.0208 59.840723 125.565618 58.741815 124.755501 57.931699 
C 123.945385 57.121582 122.846477 56.6664 121.7008 56.6664 
C 120.555123 56.6664 119.456215 57.121582 118.646099 57.931699 
C 117.835982 58.741815 117.3808 59.840723 117.3808 60.9864 
C 117.3808 62.132077 117.835982 63.230985 118.646099 64.041101 
C 119.456215 64.851218 120.555123 65.3064 121.7008 65.3064 
L 121.7008 65.3064 
z
" clip-path="url(#pd14df3f44f)" style="fill: none; stroke: #000000; stroke-width: 2; stroke-linejoin: miter"/>
   </g>
   <g id="patch_3">
    <path d="M 180.0208 193.1064 
C 181.166477 193.1064 182.265385 192.651218 183.075501 191.841101 
C 183.885618 191.030985 184.3408 189.932077 184.3408 188.7864 
C 184.3408 187.640723 183.885618 186.541815 183.075501 185.731699 
C 182.265385 184.921582 181.166477 184.4664 180.0208 184.4664 
C 178.875123 184.4664 177.776215 184.921582 176.966099 185.731699 
C 176.155982 186.541815 175.7008 187.640723 175.7008 188.7864 
C 175.7008 189.932077 176.155982 191.030985 176.966099 191.841101 
C 177.776215 192.651218 178.875123 193.1064 180.0208 193.1064 
L 180.0208 193.1064 
z
" clip-path="url(#pd14df3f44f)" style="fill: none; stroke: #000000; stroke-width: 2; stroke-linejoin: miter"/>
   </g>
   <g id="patch_4">
    <path d="M 119.7208 342.3264 
C 120.866477 342.3264 121.965385 341.871218 122.775501 341.061101 
C 123.585618 340.250985 124.0408 339.152077 124.0408 338.0064 
C 124.0408 336.860723 123.585618 335.761815 122.775501 334.951699 
C 121.965385 334.141582 120.866477 333.6864 119.7208 333.6864 
C 118.575123 333.6864 117.476215 334.141582 116.666099 334.951699 
C 115.855982 335.761815 115.4008 336.860723 115.4008 338.0064 
C 115.4008 339.152077 115.855982 340.250985 116.666099 341.061101 
C 117.476215 341.871218 118.575123 342.3264 119.7208 342.3264 
L 119.7208 342.3264 
z
" clip-path="url(#pd14df3f44f)" style="fill: none; stroke: #000000; stroke-width: 2; stroke-linejoin: miter"/>
   </g>
   <g id="patch_5">
    <path d="M 258.3208 274.8264 
C 259.466477 274.8264 260.565385 274.371218 261.375501 273.561101 
C 262.185618 272.750985 262.6408 271.652077 262.6408 270.5064 
C 262.6408 269.360723 262.185618 268.261815 261.375501 267.451699 
C 260.565385 266.641582 259.466477 266.1864 258.3208 266.1864 
C 257.175123 266.1864 256.076215 266.641582 255.266099 267.451699 
C 254.455982 268.261815 254.0008 269.360723 254.0008 270.5064 
C 254.0008 271.652077 254.455982 272.750985 255.266099 273.561101 
C 256.076215 274.371218 257.175123 274.8264 258.3208 274.8264 
L 258.3208 274.8264 
z
" clip-path="url(#pd14df3f44f)" style="fill: none; stroke: #000000; stroke-width: 2; stroke-linejoin: miter"/>
   </g>
   <g id="patch_6">
    <path d="M 358.0408 223.5264 
C 359.186477 223.5264 360.285385 223.071218 361.095501 222.261101 
C 361.905618 221.450985 362.3608 220.352077 362.3608 219.2064 
C 362.3608 218.060723 361.905618 216.961815 361.095501 216.151699 
C 360.285385 215.341582 359.186477 214.8864 358.0408 214.8864 
C 356.895123 214.8864 355.796215 215.341582 354.986099 216.151699 
C 354.175982 216.961815 353.7208 218.060723 353.7208 219.2064 
C 353.7208 220.352077 354.175982 221.450985 354.986099 222.261101 
C 355.796215 223.071218 356.895123 223.5264 358.0408 223.5264 
L 358.0408 223.5264 
z
" clip-path="url(#pd14df3f44f)" style="fill: none; stroke: #000000; stroke-width: 2; stroke-linejoin: miter"/>
   </g>
   <g id="patch_7">
    <path d="M 290.7208 132.8064 
C 291.866477 132.8064 292.965385 132.351218 293.775501 131.541101 
C 294.585618 130.730985 295.0408 129.632077 295.0408 128.4864 
C 295.0408 127.340723 294.585618 126.241815 293.775501 125.431699 
C 292.965385 124.621582 291.866477 124.1664 290.7208 124.1664 
C 289.575123 124.1664 288.476215 124.621582 287.666099 125.431699 
C 286.855982 126.241815 286.4008 127.340723 286.4008 128.4864 
C 286.4008 129.632077 286.855982 130.730985 287.666099 131.541101 
C 288.476215 132.351218 289.575123 132.8064 290.7208 132.8064 
L 290.7208 132.8064 
z
" clip-path="url(#pd14df3f44f)" style="fill: none; stroke: #000000; stroke-width: 2; stroke-linejoin: miter"/>
   </g>
   <g id="line2d_1">
    <path d="M 38.0008 60.9864 
L 56.0008 60.9864 
L 74.0008 60.9864 
" clip-path="url(#pd14df3f44f)" style="fill: none; stroke: #000000; stroke-width: 2; stroke-linecap: round"/>
   </g>
   <g id="line2d_2">
    <path d="M 74.0008 60.9864 
L 93.9808 60.9864 
M 126.0208 60.9864 
L 146.0008 60.9864 
" clip-path="url(#pd14df3f44f)" style="fill: none; stroke: #000000; stroke-width: 2; stroke-linecap: round"/>
   </g>
   <g id="line2d_3">
    <path d="M 93.9808 42.9864 
L 117.3808 60.9864 
L 93.9808 78.9864 
L 93.9808 42.9864 
" clip-path="url(#pd14df3f44f)" style="fill: none; stroke: #000000; stroke-width: 2; stroke-linecap: round"/>
   </g>
   <g id="line2d_4">
    <path d="M 105.6808 50.9064 
L 105.6808 35.7864 
" clip-path="url(#pd14df3f44f)" style="fill: none; stroke: #000000; stroke-width: 2; stroke-linecap: round"/>
   </g>
   <g id="line2d_5">
    <path d="M 105.6808 35.7864 
L 105.6808 31.2864 
L 105.6808 26.7864 
" clip-path="url(#pd14df3f44f)" style="fill: none; stroke: #000000; stroke-width: 2; stroke-linecap: round"/>
   </g>
   <g id="line2d_6">
    <path d="M 126.0208 60.9864 
L 153.0208 60.9864 
L 180.0208 60.9864 
" clip-path="url(#pd14df3f44f)" style="fill: none; stroke: #000000; stroke-width: 2; stroke-linecap: round"/>
   </g>
   <g id="line2d_7">
    <path d="M 180.0208 60.9864 
L 180.0208 94.7364 
L 180.0208 128.4864 
" clip-path="url(#pd14df3f44f)" style="fill: none; stroke: #000000; stroke-width: 2; stroke-linecap: round"/>
   </g>
   <g id="line2d_8">
    <path d="M 180.0208 128.4864 
L 180.0208 146.4864 
L 180.0208 164.4864 
" clip-path="url(#pd14df3f44f)" style="fill: none; stroke: #000000; stroke-width: 2; stroke-linecap: round"/>
   </g>
   <g id="line2d_9">
    <path d="M 180.0208 164.4864 
L 180.0208 184.4664 
M 180.0208 216.5064 
L 180.0208 236.4864 
" clip-path="url(#pd14df3f44f)" style="fill: none; stroke: #000000; stroke-width: 2; stroke-linecap: round"/>
   </g>
   <g id="line2d_10">
    <path d="M 162.0208 216.5064 
L 198.0208 216.5064 
L 180.0208 193.1064 
L 162.0208 216.5064 
" clip-path="url(#pd14df3f44f)" style="fill: none; stroke: #000000; stroke-width: 2; stroke-linecap: round"/>
   </g>
   <g id="line2d_11">
    <path d="M 154.8208 204.8064 
L 169.9408 204.8064 
" clip-path="url(#pd14df3f44f)" style="fill: none; stroke: #000000; stroke-width: 2; stroke-linecap: round"/>
   </g>
   <g id="line2d_12">
    <path d="M 180.0208 236.4864 
L 180.0208 262.4964 
L 180.0208 288.5064 
" clip-path="url(#pd14df3f44f)" style="fill: none; stroke: #000000; stroke-width: 2; stroke-linecap: round"/>
   </g>
   <g id="line2d_13">
    <path d="M 154.8208 204.8064 
L 150.3208 204.8064 
L 145.8208 204.8064 
" clip-path="url(#pd14df3f44f)" style="fill: none; stroke: #000000; stroke-width: 2; stroke-linecap: round"/>
   </g>
   <g id="line2d_14">
    <path d="M 180.0208 216.5064 
L 180.0208 243.5064 
L 180.0208 270.5064 
" clip-path="url(#pd14df3f44f)" style="fill: none; stroke: #000000; stroke-width: 2; stroke-linecap: round"/>
   </g>
   <g id="line2d_15">
    <path d="M 180.0208 270.5064 
L 180.0208 304.2564 
L 180.0208 338.0064 
" clip-path="url(#pd14df3f44f)" style="fill: none; stroke: #000000; stroke-width: 2; stroke-linecap: round"/>
   </g>
   <g id="line2d_16">
    <path d="M 180.0208 338.0064 
L 162.0208 338.0064 
L 144.0208 338.0064 
" clip-path="url(#pd14df3f44f)" style="fill: none; stroke: #000000; stroke-width: 2; stroke-linecap: round"/>
   </g>
   <g id="line2d_17">
    <path d="M 144.0208 338.0064 
L 124.0408 338.0064 
M 92.0008 338.0064 
L 72.0208 338.0064 
" clip-path="url(#pd14df3f44f)" style="fill: none; stroke: #000000; stroke-width: 2; stroke-linecap: round"/>
   </g>
   <g id="line2d_18">
    <path d="M 92.0008 320.0064 
L 92.0008 356.0064 
L 115.4008 338.0064 
L 92.0008 320.0064 
" clip-path="url(#pd14df3f44f)" style="fill: none; stroke: #000000; stroke-width: 2; stroke-linecap: round"/>
   </g>
   <g id="line2d_19">
    <path d="M 103.7008 312.8064 
L 103.7008 327.9264 
" clip-path="url(#pd14df3f44f)" style="fill: none; stroke: #000000; stroke-width: 2; stroke-linecap: round"/>
   </g>
   <g id="line2d_20">
    <path d="M 103.7008 312.8064 
L 103.7008 308.3064 
L 103.7008 303.8064 
" clip-path="url(#pd14df3f44f)" style="fill: none; stroke: #000000; stroke-width: 2; stroke-linecap: round"/>
   </g>
   <g id="line2d_21">
    <path d="M 92.0008 338.0064 
L 65.0008 338.0064 
L 38.0008 338.0064 
" clip-path="url(#pd14df3f44f)" style="fill: none; stroke: #000000; stroke-width: 2; stroke-linecap: round"/>
   </g>
   <g id="line2d_22">
    <path d="M 180.0208 270.5064 
L 207.0208 270.5064 
L 234.0208 270.5064 
" clip-path="url(#pd14df3f44f)" style="fill: none; stroke: #000000; stroke-width: 2; stroke-linecap: round"/>
   </g>
   <g id="line2d_23">
    <path d="M 234.0208 270.5064 
L 254.0008 270.5064 
M 286.0408 270.5064 
L 306.0208 270.5064 
" clip-path="url(#pd14df3f44f)" style="fill: none; stroke: #000000; stroke-width: 2; stroke-linecap: round"/>
   </g>
   <g id="line2d_24">
    <path d="M 286.0408 252.5064 
L 286.0408 288.5064 
L 262.6408 270.5064 
L 286.0408 252.5064 
" clip-path="url(#pd14df3f44f)" style="fill: none; stroke: #000000; stroke-width: 2; stroke-linecap: round"/>
   </g>
   <g id="line2d_25">
    <path d="M 274.3408 245.3064 
L 274.3408 260.4264 
" clip-path="url(#pd14df3f44f)" style="fill: none; stroke: #000000; stroke-width: 2; stroke-linecap: round"/>
   </g>
   <g id="line2d_26">
    <path d="M 274.3408 245.3064 
L 274.3408 240.8064 
L 274.3408 236.3064 
" clip-path="url(#pd14df3f44f)" style="fill: none; stroke: #000000; stroke-width: 2; stroke-linecap: round"/>
   </g>
   <g id="line2d_27">
    <path d="M 286.0408 270.5064 
L 322.0408 270.5064 
L 358.0408 270.5064 
" clip-path="url(#pd14df3f44f)" style="fill: none; stroke: #000000; stroke-width: 2; stroke-linecap: round"/>
   </g>
   <g id="line2d_28">
    <path d="M 358.0408 270.5064 
L 358.0408 304.2564 
L 358.0408 338.0064 
" clip-path="url(#pd14df3f44f)" style="fill: none; stroke: #000000; stroke-width: 2; stroke-linecap: round"/>
   </g>
   <g id="line2d_29">
    <path d="M 358.0408 338.0064 
L 269.0308 338.0064 
L 180.0208 338.0064 
" clip-path="url(#pd14df3f44f)" style="fill: none; stroke: #000000; stroke-width: 2; stroke-linecap: round"/>
   </g>
   <g id="line2d_30">
    <path d="M 358.0408 338.0064 
L 394.0408 338.0064 
L 430.0408 338.0064 
" clip-path="url(#pd14df3f44f)" style="fill: none; stroke: #000000; stroke-width: 2; stroke-linecap: round"/>
   </g>
   <g id="line2d_31">
    <path d="M 358.0408 270.5064 
L 358.0408 257.0064 
L 358.0408 243.5064 
" clip-path="url(#pd14df3f44f)" style="fill: none; stroke: #000000; stroke-width: 2; stroke-linecap: round"/>
   </g>
   <g id="line2d_32">
    <path d="M 358.0408 243.5064 
L 358.0408 223.5264 
M 358.0408 191.4864 
L 358.0408 171.5064 
" clip-path="url(#pd14df3f44f)" style="fill: none; stroke: #000000; stroke-width: 2; stroke-linecap: round"/>
   </g>
   <g id="line2d_33">
    <path d="M 376.0408 191.4864 
L 340.0408 191.4864 
L 358.0408 214.8864 
L 376.0408 191.4864 
" clip-path="url(#pd14df3f44f)" style="fill: none; stroke: #000000; stroke-width: 2; stroke-linecap: round"/>
   </g>
   <g id="line2d_34">
    <path d="M 383.2408 203.1864 
L 368.1208 203.1864 
" clip-path="url(#pd14df3f44f)" style="fill: none; stroke: #000000; stroke-width: 2; stroke-linecap: round"/>
   </g>
   <g id="line2d_35">
    <path d="M 383.2408 203.1864 
L 387.7408 203.1864 
L 392.2408 203.1864 
" clip-path="url(#pd14df3f44f)" style="fill: none; stroke: #000000; stroke-width: 2; stroke-linecap: round"/>
   </g>
   <g id="line2d_36">
    <path d="M 180.0208 128.4864 
L 211.5208 128.4864 
L 243.0208 128.4864 
" clip-path="url(#pd14df3f44f)" style="fill: none; stroke: #000000; stroke-width: 2; stroke-linecap: round"/>
   </g>
   <g id="line2d_37">
    <path d="M 243.0208 128.4864 
L 263.0008 128.4864 
M 295.0408 128.4864 
L 315.0208 128.4864 
" clip-path="url(#pd14df3f44f)" style="fill: none; stroke: #000000; stroke-width: 2; stroke-linecap: round"/>
   </g>
   <g id="line2d_38">
    <path d="M 263.0008 110.4864 
L 286.4008 128.4864 
L 263.0008 146.4864 
L 263.0008 110.4864 
" clip-path="url(#pd14df3f44f)" style="fill: none; stroke: #000000; stroke-width: 2; stroke-linecap: round"/>
   </g>
   <g id="line2d_39">
    <path d="M 274.7008 118.4064 
L 274.7008 103.2864 
" clip-path="url(#pd14df3f44f)" style="fill: none; stroke: #000000; stroke-width: 2; stroke-linecap: round"/>
   </g>
   <g id="line2d_40">
    <path d="M 274.7008 103.2864 
L 274.7008 98.7864 
L 274.7008 94.2864 
" clip-path="url(#pd14df3f44f)" style="fill: none; stroke: #000000; stroke-width: 2; stroke-linecap: round"/>
   </g>
   <g id="line2d_41">
    <path d="M 295.0408 128.4864 
L 326.5408 128.4864 
L 358.0408 128.4864 
" clip-path="url(#pd14df3f44f)" style="fill: none; stroke: #000000; stroke-width: 2; stroke-linecap: round"/>
   </g>
   <g id="line2d_42">
    <path d="M 358.0408 128.4864 
L 358.0408 159.9864 
L 358.0408 191.4864 
" clip-path="url(#pd14df3f44f)" style="fill: none; stroke: #000000; stroke-width: 2; stroke-linecap: round"/>
   </g>
   <g id="line2d_43">
    <path d="M 180.0208 60.9864 
L 269.0308 60.9864 
L 358.0408 60.9864 
" clip-path="url(#pd14df3f44f)" style="fill: none; stroke: #000000; stroke-width: 2; stroke-linecap: round"/>
   </g>
   <g id="line2d_44">
    <path d="M 358.0408 60.9864 
L 358.0408 94.7364 
L 358.0408 128.4864 
" clip-path="url(#pd14df3f44f)" style="fill: none; stroke: #000000; stroke-width: 2; stroke-linecap: round"/>
   </g>
   <g id="line2d_45">
    <path d="M 358.0408 60.9864 
L 394.0408 60.9864 
L 430.0408 60.9864 
" clip-path="url(#pd14df3f44f)" style="fill: none; stroke: #000000; stroke-width: 2; stroke-linecap: round"/>
   </g>
   <g id="text_1">
    <!-- $\mathrm{A}$ -->
    <g transform="translate(104.150569 93.655988) scale(0.16 -0.16)">
     <defs>
      <path id="CMR17-41" d="M 2323 4441 
C 2291 4524 2278 4544 2214 4544 
C 2150 4544 2138 4524 2106 4441 
L 749 580 
C 627 236 371 166 147 166 
L 147 0 
C 262 12 518 12 640 12 
C 800 12 1056 12 1210 0 
L 1210 166 
C 909 179 864 382 864 459 
C 864 516 877 548 890 586 
L 1229 1536 
L 2906 1536 
L 3290 453 
C 3322 376 3322 363 3322 338 
C 3322 166 3046 166 2925 166 
L 2925 0 
C 3110 12 3443 12 3642 12 
C 3808 12 4128 12 4282 0 
L 4282 166 
C 3942 166 3827 166 3744 402 
L 2323 4441 
z
M 2067 3924 
L 2848 1702 
L 1286 1702 
L 2067 3924 
z
" transform="scale(0.015625)"/>
     </defs>
     <use xlink:href="#CMR17-41" transform="scale(0.996264)"/>
    </g>
   </g>
   <g id="patch_8">
    <path d="M 105.6808 29.4864 
C 106.396848 29.4864 107.083666 29.201911 107.589988 28.695588 
C 108.096311 28.189266 108.3808 27.502448 108.3808 26.7864 
C 108.3808 26.070352 108.096311 25.383534 107.589988 24.877212 
C 107.083666 24.370889 106.396848 24.0864 105.6808 24.0864 
C 104.964752 24.0864 104.277934 24.370889 103.771612 24.877212 
C 103.265289 25.383534 102.9808 26.070352 102.9808 26.7864 
C 102.9808 27.502448 103.265289 28.189266 103.771612 28.695588 
C 104.277934 29.201911 104.964752 29.4864 105.6808 29.4864 
z
" clip-path="url(#pd14df3f44f)" style="fill: #ffffff; stroke: #000000; stroke-width: 2; stroke-linejoin: miter"/>
   </g>
   <g id="text_2">
    <!-- $V_\mathrm{en}$ -->
    <g transform="translate(95.552164 15.586924) scale(0.16 -0.16)">
     <defs>
      <path id="CMMI12-56" d="M 3962 3644 
C 4179 3987 4378 4140 4704 4166 
C 4768 4172 4819 4172 4819 4287 
C 4819 4313 4806 4352 4749 4352 
C 4634 4352 4358 4339 4243 4339 
C 4058 4339 3866 4352 3686 4352 
C 3635 4352 3571 4352 3571 4230 
C 3571 4172 3629 4166 3654 4166 
C 3891 4146 3917 4032 3917 3956 
C 3917 3860 3827 3714 3821 3708 
L 1811 540 
L 1363 3968 
C 1363 4153 1696 4166 1766 4166 
C 1862 4166 1920 4166 1920 4287 
C 1920 4352 1850 4352 1830 4352 
C 1722 4352 1594 4339 1485 4339 
L 1126 4339 
C 659 4339 467 4352 461 4352 
C 422 4352 346 4352 346 4236 
C 346 4166 390 4166 493 4166 
C 819 4166 838 4108 858 3949 
L 1370 25 
C 1389 -109 1389 -128 1478 -128 
C 1555 -128 1587 -109 1651 -7 
L 3962 3644 
z
" transform="scale(0.015625)"/>
      <path id="CMR17-65" d="M 2438 1503 
C 2464 1529 2464 1542 2464 1606 
C 2464 2251 2118 2816 1389 2816 
C 710 2816 173 2175 173 1394 
C 173 554 781 -64 1459 -64 
C 2176 -64 2458 619 2458 755 
C 2458 800 2419 800 2406 800 
C 2362 800 2355 787 2330 709 
C 2189 270 1837 51 1504 51 
C 1229 51 954 206 781 490 
C 582 819 582 1200 582 1503 
L 2438 1503 
z
M 589 1600 
C 634 2511 1126 2713 1382 2713 
C 1818 2713 2112 2308 2118 1600 
L 589 1600 
z
" transform="scale(0.015625)"/>
      <path id="CMR17-6e" d="M 2656 1954 
C 2656 2282 2592 2816 1837 2816 
C 1331 2816 1069 2424 973 2166 
L 966 2166 
L 966 2816 
L 211 2745 
L 211 2578 
C 589 2578 646 2540 646 2231 
L 646 443 
C 646 198 621 166 211 166 
L 211 0 
C 365 12 646 12 813 12 
C 979 12 1267 12 1421 0 
L 1421 166 
C 1011 166 986 192 986 443 
L 986 1678 
C 986 2269 1344 2713 1792 2713 
C 2266 2713 2317 2289 2317 1980 
L 2317 443 
C 2317 198 2291 166 1882 166 
L 1882 0 
C 2035 12 2317 12 2483 12 
C 2650 12 2938 12 3091 0 
L 3091 166 
C 2682 166 2656 192 2656 443 
L 2656 1954 
z
" transform="scale(0.015625)"/>
     </defs>
     <use xlink:href="#CMMI12-56" transform="scale(0.996264)"/>
     <use xlink:href="#CMR17-65" transform="translate(56.869579 -14.943915) scale(0.697382)"/>
     <use xlink:href="#CMR17-6e" transform="translate(85.209411 -14.943915) scale(0.697382)"/>
    </g>
   </g>
   <g id="patch_9">
    <path d="M 180.0208 63.6864 
C 180.736848 63.6864 181.423666 63.401911 181.929988 62.895588 
C 182.436311 62.389266 182.7208 61.702448 182.7208 60.9864 
C 182.7208 60.270352 182.436311 59.583534 181.929988 59.077212 
C 181.423666 58.570889 180.736848 58.2864 180.0208 58.2864 
C 179.304752 58.2864 178.617934 58.570889 178.111612 59.077212 
C 177.605289 59.583534 177.3208 60.270352 177.3208 60.9864 
C 177.3208 61.702448 177.605289 62.389266 178.111612 62.895588 
C 178.617934 63.401911 179.304752 63.6864 180.0208 63.6864 
z
" clip-path="url(#pd14df3f44f)" style="stroke: #000000; stroke-width: 2; stroke-linejoin: miter"/>
   </g>
   <g id="patch_10">
    <path d="M 180.0208 131.1864 
C 180.736848 131.1864 181.423666 130.901911 181.929988 130.395588 
C 182.436311 129.889266 182.7208 129.202448 182.7208 128.4864 
C 182.7208 127.770352 182.436311 127.083534 181.929988 126.577212 
C 181.423666 126.070889 180.736848 125.7864 180.0208 125.7864 
C 179.304752 125.7864 178.617934 126.070889 178.111612 126.577212 
C 177.605289 127.083534 177.3208 127.770352 177.3208 128.4864 
C 177.3208 129.202448 177.605289 129.889266 178.111612 130.395588 
C 178.617934 130.901911 179.304752 131.1864 180.0208 131.1864 
z
" clip-path="url(#pd14df3f44f)" style="stroke: #000000; stroke-width: 2; stroke-linejoin: miter"/>
   </g>
   <g id="text_3">
    <!-- $\mathrm{C}$ -->
    <g transform="translate(201.6208 204.471456) scale(0.16 -0.16)">
     <defs>
      <path id="CMR17-43" d="M 3974 4351 
C 3974 4467 3968 4473 3930 4473 
C 3904 4473 3898 4467 3853 4390 
L 3571 3849 
C 3258 4249 2874 4480 2381 4480 
C 1286 4480 294 3507 294 2179 
C 294 837 1286 -128 2387 -128 
C 3366 -128 3974 741 3974 1482 
C 3974 1547 3974 1573 3917 1573 
C 3866 1573 3866 1553 3859 1495 
C 3808 592 3168 38 2477 38 
C 1824 38 781 502 781 2179 
C 781 3862 1843 4313 2464 4313 
C 3187 4313 3712 3681 3834 2785 
C 3846 2707 3846 2695 3904 2695 
C 3974 2695 3974 2707 3974 2824 
L 3974 4351 
z
" transform="scale(0.015625)"/>
     </defs>
     <use xlink:href="#CMR17-43" transform="scale(0.996264)"/>
    </g>
   </g>
   <g id="patch_11">
    <path d="M 145.8208 207.5064 
C 146.536848 207.5064 147.223666 207.221911 147.729988 206.715588 
C 148.236311 206.209266 148.5208 205.522448 148.5208 204.8064 
C 148.5208 204.090352 148.236311 203.403534 147.729988 202.897212 
C 147.223666 202.390889 146.536848 202.1064 145.8208 202.1064 
C 145.104752 202.1064 144.417934 202.390889 143.911612 202.897212 
C 143.405289 203.403534 143.1208 204.090352 143.1208 204.8064 
C 143.1208 205.522448 143.405289 206.209266 143.911612 206.715588 
C 144.417934 207.221911 145.104752 207.5064 145.8208 207.5064 
z
" clip-path="url(#pd14df3f44f)" style="fill: #ffffff; stroke: #000000; stroke-width: 2; stroke-linejoin: miter"/>
   </g>
   <g id="text_4">
    <!-- $V_\mathrm{en}$ -->
    <g transform="translate(117.463528 208.791456) scale(0.16 -0.16)">
     <use xlink:href="#CMMI12-56" transform="scale(0.996264)"/>
     <use xlink:href="#CMR17-65" transform="translate(56.869579 -14.943915) scale(0.697382)"/>
     <use xlink:href="#CMR17-6e" transform="translate(85.209411 -14.943915) scale(0.697382)"/>
    </g>
   </g>
   <g id="patch_12">
    <path d="M 180.0208 273.2064 
C 180.736848 273.2064 181.423666 272.921911 181.929988 272.415588 
C 182.436311 271.909266 182.7208 271.222448 182.7208 270.5064 
C 182.7208 269.790352 182.436311 269.103534 181.929988 268.597212 
C 181.423666 268.090889 180.736848 267.8064 180.0208 267.8064 
C 179.304752 267.8064 178.617934 268.090889 178.111612 268.597212 
C 177.605289 269.103534 177.3208 269.790352 177.3208 270.5064 
C 177.3208 271.222448 177.605289 271.909266 178.111612 272.415588 
C 178.617934 272.921911 179.304752 273.2064 180.0208 273.2064 
z
" clip-path="url(#pd14df3f44f)" style="stroke: #000000; stroke-width: 2; stroke-linejoin: miter"/>
   </g>
   <g id="patch_13">
    <path d="M 180.0208 340.7064 
C 180.736848 340.7064 181.423666 340.421911 181.929988 339.915588 
C 182.436311 339.409266 182.7208 338.722448 182.7208 338.0064 
C 182.7208 337.290352 182.436311 336.603534 181.929988 336.097212 
C 181.423666 335.590889 180.736848 335.3064 180.0208 335.3064 
C 179.304752 335.3064 178.617934 335.590889 178.111612 336.097212 
C 177.605289 336.603534 177.3208 337.290352 177.3208 338.0064 
C 177.3208 338.722448 177.605289 339.409266 178.111612 339.915588 
C 178.617934 340.421911 179.304752 340.7064 180.0208 340.7064 
z
" clip-path="url(#pd14df3f44f)" style="stroke: #000000; stroke-width: 2; stroke-linejoin: miter"/>
   </g>
   <g id="text_5">
    <!-- $\mathrm{A}$ -->
    <g transform="translate(102.170569 370.675988) scale(0.16 -0.16)">
     <use xlink:href="#CMR17-41" transform="scale(0.996264)"/>
    </g>
   </g>
   <g id="patch_14">
    <path d="M 103.7008 306.5064 
C 104.416848 306.5064 105.103666 306.221911 105.609988 305.715588 
C 106.116311 305.209266 106.4008 304.522448 106.4008 303.8064 
C 106.4008 303.090352 106.116311 302.403534 105.609988 301.897212 
C 105.103666 301.390889 104.416848 301.1064 103.7008 301.1064 
C 102.984752 301.1064 102.297934 301.390889 101.791612 301.897212 
C 101.285289 302.403534 101.0008 303.090352 101.0008 303.8064 
C 101.0008 304.522448 101.285289 305.209266 101.791612 305.715588 
C 102.297934 306.221911 102.984752 306.5064 103.7008 306.5064 
z
" clip-path="url(#pd14df3f44f)" style="fill: #ffffff; stroke: #000000; stroke-width: 2; stroke-linejoin: miter"/>
   </g>
   <g id="text_6">
    <!-- $V_\mathrm{en}$ -->
    <g transform="translate(93.572164 292.606924) scale(0.16 -0.16)">
     <use xlink:href="#CMMI12-56" transform="scale(0.996264)"/>
     <use xlink:href="#CMR17-65" transform="translate(56.869579 -14.943915) scale(0.697382)"/>
     <use xlink:href="#CMR17-6e" transform="translate(85.209411 -14.943915) scale(0.697382)"/>
    </g>
   </g>
   <g id="patch_15">
    <path d="M 38.0008 340.7064 
C 38.716848 340.7064 39.403666 340.421911 39.909988 339.915588 
C 40.416311 339.409266 40.7008 338.722448 40.7008 338.0064 
C 40.7008 337.290352 40.416311 336.603534 39.909988 336.097212 
C 39.403666 335.590889 38.716848 335.3064 38.0008 335.3064 
C 37.284752 335.3064 36.597934 335.590889 36.091612 336.097212 
C 35.585289 336.603534 35.3008 337.290352 35.3008 338.0064 
C 35.3008 338.722448 35.585289 339.409266 36.091612 339.915588 
C 36.597934 340.421911 37.284752 340.7064 38.0008 340.7064 
z
" clip-path="url(#pd14df3f44f)" style="fill: #ffffff; stroke: #000000; stroke-width: 2; stroke-linejoin: miter"/>
   </g>
   <g id="text_7">
    <!-- $V_\mathrm{in,n}$ -->
    <g transform="translate(2.204779 341.172316) scale(0.16 -0.16)">
     <defs>
      <path id="CMR17-69" d="M 992 3961 
C 992 4102 877 4224 730 4224 
C 589 4224 467 4108 467 3961 
C 467 3820 582 3699 730 3699 
C 870 3699 992 3814 992 3961 
z
M 243 2745 
L 243 2579 
C 602 2579 653 2540 653 2231 
L 653 443 
C 653 198 627 166 218 166 
L 218 0 
C 371 12 646 12 806 12 
C 960 12 1222 12 1370 0 
L 1370 166 
C 992 166 979 205 979 436 
L 979 2816 
L 243 2745 
z
" transform="scale(0.015625)"/>
      <path id="CMMI12-3b" d="M 1248 -26 
C 1248 345 1126 620 864 620 
C 659 620 557 454 557 313 
C 557 172 653 0 870 0 
C 954 0 1024 25 1082 83 
C 1094 96 1101 96 1107 96 
C 1120 96 1120 6 1120 -26 
C 1120 -233 1082 -642 710 -1051 
C 640 -1127 640 -1140 640 -1152 
C 640 -1184 672 -1216 704 -1216 
C 755 -1216 1248 -749 1248 -26 
z
" transform="scale(0.015625)"/>
     </defs>
     <use xlink:href="#CMMI12-56" transform="scale(0.996264)"/>
     <use xlink:href="#CMR17-69" transform="translate(56.869579 -14.943915) scale(0.697382)"/>
     <use xlink:href="#CMR17-6e" transform="translate(74.279238 -14.943915) scale(0.697382)"/>
     <use xlink:href="#CMMI12-3b" transform="translate(109.905846 -14.943915) scale(0.697382)"/>
     <use xlink:href="#CMR17-6e" transform="translate(128.873779 -14.943915) scale(0.697382)"/>
    </g>
   </g>
   <g id="text_8">
    <!-- $\mathrm{B}$ -->
    <g transform="translate(264.494352 303.175988) scale(0.16 -0.16)">
     <defs>
      <path id="CMR17-42" d="M 333 4352 
L 333 4185 
C 774 4185 845 4185 845 3897 
L 845 451 
C 845 166 774 166 333 166 
L 333 0 
L 2534 0 
C 3354 0 3885 578 3885 1155 
C 3885 1726 3360 2214 2675 2259 
C 3290 2380 3718 2790 3718 3276 
C 3718 3808 3194 4352 2368 4352 
L 333 4352 
z
M 1248 2304 
L 1248 3936 
C 1248 4153 1261 4185 1517 4185 
L 2336 4185 
C 2970 4185 3251 3673 3251 3276 
C 3251 2790 2861 2304 2170 2304 
L 1248 2304 
z
M 1517 166 
C 1261 166 1248 198 1248 413 
L 1248 2201 
L 2432 2201 
C 3091 2201 3411 1624 3411 1161 
C 3411 698 3046 166 2349 166 
L 1517 166 
z
" transform="scale(0.015625)"/>
     </defs>
     <use xlink:href="#CMR17-42" transform="scale(0.996264)"/>
    </g>
   </g>
   <g id="patch_16">
    <path d="M 274.3408 239.0064 
C 275.056848 239.0064 275.743666 238.721911 276.249988 238.215588 
C 276.756311 237.709266 277.0408 237.022448 277.0408 236.3064 
C 277.0408 235.590352 276.756311 234.903534 276.249988 234.397212 
C 275.743666 233.890889 275.056848 233.6064 274.3408 233.6064 
C 273.624752 233.6064 272.937934 233.890889 272.431612 234.397212 
C 271.925289 234.903534 271.6408 235.590352 271.6408 236.3064 
C 271.6408 237.022448 271.925289 237.709266 272.431612 238.215588 
C 272.937934 238.721911 273.624752 239.0064 274.3408 239.0064 
z
" clip-path="url(#pd14df3f44f)" style="fill: #ffffff; stroke: #000000; stroke-width: 2; stroke-linejoin: miter"/>
   </g>
   <g id="text_9">
    <!-- $V_\mathrm{en}$ -->
    <g transform="translate(264.212164 225.106924) scale(0.16 -0.16)">
     <use xlink:href="#CMMI12-56" transform="scale(0.996264)"/>
     <use xlink:href="#CMR17-65" transform="translate(56.869579 -14.943915) scale(0.697382)"/>
     <use xlink:href="#CMR17-6e" transform="translate(85.209411 -14.943915) scale(0.697382)"/>
    </g>
   </g>
   <g id="patch_17">
    <path d="M 358.0408 273.2064 
C 358.756848 273.2064 359.443666 272.921911 359.949988 272.415588 
C 360.456311 271.909266 360.7408 271.222448 360.7408 270.5064 
C 360.7408 269.790352 360.456311 269.103534 359.949988 268.597212 
C 359.443666 268.090889 358.756848 267.8064 358.0408 267.8064 
C 357.324752 267.8064 356.637934 268.090889 356.131612 268.597212 
C 355.625289 269.103534 355.3408 269.790352 355.3408 270.5064 
C 355.3408 271.222448 355.625289 271.909266 356.131612 272.415588 
C 356.637934 272.921911 357.324752 273.2064 358.0408 273.2064 
z
" clip-path="url(#pd14df3f44f)" style="stroke: #000000; stroke-width: 2; stroke-linejoin: miter"/>
   </g>
   <g id="patch_18">
    <path d="M 358.0408 340.7064 
C 358.756848 340.7064 359.443666 340.421911 359.949988 339.915588 
C 360.456311 339.409266 360.7408 338.722448 360.7408 338.0064 
C 360.7408 337.290352 360.456311 336.603534 359.949988 336.097212 
C 359.443666 335.590889 358.756848 335.3064 358.0408 335.3064 
C 357.324752 335.3064 356.637934 335.590889 356.131612 336.097212 
C 355.625289 336.603534 355.3408 337.290352 355.3408 338.0064 
C 355.3408 338.722448 355.625289 339.409266 356.131612 339.915588 
C 356.637934 340.421911 357.324752 340.7064 358.0408 340.7064 
z
" clip-path="url(#pd14df3f44f)" style="stroke: #000000; stroke-width: 2; stroke-linejoin: miter"/>
   </g>
   <g id="patch_19">
    <path d="M 430.0408 340.7064 
C 430.756848 340.7064 431.443666 340.421911 431.949988 339.915588 
C 432.456311 339.409266 432.7408 338.722448 432.7408 338.0064 
C 432.7408 337.290352 432.456311 336.603534 431.949988 336.097212 
C 431.443666 335.590889 430.756848 335.3064 430.0408 335.3064 
C 429.324752 335.3064 428.637934 335.590889 428.131612 336.097212 
C 427.625289 336.603534 427.3408 337.290352 427.3408 338.0064 
C 427.3408 338.722448 427.625289 339.409266 428.131612 339.915588 
C 428.637934 340.421911 429.324752 340.7064 430.0408 340.7064 
z
" clip-path="url(#pd14df3f44f)" style="fill: #ffffff; stroke: #000000; stroke-width: 2; stroke-linejoin: miter"/>
   </g>
   <g id="text_10">
    <!-- $V_\mathrm{out,p}$ -->
    <g transform="translate(438.1408 341.172316) scale(0.16 -0.16)">
     <defs>
      <path id="CMR17-6f" d="M 2758 1356 
C 2758 2176 2163 2816 1466 2816 
C 768 2816 173 2176 173 1356 
C 173 550 768 -64 1466 -64 
C 2163 -64 2758 550 2758 1356 
z
M 1466 51 
C 1165 51 909 230 762 480 
C 602 768 582 1126 582 1408 
C 582 1676 595 2009 762 2297 
C 890 2508 1139 2713 1466 2713 
C 1754 2713 1997 2553 2150 2329 
C 2349 2028 2349 1606 2349 1408 
C 2349 1158 2336 774 2163 467 
C 1984 172 1709 51 1466 51 
z
" transform="scale(0.015625)"/>
      <path id="CMR17-75" d="M 1882 2745 
L 1882 2579 
C 2259 2579 2317 2540 2317 2229 
L 2317 1053 
C 2317 510 2029 38 1555 38 
C 1030 38 986 355 986 691 
L 986 2816 
L 211 2745 
L 211 2579 
C 467 2579 640 2579 646 2320 
L 646 1079 
C 646 646 646 368 813 187 
C 896 103 1056 -64 1517 -64 
C 2061 -64 2272 400 2323 536 
L 2330 536 
L 2330 -64 
L 3091 -13 
L 3091 154 
C 2714 154 2656 193 2656 503 
L 2656 2816 
L 1882 2745 
z
" transform="scale(0.015625)"/>
      <path id="CMR17-74" d="M 966 2585 
L 1862 2585 
L 1862 2752 
L 966 2752 
L 966 3968 
L 851 3968 
C 838 3292 614 2700 70 2687 
L 70 2585 
L 627 2585 
L 627 778 
C 627 655 627 -64 1370 -64 
C 1747 -64 1965 308 1965 784 
L 1965 1151 
L 1850 1151 
L 1850 790 
C 1850 347 1677 51 1408 51 
C 1222 51 966 179 966 765 
L 966 2585 
z
" transform="scale(0.015625)"/>
      <path id="CMR17-70" d="M 1408 -1114 
C 998 -1114 973 -1088 973 -834 
L 973 380 
C 1158 109 1427 -64 1766 -64 
C 2406 -64 3053 503 3053 1382 
C 3053 2196 2496 2816 1837 2816 
C 1453 2816 1139 2603 960 2345 
L 960 2816 
L 198 2745 
L 198 2577 
C 576 2577 634 2539 634 2228 
L 634 -834 
C 634 -1081 608 -1114 198 -1114 
L 198 -1280 
C 352 -1268 634 -1268 800 -1268 
C 966 -1268 1254 -1268 1408 -1280 
L 1408 -1114 
z
M 973 2015 
C 973 2106 973 2241 1222 2481 
C 1254 2506 1472 2700 1792 2700 
C 2259 2700 2643 2112 2643 1376 
C 2643 639 2234 38 1728 38 
C 1498 38 1248 148 1056 451 
C 973 594 973 632 973 736 
L 973 2015 
z
" transform="scale(0.015625)"/>
     </defs>
     <use xlink:href="#CMMI12-56" transform="scale(0.996264)"/>
     <use xlink:href="#CMR17-6f" transform="translate(56.869579 -14.943915) scale(0.697382)"/>
     <use xlink:href="#CMR17-75" transform="translate(88.852761 -14.943915) scale(0.697382)"/>
     <use xlink:href="#CMR17-74" transform="translate(124.479369 -14.943915) scale(0.697382)"/>
     <use xlink:href="#CMMI12-3b" transform="translate(149.17579 -14.943915) scale(0.697382)"/>
     <use xlink:href="#CMR17-70" transform="translate(168.143723 -14.943915) scale(0.697382)"/>
    </g>
   </g>
   <g id="text_11">
    <!-- $\mathrm{C}$ -->
    <g transform="translate(325.168374 211.491456) scale(0.16 -0.16)">
     <use xlink:href="#CMR17-43" transform="scale(0.996264)"/>
    </g>
   </g>
   <g id="patch_20">
    <path d="M 392.2408 205.8864 
C 392.956848 205.8864 393.643666 205.601911 394.149988 205.095588 
C 394.656311 204.589266 394.9408 203.902448 394.9408 203.1864 
C 394.9408 202.470352 394.656311 201.783534 394.149988 201.277212 
C 393.643666 200.770889 392.956848 200.4864 392.2408 200.4864 
C 391.524752 200.4864 390.837934 200.770889 390.331612 201.277212 
C 389.825289 201.783534 389.5408 202.470352 389.5408 203.1864 
C 389.5408 203.902448 389.825289 204.589266 390.331612 205.095588 
C 390.837934 205.601911 391.524752 205.8864 392.2408 205.8864 
z
" clip-path="url(#pd14df3f44f)" style="fill: #ffffff; stroke: #000000; stroke-width: 2; stroke-linejoin: miter"/>
   </g>
   <g id="text_12">
    <!-- $V_\mathrm{en}$ -->
    <g transform="translate(400.3408 207.171456) scale(0.16 -0.16)">
     <use xlink:href="#CMMI12-56" transform="scale(0.996264)"/>
     <use xlink:href="#CMR17-65" transform="translate(56.869579 -14.943915) scale(0.697382)"/>
     <use xlink:href="#CMR17-6e" transform="translate(85.209411 -14.943915) scale(0.697382)"/>
    </g>
   </g>
   <g id="text_13">
    <!-- $\mathrm{B}$ -->
    <g transform="translate(273.494352 161.155988) scale(0.16 -0.16)">
     <use xlink:href="#CMR17-42" transform="scale(0.996264)"/>
    </g>
   </g>
   <g id="patch_21">
    <path d="M 274.7008 96.9864 
C 275.416848 96.9864 276.103666 96.701911 276.609988 96.195588 
C 277.116311 95.689266 277.4008 95.002448 277.4008 94.2864 
C 277.4008 93.570352 277.116311 92.883534 276.609988 92.377212 
C 276.103666 91.870889 275.416848 91.5864 274.7008 91.5864 
C 273.984752 91.5864 273.297934 91.870889 272.791612 92.377212 
C 272.285289 92.883534 272.0008 93.570352 272.0008 94.2864 
C 272.0008 95.002448 272.285289 95.689266 272.791612 96.195588 
C 273.297934 96.701911 273.984752 96.9864 274.7008 96.9864 
z
" clip-path="url(#pd14df3f44f)" style="fill: #ffffff; stroke: #000000; stroke-width: 2; stroke-linejoin: miter"/>
   </g>
   <g id="text_14">
    <!-- $V_\mathrm{en}$ -->
    <g transform="translate(264.572164 83.086924) scale(0.16 -0.16)">
     <use xlink:href="#CMMI12-56" transform="scale(0.996264)"/>
     <use xlink:href="#CMR17-65" transform="translate(56.869579 -14.943915) scale(0.697382)"/>
     <use xlink:href="#CMR17-6e" transform="translate(85.209411 -14.943915) scale(0.697382)"/>
    </g>
   </g>
   <g id="patch_22">
    <path d="M 358.0408 131.1864 
C 358.756848 131.1864 359.443666 130.901911 359.949988 130.395588 
C 360.456311 129.889266 360.7408 129.202448 360.7408 128.4864 
C 360.7408 127.770352 360.456311 127.083534 359.949988 126.577212 
C 359.443666 126.070889 358.756848 125.7864 358.0408 125.7864 
C 357.324752 125.7864 356.637934 126.070889 356.131612 126.577212 
C 355.625289 127.083534 355.3408 127.770352 355.3408 128.4864 
C 355.3408 129.202448 355.625289 129.889266 356.131612 130.395588 
C 356.637934 130.901911 357.324752 131.1864 358.0408 131.1864 
z
" clip-path="url(#pd14df3f44f)" style="stroke: #000000; stroke-width: 2; stroke-linejoin: miter"/>
   </g>
   <g id="patch_23">
    <path d="M 358.0408 63.6864 
C 358.756848 63.6864 359.443666 63.401911 359.949988 62.895588 
C 360.456311 62.389266 360.7408 61.702448 360.7408 60.9864 
C 360.7408 60.270352 360.456311 59.583534 359.949988 59.077212 
C 359.443666 58.570889 358.756848 58.2864 358.0408 58.2864 
C 357.324752 58.2864 356.637934 58.570889 356.131612 59.077212 
C 355.625289 59.583534 355.3408 60.270352 355.3408 60.9864 
C 355.3408 61.702448 355.625289 62.389266 356.131612 62.895588 
C 356.637934 63.401911 357.324752 63.6864 358.0408 63.6864 
z
" clip-path="url(#pd14df3f44f)" style="stroke: #000000; stroke-width: 2; stroke-linejoin: miter"/>
   </g>
   <g id="patch_24">
    <path d="M 430.0408 63.6864 
C 430.756848 63.6864 431.443666 63.401911 431.949988 62.895588 
C 432.456311 62.389266 432.7408 61.702448 432.7408 60.9864 
C 432.7408 60.270352 432.456311 59.583534 431.949988 59.077212 
C 431.443666 58.570889 430.756848 58.2864 430.0408 58.2864 
C 429.324752 58.2864 428.637934 58.570889 428.131612 59.077212 
C 427.625289 59.583534 427.3408 60.270352 427.3408 60.9864 
C 427.3408 61.702448 427.625289 62.389266 428.131612 62.895588 
C 428.637934 63.401911 429.324752 63.6864 430.0408 63.6864 
z
" clip-path="url(#pd14df3f44f)" style="fill: #ffffff; stroke: #000000; stroke-width: 2; stroke-linejoin: miter"/>
   </g>
   <g id="text_15">
    <!-- $V_\mathrm{out,n}$ -->
    <g transform="translate(438.1408 64.152316) scale(0.16 -0.16)">
     <use xlink:href="#CMMI12-56" transform="scale(0.996264)"/>
     <use xlink:href="#CMR17-6f" transform="translate(56.869579 -14.943915) scale(0.697382)"/>
     <use xlink:href="#CMR17-75" transform="translate(88.852761 -14.943915) scale(0.697382)"/>
     <use xlink:href="#CMR17-74" transform="translate(124.479369 -14.943915) scale(0.697382)"/>
     <use xlink:href="#CMMI12-3b" transform="translate(149.17579 -14.943915) scale(0.697382)"/>
     <use xlink:href="#CMR17-6e" transform="translate(168.143723 -14.943915) scale(0.697382)"/>
    </g>
   </g>
   <g id="patch_25">
    <path d="M 38.0008 63.6864 
C 38.716848 63.6864 39.403666 63.401911 39.909988 62.895588 
C 40.416311 62.389266 40.7008 61.702448 40.7008 60.9864 
C 40.7008 60.270352 40.416311 59.583534 39.909988 59.077212 
C 39.403666 58.570889 38.716848 58.2864 38.0008 58.2864 
C 37.284752 58.2864 36.597934 58.570889 36.091612 59.077212 
C 35.585289 59.583534 35.3008 60.270352 35.3008 60.9864 
C 35.3008 61.702448 35.585289 62.389266 36.091612 62.895588 
C 36.597934 63.401911 37.284752 63.6864 38.0008 63.6864 
z
" clip-path="url(#pd14df3f44f)" style="fill: #ffffff; stroke: #000000; stroke-width: 2; stroke-linejoin: miter"/>
   </g>
   <g id="text_16">
    <!-- $V_\mathrm{in,p}$ -->
    <g transform="translate(2.204779 64.152316) scale(0.16 -0.16)">
     <use xlink:href="#CMMI12-56" transform="scale(0.996264)"/>
     <use xlink:href="#CMR17-69" transform="translate(56.869579 -14.943915) scale(0.697382)"/>
     <use xlink:href="#CMR17-6e" transform="translate(74.279238 -14.943915) scale(0.697382)"/>
     <use xlink:href="#CMMI12-3b" transform="translate(109.905846 -14.943915) scale(0.697382)"/>
     <use xlink:href="#CMR17-70" transform="translate(128.873779 -14.943915) scale(0.697382)"/>
    </g>
   </g>
  </g>
 </g>
 <defs>
  <clipPath id="pd14df3f44f">
   <rect x="0" y="0" width="474.8848" height="374.7984"/>
  </clipPath>
 </defs>
</svg>
