<svg xmlns="http://www.w3.org/2000/svg" xmlns:xlink="http://www.w3.org/1999/xlink" width="705" height="635" version="1.1">
<style type="text/css">
.l0{
  fill: #ffffff;
  stroke: #ffffff;
  stroke-linecap:round;
  stroke-linejoin:round;
  stroke-width: 1.34841;
}
.l1{
  fill: #0099cc;
  stroke: #0099cc;
  stroke-linecap:round;
  stroke-linejoin:round;
  stroke-width: 1.34841;
}
.l2{
  fill: #aaaaaa; fill-opacity: 0.2;
  stroke: #aaaaaa;
  stroke-linecap:round;
  stroke-linejoin:round;
  stroke-width: 1.34841;
}
.l3{
  fill: #222222; fill-opacity: 0.5;
  stroke: #222222;
  stroke-linecap:round;
  stroke-linejoin:round;
  stroke-width: 1.34841;
}
.l4{
  fill: #229900;
  stroke: #229900;
  stroke-linecap:round;
  stroke-linejoin:round;
  stroke-width: 1.34841;
}
.l5{
  fill: #bb2200;
  stroke: #bb2200;
  stroke-linecap:round;
  stroke-linejoin:round;
  stroke-width: 1.34841;
}
.l6{
  fill: #0066cc; fill-opacity: 0.5;
  stroke: #0066cc;
  stroke-linecap:round;
  stroke-linejoin:round;
  stroke-width: 1.34841;
}
.l7{
  fill: #ff0000; fill-opacity: 0.5;
  stroke: #ff0000;
  stroke-linecap:round;
  stroke-linejoin:round;
  stroke-width: 1.34841;
}
.l8{
  fill: #888800; fill-opacity: 0.5;
  stroke: #888800;
  stroke-linecap:round;
  stroke-linejoin:round;
  stroke-width: 1.34841;
}
.l9{
  fill: #00aaaa; fill-opacity: 0.5;
  stroke: #00aaaa;
  stroke-linecap:round;
  stroke-linejoin:round;
  stroke-width: 1.34841;
}
.l10{
  fill: #880088;
  stroke: #880088;
  stroke-linecap:round;
  stroke-linejoin:round;
  stroke-width: 1.34841;
}
.l11{
  fill: #00ff00; fill-opacity: 0.5;
  stroke: #00ff00;
  stroke-linecap:round;
  stroke-linejoin:round;
  stroke-width: 1.34841;
}
.l12{
  fill: #0000cc; fill-opacity: 0.5;
  stroke: #0000cc;
  stroke-linecap:round;
  stroke-linejoin:round;
  stroke-width: 1.34841;
}
.l13{
  fill: #666600; fill-opacity: 0.5;
  stroke: #666600;
  stroke-linecap:round;
  stroke-linejoin:round;
  stroke-width: 1.34841;
}
.l14{
  fill: #557755; fill-opacity: 0.2;
  stroke: #557755;
  stroke-linecap:round;
  stroke-linejoin:round;
  stroke-width: 1.34841;
}
.l15{
  fill: #aa2222; fill-opacity: 0.5;
  stroke: #aa2222;
  stroke-linecap:round;
  stroke-linejoin:round;
  stroke-width: 1.34841;
}
.l16{
  fill: #7ccc40; fill-opacity: 0.5;
  stroke: #7ccc40;
  stroke-linecap:round;
  stroke-linejoin:round;
  stroke-width: 1.34841;
}
.l17{
  fill: #00ffcc; fill-opacity: 0.2;
  stroke: #00ffcc;
  stroke-linecap:round;
  stroke-linejoin:round;
  stroke-width: 1.34841;
}
.l18{
  fill: #ce0097; fill-opacity: 0.5;
  stroke: #ce0097;
  stroke-linecap:round;
  stroke-linejoin:round;
  stroke-width: 1.34841;
}
.l19{
  fill: #d2d46b; fill-opacity: 0.2;
  stroke: #d2d46b;
  stroke-linecap:round;
  stroke-linejoin:round;
  stroke-width: 1.34841;
}
.l20{
  fill: #ef6158; fill-opacity: 0.2;
  stroke: #ef6158;
  stroke-linecap:round;
  stroke-linejoin:round;
  stroke-width: 1.34841;
}
.l21{
  fill: #fdb200; fill-opacity: 0.2;
  stroke: #fdb200;
  stroke-linecap:round;
  stroke-linejoin:round;
  stroke-width: 1.34841;
}
text {font-family: Sans-Serif;}
</style>
<rect class="l0" x="0" y="0" width="705" height="635"/>
<path class="l4" d="M39.9528 295.401L39.9528 335.354L0 335.354L0 295.401L39.9528 295.401"/>
<path class="l4" d="M39.9528 355.33L39.9528 395.283L0 395.283L0 355.33L39.9528 355.33"/>
<path class="l4" d="M39.9528 415.26L39.9528 455.212L0 455.212L0 415.26L39.9528 415.26"/>
<path class="l4" d="M39.9528 475.189L39.9528 515.142L0 515.142L0 475.189L39.9528 475.189"/>
<path class="l4" d="M59.9292 595.047L99.882 595.047L99.882 635L59.9292 635L59.9292 595.047"/>
<path class="l4" d="M119.858 595.047L159.811 595.047L159.811 635L119.858 635L119.858 595.047"/>
<path class="l4" d="M179.788 595.047L219.74 595.047L219.74 635L179.788 635L179.788 595.047"/>
<path class="l4" d="M239.717 595.047L279.67 595.047L279.67 635L239.717 635L239.717 595.047"/>
<path class="l4" d="M0 155.566L39.9528 155.566L39.9528 115.613L0 115.613L0 155.566"/>
<path class="l4" d="M0 215.495L39.9528 215.495L39.9528 175.543L0 175.543L0 215.495"/>
<path class="l4" d="M0 275.425L39.9528 275.425L39.9528 235.472L0 235.472L0 275.425"/>
<path class="l4" d="M0 575.071L39.9528 575.071L39.9528 535.118L0 535.118L0 575.071"/>
<path class="l4" d="M479.434 595.047L479.434 635L519.387 635L519.387 595.047L479.434 595.047"/>
<path class="l4" d="M419.505 595.047L419.505 635L459.457 635L459.457 595.047L419.505 595.047"/>
<path class="l4" d="M359.575 595.047L359.575 635L399.528 635L399.528 595.047L359.575 595.047"/>
<path class="l4" d="M299.646 595.047L299.646 635L339.599 635L339.599 595.047L299.646 595.047"/>
<path class="l4" d="M539.363 115.613L539.363 155.566L579.316 155.566L579.316 115.613L539.363 115.613"/>
<path class="l4" d="M539.363 175.543L539.363 215.495L579.316 215.495L579.316 175.543L539.363 175.543"/>
<path class="l4" d="M539.363 515.142L579.316 515.142L579.316 475.189L539.363 475.189L539.363 515.142"/>
<path class="l4" d="M539.363 575.071L579.316 575.071L579.316 535.118L539.363 535.118L539.363 575.071"/>
<path class="l4" d="M579.316 415.26L539.363 415.26L539.363 455.212L579.316 455.212L579.316 415.26"/>
<path class="l4" d="M579.316 355.33L539.363 355.33L539.363 395.283L579.316 395.283L579.316 355.33"/>
<path class="l4" d="M579.316 295.401L539.363 295.401L539.363 335.354L579.316 335.354L579.316 295.401"/>
<path class="l4" d="M579.316 235.472L539.363 235.472L539.363 275.425L579.316 275.425L579.316 235.472"/>
<path class="l4" d="M59.9292 55.6842L99.882 55.6842L99.882 95.637L59.9292 95.637L59.9292 55.6842"/>
<path class="l4" d="M119.858 55.6842L159.811 55.6842L159.811 95.637L119.858 95.637L119.858 55.6842"/>
<path class="l4" d="M179.788 55.6842L219.74 55.6842L219.74 95.637L179.788 95.637L179.788 55.6842"/>
<path class="l4" d="M239.717 55.6842L279.67 55.6842L279.67 95.637L239.717 95.637L239.717 55.6842"/>
<path class="l4" d="M479.434 55.6842L479.434 95.637L519.387 95.637L519.387 55.6842L479.434 55.6842"/>
<path class="l4" d="M419.505 55.6842L419.505 95.637L459.457 95.637L459.457 55.6842L419.505 55.6842"/>
<path class="l4" d="M359.575 55.6842L359.575 95.637L399.528 95.637L399.528 55.6842L359.575 55.6842"/>
<path class="l4" d="M299.646 55.6842L299.646 95.637L339.599 95.637L339.599 55.6842L299.646 55.6842"/>
<path class="l4" style="fill:none;" d="M39.9528 95.637L539.363 95.637L539.363 595.047L39.9528 595.047L39.9528 95.637"/>
<path class="l5" d="M377.055 73.1636L382.049 73.1636L382.049 78.1577L377.055 78.1577L377.055 73.1636z"/>
<path class="l5" d="M317.125 73.1636L322.12 73.1636L322.12 78.1577L317.125 78.1577L317.125 73.1636z"/>
<path class="l5" d="M496.913 73.1636L501.907 73.1636L501.907 78.1577L496.913 78.1577L496.913 73.1636z"/>
<path class="l5" d="M436.984 73.1636L441.978 73.1636L441.978 78.1577L436.984 78.1577L436.984 73.1636z"/>
<path class="l5" d="M17.4794 133.093L22.4735 133.093L22.4735 138.087L17.4794 138.087L17.4794 133.093z"/>
<path class="l5" d="M17.4794 193.022L22.4735 193.022L22.4735 198.016L17.4794 198.016L17.4794 193.022z"/>
<path class="l5" d="M17.4794 252.951L22.4735 252.951L22.4735 257.945L17.4794 257.945L17.4794 252.951z"/>
<path class="l5" d="M556.842 372.81L561.836 372.81L561.836 377.804L556.842 377.804L556.842 372.81z"/>
<path class="l5" d="M556.842 432.739L561.836 432.739L561.836 437.733L556.842 437.733L556.842 432.739z"/>
<path class="l5" d="M556.842 492.668L561.836 492.668L561.836 497.662L556.842 497.662L556.842 492.668z"/>
<path class="l5" d="M556.842 552.597L561.836 552.597L561.836 557.591L556.842 557.591L556.842 552.597z"/>
<path class="l5" d="M77.4086 73.1636L82.4027 73.1636L82.4027 78.1577L77.4086 78.1577L77.4086 73.1636z"/>
<path class="l5" d="M137.338 73.1636L142.332 73.1636L142.332 78.1577L137.338 78.1577L137.338 73.1636z"/>
<path class="l5" d="M197.267 73.1636L202.261 73.1636L202.261 78.1577L197.267 78.1577L197.267 73.1636z"/>
<path class="l5" d="M257.196 73.1636L262.19 73.1636L262.19 78.1577L257.196 78.1577L257.196 73.1636z"/>
<path class="l5" d="M17.4794 372.81L22.4735 372.81L22.4735 377.804L17.4794 377.804L17.4794 372.81z"/>
<path class="l5" d="M17.4794 312.88L22.4735 312.88L22.4735 317.875L17.4794 317.875L17.4794 312.88z"/>
<path class="l5" d="M17.4794 492.668L22.4735 492.668L22.4735 497.662L17.4794 497.662L17.4794 492.668z"/>
<path class="l5" d="M17.4794 432.739L22.4735 432.739L22.4735 437.733L17.4794 437.733L17.4794 432.739z"/>
<path class="l5" d="M17.4794 552.597L22.4735 552.597L22.4735 557.591L17.4794 557.591L17.4794 552.597z"/>
<path class="l5" d="M77.4086 612.527L82.4027 612.527L82.4027 617.521L77.4086 617.521L77.4086 612.527z"/>
<path class="l5" d="M137.338 612.527L142.332 612.527L142.332 617.521L137.338 617.521L137.338 612.527z"/>
<path class="l5" d="M197.267 612.527L202.261 612.527L202.261 617.521L197.267 617.521L197.267 612.527z"/>
<path class="l5" d="M257.196 612.527L262.19 612.527L262.19 617.521L257.196 617.521L257.196 612.527z"/>
<path class="l5" d="M317.125 612.527L322.12 612.527L322.12 617.521L317.125 617.521L317.125 612.527z"/>
<path class="l5" d="M377.055 612.527L382.049 612.527L382.049 617.521L377.055 617.521L377.055 612.527z"/>
<path class="l5" d="M436.984 612.527L441.978 612.527L441.978 617.521L436.984 617.521L436.984 612.527z"/>
<path class="l5" d="M496.913 612.527L501.907 612.527L501.907 617.521L496.913 617.521L496.913 612.527z"/>
<path class="l5" d="M556.842 312.88L561.836 312.88L561.836 317.875L556.842 317.875L556.842 312.88z"/>
<path class="l5" d="M556.842 252.951L561.836 252.951L561.836 257.945L556.842 257.945L556.842 252.951z"/>
<path class="l5" d="M556.842 193.022L561.836 193.022L561.836 198.016L556.842 198.016L556.842 193.022z"/>
<path class="l5" d="M556.842 133.093L561.836 133.093L561.836 138.087L556.842 138.087L556.842 133.093z"/>
<text fill="#222222"  xml:space="preserve" font-size="10.3877" transform="translate(383.561, 168.128) rotate(270)" >bidir_PAD[1]</text>
<text fill="#222222"  xml:space="preserve" font-size="10.3877" transform="translate(323.632, 168.128) rotate(270)" >bidir_PAD[0]</text>
<text fill="#222222"  xml:space="preserve" font-size="10.3877" transform="translate(503.42, 168.128) rotate(270)" >bidir_PAD[3]</text>
<text fill="#222222"  xml:space="preserve" font-size="10.3877" transform="translate(443.491, 168.128) rotate(270)" >bidir_PAD[2]</text>
<text fill="#222222"  xml:space="preserve" font-size="10.3877" transform="translate(52.8807, 158.063) rotate(270)" >clk_PAD</text>
<text fill="#222222"  xml:space="preserve" font-size="10.3877" transform="translate(47.444, 198.459)" >rst_n_PAD</text>
<text fill="#222222"  xml:space="preserve" font-size="10.3877" transform="translate(47.444, 258.388)" >input_PAD[0]</text>
<text fill="#222222"  xml:space="preserve" font-size="10.3877" transform="translate(455.872, 378.246)" >analog_PAD[3]</text>
<text fill="#222222"  xml:space="preserve" font-size="10.3877" transform="translate(455.872, 438.176)" >analog_PAD[2]</text>
<text fill="#222222"  xml:space="preserve" font-size="10.3877" transform="translate(455.872, 494.181)" >analog_PAD[1]</text>
<text fill="#222222"  xml:space="preserve" font-size="10.3877" transform="translate(529.817, 587.556) rotate(270)" >analog_PAD[0]</text>
<text fill="#222222"  xml:space="preserve" font-size="10.3877" transform="translate(81.5968, 178.664) rotate(270)" >output_PAD[0]</text>
<text fill="#222222"  xml:space="preserve" font-size="10.3877" transform="translate(141.347, 179.128) rotate(270)" >output_PAD[1]</text>
<text fill="#222222"  xml:space="preserve" font-size="10.3877" transform="translate(201.277, 179.128) rotate(270)" >output_PAD[2]</text>
<text fill="#222222"  xml:space="preserve" font-size="10.3877" transform="translate(261.206, 179.128) rotate(270)" >output_PAD[3]</text>
<text fill="#222222"  xml:space="preserve" font-size="25.9693" transform="translate(549.851, 63.2833)" >@symname</text>
<text fill="#222222"  xml:space="preserve" font-size="25.9693" transform="translate(550.6, 23.5801)" >@name</text>
<text fill="#222222"  xml:space="preserve" font-size="25.9693" transform="translate(239.717, 478.792)" >(c) 2026</text>
<text fill="#222222"  xml:space="preserve" font-size="10.3877" transform="translate(49.941, 315.82)" >IOVDD</text>
<text fill="#222222"  xml:space="preserve" font-size="10.3877" transform="translate(49.941, 435.679)" >VDD</text>
<text fill="#222222"  xml:space="preserve" font-size="36.3571" transform="translate(204.758, 233.525)" >AMS Chip</text>
<text fill="#222222"  xml:space="preserve" font-size="25.9693" transform="translate(204.758, 333.964)" >Simon Dorrer</text>
<text fill="#222222"  xml:space="preserve" font-size="25.9693" transform="translate(204.758, 363.75)" >Harald Pretl</text>
<text fill="#222222"  xml:space="preserve" font-size="15.5816" transform="translate(129.847, 409.431)" >Johannes Kepler University Linz, Austria</text>
<text fill="#222222"  xml:space="preserve" font-size="10.3877" transform="translate(49.941, 375.749)" >VSS</text>
<text fill="#222222"  xml:space="preserve" font-size="10.3877" transform="translate(49.941, 495.608)" >VSS</text>
<text fill="#222222"  xml:space="preserve" font-size="10.3877" transform="translate(55.1992, 587.556) rotate(270)" >output_PAD[16]</text>
<text fill="#222222"  xml:space="preserve" font-size="10.3877" transform="translate(81.4182, 587.556) rotate(270)" >output_PAD[4]</text>
<text fill="#222222"  xml:space="preserve" font-size="10.3877" transform="translate(141.347, 587.556) rotate(270)" >output_PAD[5]</text>
<text fill="#222222"  xml:space="preserve" font-size="10.3877" transform="translate(201.277, 587.556) rotate(270)" >output_PAD[6]</text>
<text fill="#222222"  xml:space="preserve" font-size="10.3877" transform="translate(261.384, 588.02) rotate(270)" >output_PAD[7]</text>
<text fill="#222222"  xml:space="preserve" font-size="10.3877" transform="translate(321.135, 587.556) rotate(270)" >output_PAD[8]</text>
<text fill="#222222"  xml:space="preserve" font-size="10.3877" transform="translate(381.064, 587.556) rotate(270)" >output_PAD[9]</text>
<text fill="#222222"  xml:space="preserve" font-size="10.3877" transform="translate(440.994, 587.556) rotate(270)" >output_PAD[10]</text>
<text fill="#222222"  xml:space="preserve" font-size="10.3877" transform="translate(500.923, 587.556) rotate(270)" >output_PAD[11]</text>
<text fill="#222222"  xml:space="preserve" font-size="10.3877" transform="translate(448.872, 320.814)" >output_PAD[12]</text>
<text fill="#222222"  xml:space="preserve" font-size="10.3877" transform="translate(448.872, 260.885)" >output_PAD[13]</text>
<text fill="#222222"  xml:space="preserve" font-size="10.3877" transform="translate(448.872, 200.956)" >output_PAD[14]</text>
<text fill="#222222"  xml:space="preserve" font-size="10.3877" transform="translate(529.817, 186.128) rotate(270)" >output_PAD[15]</text>
</svg>
